<svg xmlns="http://www.w3.org/2000/svg" xmlns:xlink="http://www.w3.org/1999/xlink" viewBox="0 0 106.31 105"><defs><style>.cls-1{fill:none;}.cls-2{isolation:isolate;}.cls-3{fill:#e81e25;}.cls-4{fill:#6e6e6e;}.cls-5,.cls-6{fill:#d6d6d6;}.cls-16,.cls-21,.cls-26,.cls-27,.cls-29,.cls-34,.cls-38,.cls-41,.cls-44,.cls-45,.cls-6,.cls-7{mix-blend-mode:multiply;}.cls-8{fill:#ba2025;}.cls-9{fill:#737373;}.cls-10{fill:#424242;}.cls-11{fill:#525252;}.cls-12{fill:#8a8a8a;}.cls-13{fill:#fff;}.cls-14,.cls-16,.cls-17{fill:#05707c;}.cls-15{fill:#022e33;}.cls-16,.cls-44,.cls-45{opacity:0.4;}.cls-17,.cls-26,.cls-28,.cls-29,.cls-35,.cls-38{opacity:0.5;}.cls-17,.cls-28,.cls-30,.cls-35,.cls-39,.cls-46,.cls-47{mix-blend-mode:screen;}.cls-18{fill:#3a4d54;}.cls-19{fill:#ec1e28;}.cls-20{fill:#0973b9;}.cls-21,.cls-27{opacity:0.8;}.cls-22,.cls-27{fill:#adadad;}.cls-23{clip-path:url(#clip-path);}.cls-24,.cls-26,.cls-28,.cls-30,.cls-39,.cls-41{fill:#cd9b61;}.cls-25{fill:#7a4a23;}.cls-30{opacity:0.6;}.cls-31{fill:#65c7cd;}.cls-32{fill:#341d0e;}.cls-33{fill:#5a372a;}.cls-34{fill:#1d1c1a;}.cls-35{fill:#5b3011;}.cls-36{fill:#b2b1b0;}.cls-37,.cls-38,.cls-44{fill:#713a18;}.cls-39{opacity:0.2;}.cls-40{fill:#a33045;}.cls-41{opacity:0.9;}.cls-42,.cls-46{fill:#44250e;}.cls-43{fill:#110908;}</style><clipPath id="clip-path"><path class="cls-1" d="M52.46,69.11c-1.74.94-3.5,2.25-5.56,3.48,1.84,6.27-2,10.67-5.29,10.24S39,78.5,39,78.5l-2.2-2.45c-.73.06-1.49.1-2.29.09,0,0-2.7.12-7.34,2.64l-3.47,2.15S21,79.74,21.65,83.86c1.53,6.74,7.09,9.82,7.49,6.38a24.88,24.88,0,0,0,5.19-1.55A42.26,42.26,0,0,0,39,94.18C40.54,95.62,49.1,96.65,57.54,96,49.09,83.36,50.7,73.77,52.46,69.11Z"/></clipPath></defs><g class="cls-2"><g id="Layer_2" data-name="Layer 2"><g id="Layer_1-2" data-name="Layer 1"><path class="cls-3" d="M88.14,25.72c-6.12,1.34-16.41,3.62-22,4,0,1.66.07,3.29,0,4.58-.19,3.82,4,4.19,7.75,3.69s6.83-.93,7.4-4.49a24.17,24.17,0,0,0,6.12-2A8.24,8.24,0,0,0,88.14,25.72Z"/><path class="cls-4" d="M70.46,38.32h0c-3.07-.22-4.63-1.6-4.51-4,0-.84,0-1.84,0-2.9,0-.55,0-1.1,0-1.67v-.13h.13c5.53-.41,15.64-2.64,21.68-4l.48-.11,0,.14a8.45,8.45,0,0,1-.77,5.94l0,0,0,0a24.63,24.63,0,0,1-6.06,2c-.63,3.6-3.81,4-7.5,4.5A17,17,0,0,1,70.46,38.32ZM66.24,29.9c0,.51,0,1,0,1.53,0,1.06,0,2.06,0,2.92-.11,2.23,1.31,3.48,4.24,3.68h0a17.15,17.15,0,0,0,3.35-.14c3.76-.49,6.72-.88,7.28-4.37v-.1h.1a24.53,24.53,0,0,0,6-2A8.14,8.14,0,0,0,88,25.89l-.21.05C81.82,27.25,71.81,29.45,66.24,29.9Z"/><path class="cls-5" d="M95.52,22.84a4.38,4.38,0,0,1-3,1.95c-.79.14-2.37.48-4.41.93a8.24,8.24,0,0,1-.77,5.84C92.41,29.11,94.82,25.41,95.52,22.84Z"/><path class="cls-4" d="M87,31.88l.22-.39A8.12,8.12,0,0,0,88,25.76l0-.15.15,0c2.16-.47,3.64-.8,4.41-.93a4.23,4.23,0,0,0,2.88-1.89l.49-.73-.23.85c-.36,1.3-2,5.78-8.23,8.81Zm1.28-6.05a8.51,8.51,0,0,1-.61,5.41c4.91-2.52,6.77-5.94,7.43-7.68a4.48,4.48,0,0,1-2.56,1.37C91.82,25.06,90.39,25.37,88.31,25.83Z"/><path class="cls-6" d="M90.94,28.1c-1.24-.08-1.56-1-.7-1.88a9.94,9.94,0,0,1,2.44-1.46l-.13,0c-.79.14-2.37.48-4.41.93a8.24,8.24,0,0,1-.77,5.84,17.69,17.69,0,0,0,5.4-4A3.18,3.18,0,0,1,90.94,28.1Z"/><g class="cls-7"><path class="cls-8" d="M86.55,30c.15-2-.62-1.29-1.58-1.19S84.3,31.52,83.06,30s-2.73-1-2.89,1.29-.64,4.09-3.94,4.4-3-2.1-3.2-4,2.94-2.32,9-4.59a142,142,0,0,1-16,2.72c0,1.66.07,3.29,0,4.58-.19,3.82,4,4.19,7.75,3.69s6.83-.93,7.4-4.49a24.17,24.17,0,0,0,6.12-2A7.84,7.84,0,0,0,88,30C87.27,30.67,86.47,31.13,86.55,30Z"/></g><path class="cls-9" d="M95.74,21a.45.45,0,0,1,0-.11c-.36-2.78-6.44-2.3-11.72-1s-15.66,2.68-15.66,2.68c-1.52.46-2,2.46-2.19,4.82,3.57-.5,11.92-1.74,20.73-3.55C92,23.2,94.64,22.13,95.74,21Z"/><path class="cls-10" d="M65.92,27.71l0-.28c.12-1.89.5-4.46,2.34-5,.14,0,10.46-1.37,15.67-2.69a29.79,29.79,0,0,1,8.33-1c2.26.16,3.5.9,3.67,2.19l0,.18-.07.12c-1.29,1.29-4.39,2.31-9,2.94C78,26,69.45,27.22,66.19,27.67Zm26.33-8.57a28.3,28.3,0,0,0-8.19,1c-5.23,1.32-15.58,2.68-15.69,2.7-1.12.33-1.76,1.71-2,4.33,3.44-.48,11.76-1.72,20.45-3.51,5.53-.76,7.76-1.9,8.66-2.75C95.37,19.88,94.27,19.28,92.25,19.14Z"/><path class="cls-11" d="M74.39,21.76c-3.35.52-6,.87-6,.87-1.52.46-2,2.46-2.19,4.82C68.77,27.08,74,26.32,80,25.23,78.09,24.13,76.2,23,74.39,21.76Z"/><path class="cls-11" d="M89.47,19c-.29,0-.59.05-.88.09,1.72,1,3.37,2.11,5,3.24l.38-.16A52.21,52.21,0,0,1,89.47,19Z"/><path class="cls-11" d="M95.69,21.07l0-.05a.45.45,0,0,1,0-.11c-.14-1.08-1.14-1.66-2.62-1.9C94,19.7,94.82,20.39,95.69,21.07Z"/><path class="cls-11" d="M85.23,19.66l-.8.18c1.75,1.19,3.49,2.38,5.22,3.6l1.34-.3A67.23,67.23,0,0,0,85.23,19.66Z"/><path class="cls-11" d="M80.2,20.77l-.59.11C81.39,22,83.2,23.14,85,24.28l.73-.14C83.84,23.08,82,22,80.2,20.77Z"/><path class="cls-5" d="M95.52,22.84A5.53,5.53,0,0,0,95.74,21c-1.1,1.11-3.77,2.18-8.85,2.88C78.08,25.71,69.73,27,66.16,27.45c0,.75-.07,1.53-.07,2.31,7.52-.56,23.32-4.42,26.46-5A4.38,4.38,0,0,0,95.52,22.84Z"/><path class="cls-4" d="M66,29.92v-.16c0-.92,0-1.66.06-2.32v-.12h.12c3.25-.46,11.8-1.71,20.72-3.55,5.71-.78,7.92-2,8.77-2.84l.22-.22,0,.31a5.7,5.7,0,0,1-.22,1.87l0,0a4.52,4.52,0,0,1-3.07,2c-.82.14-2.55.52-4.73,1-6,1.33-16.19,3.56-21.74,4Zm.34-2.35c0,.59-.05,1.25-.05,2,5.56-.45,15.55-2.64,21.54-4,2.18-.48,3.91-.86,4.74-1a4.23,4.23,0,0,0,2.87-1.87,6.24,6.24,0,0,0,.22-1.44c-1.39,1.18-4.38,2.11-8.7,2.7C78.09,25.86,69.64,27.11,66.29,27.57Z"/><path class="cls-6" d="M73.93,26.27c-3.35.55-6.09.95-7.77,1.18,0,.75-.07,1.53-.07,2.31,7.52-.56,23.32-4.42,26.46-5A4.39,4.39,0,0,0,94.4,24c-2.36.75-6.23,1-11.38,2A21.31,21.31,0,0,1,73.93,26.27Z"/><path class="cls-5" d="M84.8,29.88a10,10,0,0,1-1.48,3.29c-.59.91,1.45.37,2.14-1.6S85.26,28.93,84.8,29.88Z"/><path class="cls-12" d="M83.37,33.82h0a.37.37,0,0,1-.34-.21.56.56,0,0,1,.1-.56,10.4,10.4,0,0,0,1.46-3.21v-.05c.18-.37.44-.57.71-.55a.56.56,0,0,1,.44.27,2.68,2.68,0,0,1-.08,2.13A3,3,0,0,1,83.37,33.82ZM85,30a10.92,10.92,0,0,1-1.51,3.34.35.35,0,0,0-.05.08,2.92,2.92,0,0,0,1.79-1.88,2.29,2.29,0,0,0,.12-1.75s-.06-.07-.08-.07S85.12,29.75,85,30Z"/><path class="cls-5" d="M81.09,30.48A10.45,10.45,0,0,1,80.48,34c-.35,1,1.49,0,1.66-2.09S81.28,29.45,81.09,30.48Z"/><path class="cls-12" d="M80.56,34.66h0a.34.34,0,0,1-.28-.16.59.59,0,0,1,0-.54,10.07,10.07,0,0,0,.59-3.47v0c.11-.56.42-.74.67-.72A.63.63,0,0,1,82,30a2.85,2.85,0,0,1,.38,2C82.23,33.61,81.11,34.7,80.56,34.66Zm.75-4.16a10.4,10.4,0,0,1-.62,3.61.51.51,0,0,0,0,.09,2.83,2.83,0,0,0,1.25-2.27,2.53,2.53,0,0,0-.28-1.68c0-.05-.09-.09-.13-.09S81.36,30.26,81.31,30.5Z"/><path class="cls-13" d="M93.77,25.21a3.39,3.39,0,0,1-2.11,2c-.88.33.44.69,1.66-.73S94.22,24.05,93.77,25.21Z"/><path class="cls-13" d="M95.12,22s-1.06,1.48-9.49,2.67C88.92,25.15,95.17,24.19,95.12,22Z"/><path class="cls-3" d="M99.6,28c-5.65,2.7-15.15,7.26-20.54,9,.37,1.61.81,3.19,1,4.46.68,3.76,4.8,3.18,8.39,1.83s6.44-2.46,6.18-6a24.16,24.16,0,0,0,5.52-3.33A8.24,8.24,0,0,0,99.6,28Z"/><path class="cls-4" d="M83.36,44.37h0a3.35,3.35,0,0,1-3.4-3c-.15-.83-.39-1.79-.65-2.82q-.19-.8-.39-1.62l0-.13.13,0c5.28-1.66,14.63-6.13,20.22-8.8l.43-.2.06.12a8.4,8.4,0,0,1,.59,6v0l0,0a24.27,24.27,0,0,1-5.46,3.31c.21,3.65-2.8,4.79-6.28,6.09A12.71,12.71,0,0,1,83.36,44.37ZM79.23,37c.12.5.24,1,.36,1.49.26,1,.5,2,.65,2.84a3.09,3.09,0,0,0,3.14,2.73,12.65,12.65,0,0,0,5.06-1c3.55-1.33,6.34-2.38,6.09-5.9v-.1l.1,0a24.42,24.42,0,0,0,5.44-3.28,8.11,8.11,0,0,0-.52-5.59l-.18.09C93.81,30.91,84.55,35.33,79.23,37Z"/><path class="cls-5" d="M106.14,23.5a4.35,4.35,0,0,1-2.46,2.57c-.73.31-2.19,1-4.08,1.91a8.24,8.24,0,0,1,.59,5.86C104.54,30.31,106,26.16,106.14,23.5Z"/><path class="cls-4" d="M99.93,34.24l.12-.43a8.16,8.16,0,0,0-.57-5.76l-.07-.13.13-.06c2-1,3.37-1.61,4.09-1.92A4.22,4.22,0,0,0,106,23.45l.31-.82,0,.88c0,1.34-.63,6.08-6,10.44Zm-.13-6.19a8.45,8.45,0,0,1,.63,5.4c4.21-3.56,5.25-7.32,5.5-9.16a4.53,4.53,0,0,1-2.19,1.92C103.05,26.5,101.73,27.13,99.8,28.05Z"/><path class="cls-6" d="M102.87,29.66c-1.22.21-1.74-.59-1.1-1.67a10.37,10.37,0,0,1,2-2l-.13.06c-.73.31-2.19,1-4.08,1.91a8.24,8.24,0,0,1,.59,5.86,17.5,17.5,0,0,0,4.35-5.1A3.12,3.12,0,0,1,102.87,29.66Z"/><g class="cls-7"><path class="cls-8" d="M99,32.54c-.31-2-.89-1.1-1.81-.79s0,2.76-1.6,1.53-2.89-.36-2.52,1.91.3,4.13-2.84,5.18-3.41-1.36-4-3.2,2.34-2.93,7.74-6.52a141.36,141.36,0,0,1-14.92,6.28c.37,1.61.81,3.19,1,4.46.68,3.76,4.8,3.18,8.39,1.83s6.44-2.46,6.18-6a24.16,24.16,0,0,0,5.52-3.33,8.06,8.06,0,0,0,.27-1.62C99.89,33,99.21,33.63,99,32.54Z"/></g><path class="cls-9" d="M105.93,21.68l0-.11c-1-2.62-6.79-.77-11.63,1.73s-14.64,6.18-14.64,6.18c-1.38.79-1.42,2.85-1,5.18C82,33.36,89.81,30.26,98,26.49,102.77,24.66,105.12,23,105.93,21.68Z"/><path class="cls-10" d="M78.42,35l0-.27c-.31-1.87-.52-4.46,1.15-5.42.13,0,9.87-3.71,14.65-6.18,3.94-2,7.54-3.16,9.65-3a2.36,2.36,0,0,1,2.29,1.4l.06.18,0,.13c-1,1.55-3.75,3.24-8.07,4.9-8.27,3.82-16.31,7-19.39,8.17Zm25.37-14.43c-2-.15-5.55,1-9.42,3C89.58,26,79.81,29.65,79.71,29.69c-1,.58-1.33,2.07-.94,4.67C82,33.1,89.84,30,97.88,26.29c5.22-2,7.13-3.61,7.81-4.64A1.94,1.94,0,0,0,103.79,20.54Z"/><path class="cls-11" d="M85.31,27.25c-3.13,1.27-5.68,2.23-5.68,2.23-1.38.79-1.42,2.85-1,5.18,2.46-.94,7.33-2.87,13-5.3C89.46,28.72,87.36,28.05,85.31,27.25Z"/><path class="cls-11" d="M99.37,21.11l-.84.29c1.91.59,3.77,1.29,5.62,2l.33-.24A52.5,52.5,0,0,1,99.37,21.11Z"/><path class="cls-11" d="M105.9,21.73l0-.05,0-.11c-.38-1-1.49-1.36-3-1.25C103.9,20.8,104.9,21.27,105.9,21.73Z"/><path class="cls-11" d="M95.39,22.74l-.74.37q3,1.13,5.91,2.31l1.24-.6C99.7,24,97.56,23.33,95.39,22.74Z"/><path class="cls-11" d="M90.75,25l-.55.25c2,.72,4,1.38,6,2.09l.68-.31A63,63,0,0,1,90.75,25Z"/><path class="cls-5" d="M106.14,23.5a5.08,5.08,0,0,0-.21-1.82c-.81,1.33-3.16,3-8,4.81-8.16,3.77-16,6.87-19.37,8.17.12.75.28,1.51.46,2.27,7.19-2.26,21.7-9.61,24.62-10.86A4.35,4.35,0,0,0,106.14,23.5Z"/><path class="cls-4" d="M79,37.12l0-.15c-.21-.9-.36-1.62-.47-2.28l0-.12.11,0c3.07-1.18,11.11-4.35,19.38-8.17,5.38-2.06,7.26-3.72,7.89-4.76l.17-.26.09.3a5.27,5.27,0,0,1,.21,1.87v0a4.54,4.54,0,0,1-2.53,2.66c-.77.32-2.36,1.08-4.38,2.05-5.59,2.67-15,7.14-20.26,8.81Zm-.2-2.36c.09.58.22,1.22.4,2,5.32-1.7,14.54-6.11,20.08-8.75,2-1,3.61-1.73,4.39-2.06A4.24,4.24,0,0,0,106,23.47a5.53,5.53,0,0,0-.12-1.46c-1.08,1.47-3.79,3.06-7.85,4.62C89.86,30.4,81.91,33.54,78.76,34.76Z"/><path class="cls-6" d="M85.89,31.75c-3.13,1.29-5.71,2.3-7.29,2.91.12.75.28,1.51.46,2.27,7.19-2.26,21.7-9.61,24.62-10.86a4.18,4.18,0,0,0,1.63-1.17c-2.13,1.27-5.84,2.4-10.61,4.58A21.35,21.35,0,0,1,85.89,31.75Z"/><path class="cls-5" d="M97.31,32.8a10.34,10.34,0,0,1-.7,3.53c-.37,1,1.49,0,1.71-2S97.53,31.77,97.31,32.8Z"/><path class="cls-12" d="M96.69,37h0a.41.41,0,0,1-.29-.16.63.63,0,0,1,0-.54,10,10,0,0,0,.68-3.46v0c.12-.55.43-.73.68-.71a.63.63,0,0,1,.43.25,2.84,2.84,0,0,1,.35,2C98.37,35.93,97.24,37,96.69,37Zm0-.44,0,.22,0-.22Zm.81-3.7a10.63,10.63,0,0,1-.71,3.59.46.46,0,0,1,0,.09,2.83,2.83,0,0,0,1.31-2.23,2.49,2.49,0,0,0-.24-1.7s-.09-.08-.12-.08S97.59,32.58,97.53,32.82Z"/><path class="cls-5" d="M93.82,34.22a10.29,10.29,0,0,1,.22,3.6c-.11,1.08,1.45-.34,1.14-2.41S93.78,33.17,93.82,34.22Z"/><path class="cls-12" d="M94.17,38.42h0a.34.34,0,0,1-.25-.13.66.66,0,0,1-.11-.49,10.28,10.28,0,0,0-.2-3.52v-.05a.92.92,0,0,1,.22-.72c.4-.39,1.29-.08,1.58,1.87a3.46,3.46,0,0,1-.69,2.75A.75.75,0,0,1,94.17,38.42Zm-.12-4.23a10.88,10.88,0,0,1,.21,3.66.34.34,0,0,0,0,.09,2.8,2.8,0,0,0,.71-2.5c-.18-1.19-.61-1.61-.78-1.62a0,0,0,0,0-.05,0A.48.48,0,0,0,94.05,34.19Z"/><path class="cls-13" d="M105,26.2a3.38,3.38,0,0,1-1.59,2.45c-.79.53.58.58,1.45-1.09S105.15,25,105,26.2Z"/><path class="cls-13" d="M105.56,22.79s-.69,1.67-8.63,4.75C100.23,27.25,106.1,24.9,105.56,22.79Z"/><path class="cls-14" d="M65.15,67.21s.2-15.67,15.21-15.51c1,11.72.81,17.09.81,17.09Z"/><path class="cls-15" d="M81.31,69,65,67.34v-.13c0-.16.39-15.81,15.36-15.65h.13v.13c1,11.59.81,17,.81,17.11Zm-16-1.87L81,68.64c0-1,0-6.37-.8-16.8C66.38,51.78,65.36,65.58,65.29,67.08Z"/><path class="cls-16" d="M65.15,67.21s.2-15.67,15.21-15.51c1,11.72.81,17.09.81,17.09Z"/><path class="cls-16" d="M80.36,51.7a16.35,16.35,0,0,0-5.86.92A10.12,10.12,0,0,1,75.7,56c.36,2.08.66,5.1-.75,6.89s-4.37,1.59-6.38,1.21a24.17,24.17,0,0,1-2.87-.73,19.12,19.12,0,0,0-.55,3.83l16,1.58S81.33,63.42,80.36,51.7Z"/><path class="cls-14" d="M71,91.84s7-.86,9.22-3.61c1,1.63,3.61-.42,7.13-2.64s7.76-1.92,8.76-6.55-4.71-20.78-3-32.4c1.74-.67,1.74-5.52-.55-4.89s-6,3-10.92,1.15-7.2,2.11-4.61,3.49c.36,5.55.79,14.25,2.61,20.21-6-1.48-15.87-1.72-19.79,1Z"/><path class="cls-15" d="M70.94,92l0-.09L59.71,67.54l.1-.07c2.41-1.66,7.4-2.41,13.35-2a40.84,40.84,0,0,1,6.31.92C77.83,60.87,77.36,53.23,77,47.64l-.08-1.16a1.91,1.91,0,0,1-1-2.22c.31-1,1.61-2.11,3.75-2a7.32,7.32,0,0,1,2.06.46,10.86,10.86,0,0,0,3,.65A14.29,14.29,0,0,0,91,42.16c.57-.22,1.12-.42,1.59-.55,1-.27,1.75.41,1.94,1.7s-.24,3-1.21,3.43c-1,6.82.57,15.18,1.82,21.9.89,4.75,1.59,8.5,1.18,10.43-.71,3.27-3,4.15-5.47,5.09a18.68,18.68,0,0,0-3.35,1.55l-1.41.9C84,88,82.31,89,81.18,89a1.28,1.28,0,0,1-.94-.5C77.9,91.12,71.33,91.94,71,92ZM60.07,67.64l11,24c.88-.12,7-1,9-3.54l.12-.16.11.17a1,1,0,0,0,.83.52c1,.07,2.65-1,4.7-2.29l1.41-.91a18.84,18.84,0,0,1,3.4-1.57c2.48-1,4.62-1.78,5.29-4.89.4-1.87-.33-5.79-1.18-10.32C93.56,61.93,92,53.51,93,46.62v-.09l.08,0c.88-.33,1.29-1.92,1.11-3.14-.07-.44-.31-1.46-1.15-1.52a1.3,1.3,0,0,0-.43,0c-.47.13-1,.32-1.57.55a14.61,14.61,0,0,1-6.4,1.26,10.91,10.91,0,0,1-3-.66,7.65,7.65,0,0,0-2-.45c-2-.14-3.18.81-3.45,1.75a1.63,1.63,0,0,0,1,1.93l.07,0,.08,1.32c.36,5.66.84,13.42,2.53,18.93l.07.24-.24-.06a40.31,40.31,0,0,0-6.51-1C67.34,65.35,62.47,66.06,60.07,67.64Z"/><path class="cls-15" d="M79.68,66.6a11.93,11.93,0,0,1,1.37.41c.4.16.87.33,1.36.56s1,.5,1.49.79a14.87,14.87,0,0,1,1.39,1l.58.53.47.51c.13.17.24.34.35.48s.16.28.23.39l.18.35-.23-.32a3.34,3.34,0,0,0-.27-.35c-.11-.14-.24-.28-.38-.44l-.5-.47-.59-.49a14.21,14.21,0,0,0-1.37-.92c-.48-.3-1-.58-1.46-.82s-.92-.46-1.31-.63l-.94-.41Z"/><path class="cls-15" d="M81.59,67l.3.08.78.17c.33.07.71.14,1.12.19a12.71,12.71,0,0,0,1.28.11c.22,0,.44,0,.65,0a4.34,4.34,0,0,0,.63,0,5,5,0,0,0,.58-.09c.18,0,.36-.07.52-.12s.3-.1.42-.14.23-.1.32-.13l.29-.12-.26.16a3.23,3.23,0,0,1-.3.19l-.42.19c-.16.07-.34.11-.52.17a3.75,3.75,0,0,1-.6.14c-.2,0-.43,0-.65.07s-.44,0-.67,0a10.69,10.69,0,0,1-1.31-.15A8.17,8.17,0,0,1,81.59,67Z"/><path class="cls-1" d="M92.84,50.65c0,.26,0,.51,0,.77C92.83,51.13,92.84,50.88,92.84,50.65Z"/><path class="cls-16" d="M92.84,50.65l0-1.06h0S92.85,50,92.84,50.65Z"/><path class="cls-16" d="M92.83,51.42c0,4.16,0,14.36,1.56,19.87,2,7-.66,7.15-4,8.6s-8.59,4.6-9.24.73c-.76,2.09-2.84,5.62-2.31,2.44.81-7.15-3-13.39-6.35-14.24s-3.07-4.2,4.91-2.26c9.45,2.82,12.5,9.47,10.94,5.53s-2.48-3.85-2.48-3.85A7.43,7.43,0,0,0,90,65.92c-2.4,1.52-6.28,2.16-7.45-5.12s-1-11.25,1.16-12.17.88-3.77,2.72-3.79,5.4-2.68,5.59-1-.19,2.59-4.26,3.83c3.66-.63,5.54-1.79,6.51-2.77.34-1.58-.17-3.59-1.69-3.17-2.31.63-6,3-10.92,1.15s-7.2,2.11-4.61,3.49c.36,5.55.79,14.25,2.61,20.21-6-1.48-15.87-1.72-19.79,1L71,91.84s7-.86,9.22-3.61c1,1.63,3.61-.42,7.13-2.64s7.76-1.92,8.76-6.55C97,75,92.82,62.31,92.83,51.42Z"/><path class="cls-17" d="M74.21,66.76s6.39.45,10.58,4.78C88,74.7,84.15,66.26,74.21,66.76Z"/><path class="cls-17" d="M91.63,49.66A78.05,78.05,0,0,0,92,60c.56,4.82-1.39,5-3.91,4.65s-2.92-7.38-2.45-12S91.46,47.85,91.63,49.66Z"/><path class="cls-17" d="M91,44.33s.48,2-2.42,2.56-2.17-.78-.37-1.77S91,43.71,91,44.33Z"/><path class="cls-13" d="M71.15,69.77c-4.55-3.17-9.74-3-15.42-1.91-2.91.54-5.5,2.73-8.83,4.73,1.84,6.27-2,10.67-5.29,10.24S39,78.5,39,78.5l-2.2-2.45c-.73.06-1.49.1-2.29.09,0,0-2.7.12-7.34,2.64l-3.47,2.15S21,79.74,21.65,83.86c1.53,6.74,7.09,9.82,7.49,6.38a24.88,24.88,0,0,0,5.19-1.55A42.26,42.26,0,0,0,39,94.18c2.6,2.49,26.18,3.74,33.91-2.6C79.25,86.38,77.78,74.39,71.15,69.77Z"/><path class="cls-18" d="M47.62,96.19h0c-4.46-.31-7.79-1-8.69-1.91a43.25,43.25,0,0,1-4.65-5.42,25.2,25.2,0,0,1-5,1.51,1.47,1.47,0,0,1-1.62,1.43c-1.85-.13-5-3-6.13-7.9-.22-1.39-.08-2.35.38-2.86a1.43,1.43,0,0,1,1.16-.41,2.59,2.59,0,0,1,.64.14l3.4-2.11C31.73,76.15,34.41,76,34.52,76a21.86,21.86,0,0,0,2.27-.09h.08l2.3,2.56,0,.07a4.53,4.53,0,0,0,.52,3.08,2.7,2.7,0,0,0,2,1.08,4.52,4.52,0,0,0,3.95-1.89c1.67-2.07,2.1-5,1.19-8.18l0-.1.1-.06c.89-.53,1.72-1.08,2.53-1.6,2.25-1.47,4.19-2.74,6.35-3.14a31.14,31.14,0,0,1,7.93-.65,14.75,14.75,0,0,1,7.6,2.59c3.42,2.39,5.67,6.88,5.86,11.73.17,4.27-1.31,8-4.08,10.3C68.15,95.69,56.75,96.84,47.62,96.19ZM34.38,88.51l.07.09a42.58,42.58,0,0,0,4.68,5.48c.84.8,4.18,1.52,8.51,1.83,12.6.89,21.74-1.59,25.2-4.44,2.7-2.21,4.14-5.89,4-10.07-.19-4.76-2.39-9.17-5.75-11.51a14.44,14.44,0,0,0-7.45-2.53,30.56,30.56,0,0,0-7.86.64c-2.11.39-4,1.64-6.24,3.09-.78.52-1.59,1-2.45,1.56A9.13,9.13,0,0,1,45.8,81a4.81,4.81,0,0,1-4.21,2,3,3,0,0,1-2.16-1.2,4.65,4.65,0,0,1-.57-3.24L36.75,76.2c-.76.06-1.49.09-2.23.09,0,0-2.72.14-7.28,2.62l-3.52,2.18-.07,0a2,2,0,0,0-.61-.14,1.13,1.13,0,0,0-.93.31,3.31,3.31,0,0,0-.31,2.61c1.07,4.75,4.15,7.56,5.87,7.67.76.06,1.22-.39,1.33-1.28v-.11l.11,0a24,24,0,0,0,5.16-1.55Z"/><path class="cls-13" d="M71.15,69.77c-4.55-3.17-9.74-3-15.42-1.91-2.91.54-5.5,2.73-8.83,4.73,1.84,6.27-2,10.67-5.29,10.24S39,78.5,39,78.5l-2.2-2.45c-.73.06-1.49.1-2.29.09,0,0-2.7.12-7.34,2.64l-3.47,2.15S21,79.74,21.65,83.86c1.53,6.74,7.09,9.82,7.49,6.38a24.88,24.88,0,0,0,5.19-1.55A42.26,42.26,0,0,0,39,94.18c2.6,2.49,26.18,3.74,33.91-2.6C79.25,86.38,77.78,74.39,71.15,69.77Z"/><path class="cls-18" d="M47.62,96.19h0c-4.46-.31-7.79-1-8.69-1.91a43.25,43.25,0,0,1-4.65-5.42,25.2,25.2,0,0,1-5,1.51,1.47,1.47,0,0,1-1.62,1.43c-1.85-.13-5-3-6.13-7.9-.22-1.39-.08-2.35.38-2.86a1.43,1.43,0,0,1,1.16-.41,2.59,2.59,0,0,1,.64.14l3.4-2.11C31.73,76.15,34.41,76,34.52,76a21.86,21.86,0,0,0,2.27-.09h.08l2.3,2.56,0,.07a4.53,4.53,0,0,0,.52,3.08,2.7,2.7,0,0,0,2,1.08,4.52,4.52,0,0,0,3.95-1.89c1.67-2.07,2.1-5,1.19-8.18l0-.1.1-.06c.89-.53,1.72-1.08,2.53-1.6,2.25-1.47,4.19-2.74,6.35-3.14a31.14,31.14,0,0,1,7.93-.65,14.75,14.75,0,0,1,7.6,2.59c3.42,2.39,5.67,6.88,5.86,11.73.17,4.27-1.31,8-4.08,10.3C68.15,95.69,56.75,96.84,47.62,96.19ZM34.38,88.51l.07.09a42.58,42.58,0,0,0,4.68,5.48c.84.8,4.18,1.52,8.51,1.83,12.6.89,21.74-1.59,25.2-4.44,2.7-2.21,4.14-5.89,4-10.07-.19-4.76-2.39-9.17-5.75-11.51a14.44,14.44,0,0,0-7.45-2.53,30.56,30.56,0,0,0-7.86.64c-2.11.39-4,1.64-6.24,3.09-.78.52-1.59,1-2.45,1.56A9.13,9.13,0,0,1,45.8,81a4.81,4.81,0,0,1-4.21,2,3,3,0,0,1-2.16-1.2,4.65,4.65,0,0,1-.57-3.24L36.75,76.2c-.76.06-1.49.09-2.23.09,0,0-2.72.14-7.28,2.62l-3.52,2.18-.07,0a2,2,0,0,0-.61-.14,1.13,1.13,0,0,0-.93.31,3.31,3.31,0,0,0-.31,2.61c1.07,4.75,4.15,7.56,5.87,7.67.76.06,1.22-.39,1.33-1.28v-.11l.11,0a24,24,0,0,0,5.16-1.55Z"/><path class="cls-19" d="M71.1,74.29c-3.66-5.08-13.71-5.76-17.27-5.84a17.47,17.47,0,0,0-2.34,1.22C54.49,70,61,71,64.42,73.92c4.08,3.54,7.94,10.28,4,20.07a19.79,19.79,0,0,0,2.82-1.24C74.7,87.06,76.18,81.34,71.1,74.29Z"/><path class="cls-20" d="M52.46,69.11c-1.74.94-3.5,2.25-5.56,3.48,1.84,6.27-2,10.67-5.29,10.24S39,78.5,39,78.5l-2.2-2.45c-.73.06-1.49.1-2.29.09,0,0-2.7.12-7.34,2.64l-3.47,2.15S21,79.74,21.65,83.86c1.53,6.74,7.09,9.82,7.49,6.38a24.88,24.88,0,0,0,5.19-1.55A42.26,42.26,0,0,0,39,94.18C40.54,95.62,49.1,96.65,57.54,96,49.09,83.36,50.7,73.77,52.46,69.11Z"/><g class="cls-21"><path class="cls-22" d="M48.09,87.34c-5.6,1.83-14.53,2.18-15.32-5.36a6.74,6.74,0,0,0-.43,2.3c0,.16-.26.35-.39.16a4,4,0,0,0-1.39-1.22,9.29,9.29,0,0,1,.68,2.83c0,.14-.14.3-.29.25a4.21,4.21,0,0,1-1.73-1.22A12.48,12.48,0,0,0,26.8,83a12.92,12.92,0,0,0-3-1.47,3.44,3.44,0,0,0-2-.11,4,4,0,0,0-.18,2.47c1.53,6.74,7.09,9.82,7.49,6.38a24.88,24.88,0,0,0,5.19-1.55A42.26,42.26,0,0,0,39,94.18C40.54,95.62,49.1,96.65,57.54,96A40.5,40.5,0,0,1,52.39,85.5C50.94,86.06,49.56,86.85,48.09,87.34Z"/></g><g class="cls-23"><polygon class="cls-13" points="52.6 89.07 53.49 91.07 55.64 91.24 54 92.6 54.46 94.81 52.55 93.63 50.63 94.77 51.11 92.56 49.66 91.12 51.73 91.13 52.6 89.07"/><polygon class="cls-13" points="47.99 84.31 48.88 86.31 51.04 86.47 49.4 87.83 49.86 90.05 47.94 88.87 46.03 90 46.51 87.8 45.06 86.36 47.13 86.37 47.99 84.31"/><polygon class="cls-13" points="38.58 84.71 39.47 86.71 41.62 86.88 39.98 88.24 40.44 90.45 38.52 89.27 36.61 90.41 37.09 88.2 35.64 86.76 37.71 86.77 38.58 84.71"/><polygon class="cls-13" points="50.95 77.87 52.12 79.72 54.27 79.57 52.85 81.15 53.63 83.28 51.56 82.39 49.84 83.79 49.99 81.54 48.34 80.32 50.39 80.03 50.95 77.87"/><polygon class="cls-13" points="34.44 79.88 35.23 81.91 37.38 82.18 35.67 83.47 36.02 85.7 34.17 84.42 32.2 85.47 32.79 83.29 31.41 81.78 33.48 81.89 34.44 79.88"/><polygon class="cls-13" points="42.11 79.56 43.29 81.4 45.44 81.25 44.02 82.84 44.79 84.97 42.73 84.08 41 85.48 41.16 83.23 39.51 82.01 41.56 81.72 42.11 79.56"/><polygon class="cls-13" points="30.48 85.69 30.24 87.86 32.02 89.09 29.91 89.44 29.19 91.59 28.13 89.6 25.91 89.62 27.44 87.95 26.91 85.98 28.69 87.03 30.48 85.69"/><polygon class="cls-13" points="25.29 80.64 25.05 82.82 26.83 84.05 24.72 84.39 24 86.54 22.95 84.55 20.72 84.57 22.25 82.91 21.72 80.93 23.5 81.98 25.29 80.64"/><polygon class="cls-13" points="30.09 76.72 29.86 78.89 31.63 80.12 29.53 80.47 28.81 82.61 27.75 80.62 25.53 80.64 27.05 78.98 26.53 77 28.31 78.06 30.09 76.72"/><polygon class="cls-13" points="35.68 73.03 35.45 75.2 37.22 76.43 35.12 76.78 34.4 78.93 33.34 76.94 31.12 76.96 32.64 75.3 32.12 73.32 33.9 74.37 35.68 73.03"/><polygon class="cls-13" points="46.34 72.12 47.51 74.08 49.77 73.98 48.23 75.6 48.99 77.84 46.85 76.85 45.02 78.27 45.23 75.92 43.55 74.61 45.7 74.36 46.34 72.12"/><polygon class="cls-13" points="44.25 89.43 45.23 91.38 47.39 91.44 45.82 92.88 46.39 95.07 44.42 93.98 42.56 95.22 42.93 92.99 41.41 91.62 43.48 91.53 44.25 89.43"/><polygon class="cls-13" points="34.57 89.89 35.74 91.74 37.9 91.58 36.47 93.17 37.25 95.3 35.19 94.41 33.46 95.81 33.61 93.56 31.96 92.35 34.01 92.05 34.57 89.89"/></g><path class="cls-24" d="M41.61,82.83c3.25.43,7.13-4,5.29-10.24a22.91,22.91,0,0,1-10.09,3.46L39,78.5S38.22,82.39,41.61,82.83Z"/><path class="cls-25" d="M41.8,83h0l-.21,0a3,3,0,0,1-2.16-1.2,4.65,4.65,0,0,1-.57-3.24l-2.35-2.61.28,0a22.8,22.8,0,0,0,10-3.45l.16-.09,0,.18c.94,3.22.49,6.29-1.24,8.43A4.92,4.92,0,0,1,41.8,83Zm-4.7-6.84,2.07,2.3,0,.07a4.53,4.53,0,0,0,.52,3.08,2.7,2.7,0,0,0,2,1.08l.19,0h0a4.58,4.58,0,0,0,3.76-1.91,8.84,8.84,0,0,0,1.24-8A23.15,23.15,0,0,1,37.1,76.16Z"/><path class="cls-26" d="M41.61,82.83c3.25.43,7.13-4,5.29-10.24a22.91,22.91,0,0,1-10.09,3.46L39,78.5S38.22,82.39,41.61,82.83Z"/><path class="cls-26" d="M39,78.73a10.86,10.86,0,0,0,5.72-1,19.45,19.45,0,0,0,2.67-1.6,11.23,11.23,0,0,0-.47-3.51,22.91,22.91,0,0,1-10.09,3.46L39,78.5S39,78.59,39,78.73Z"/><path class="cls-19" d="M51,77.85s1.7.55,4.14-1,4.13-3.16,5.47-3.11a14.14,14.14,0,0,1,2.56,3s-.55.81-3.5,1.27-2.87,5.23-7.83,5A12.38,12.38,0,0,1,51,77.85Z"/><path class="cls-18" d="M30.24,85.37a10.59,10.59,0,0,1,1.47.82c.27.16.53.37.8.56s.51.43.75.64.42.43.59.62c.3.4.48.68.48.68l-.6-.57c-.19-.15-.41-.34-.64-.54l-.76-.6-1.43-1.1Z"/><path class="cls-18" d="M32.69,84.09l.05.15.12.42c0,.17.1.36.14.58s.11.44.17.66.09.46.13.68.11.4.15.57c.07.35.1.59.1.59a5.63,5.63,0,0,1-.26-.54c-.07-.16-.15-.35-.23-.56a6.14,6.14,0,0,1-.17-.68,5.79,5.79,0,0,1-.13-.68c0-.22,0-.42-.07-.6A4.66,4.66,0,0,1,32.69,84.09Z"/><path class="cls-18" d="M53.09,82.31l.14.07.36.21c.29.17.67.42,1,.66l.54.39.47.32.45.35s-.21-.07-.53-.21a4.88,4.88,0,0,1-.53-.25l-.56-.36a5.82,5.82,0,0,1-.54-.4l-.44-.37C53.24,82.48,53.09,82.31,53.09,82.31Z"/><path class="cls-18" d="M54.13,80.6c.36.59.69,1.2,1,1.81s.66,1.23,1,1.85.62,1.24.9,1.88.56,1.28.83,1.92l0,.11-.1,0a2.51,2.51,0,0,0-.47.3,2,2,0,0,0-.36.4.74.74,0,0,0-.11.24l0,.12v.13a1.17,1.17,0,0,0,0,.26.77.77,0,0,0,.12.24,1.12,1.12,0,0,0,.18.2.92.92,0,0,0,.22.17l.25.13.26.11a2.7,2.7,0,0,0,.56.14,5.77,5.77,0,0,0,.58.08,4.31,4.31,0,0,1-1.17-.12,2.29,2.29,0,0,1-.28-.09.84.84,0,0,1-.27-.13.9.9,0,0,1-.26-.17A1.52,1.52,0,0,1,56.8,90a1.25,1.25,0,0,1-.15-.28,1.07,1.07,0,0,1-.06-.31v-.16l0-.16a1.57,1.57,0,0,1,.12-.3,1.81,1.81,0,0,1,.4-.47,4.11,4.11,0,0,1,.51-.34l-.06.17c-.28-.64-.57-1.27-.84-1.9s-.58-1.26-.87-1.89-.58-1.26-.88-1.88S54.42,81.22,54.13,80.6Z"/><path class="cls-18" d="M57.81,90.18a5.69,5.69,0,0,1,.56-.28,15.77,15.77,0,0,1,1.55-.57c.32-.1.68-.19,1.06-.29s.79-.18,1.21-.25.86-.12,1.31-.17.9-.07,1.36-.08.91,0,1.36,0,.89.08,1.31.12l1.21.19a.53.53,0,0,0,.64-.52,1,1,0,0,0-.39-.74,1.72,1.72,0,0,0-.61-.32,2.21,2.21,0,0,0-.45-.1l-.16,0h.16a1.8,1.8,0,0,1,.46.06,1.85,1.85,0,0,1,.67.28,1.1,1.1,0,0,1,.48.83.76.76,0,0,1-.22.54.78.78,0,0,1-.28.16.89.89,0,0,1-.32,0c-.41,0-.79-.1-1.22-.16s-.85-.08-1.29-.09-.9,0-1.35,0-.9,0-1.34.06-.87.08-1.29.15a19,19,0,0,0-2.27.45c-.65.17-1.2.33-1.57.47S57.81,90.18,57.81,90.18Z"/><path class="cls-18" d="M67.74,86.77c-.27-.86-.57-1.7-.9-2.54s-.67-1.66-1-2.47a35,35,0,0,0-2.6-4.69c-.25-.37-.51-.74-.79-1.08s-.56-.7-.85-1-.6-.66-.93-1c-.16-.16-.32-.31-.49-.45s-.34-.29-.52-.41-.36-.27-.54-.39l-.56-.36a10.88,10.88,0,0,0-1.2-.56,5.17,5.17,0,0,0-.63-.21,3.53,3.53,0,0,0-.64-.16,8.49,8.49,0,0,0-1.32-.16h0l-.71.1c-.24.06-.47.09-.71.17a5.3,5.3,0,0,0-.67.23c-.23.08-.44.2-.66.3s-.42.24-.62.38a4.6,4.6,0,0,0-.56.45,4.51,4.51,0,0,0-.92,1.12,4.34,4.34,0,0,1,.88-1.16,5.07,5.07,0,0,1,.55-.49,4.93,4.93,0,0,1,.61-.4,4.52,4.52,0,0,1,.66-.33,4.43,4.43,0,0,1,.69-.26c.23-.08.48-.12.71-.18s.49-.08.73-.12h0a7.74,7.74,0,0,1,1.36.13,3.82,3.82,0,0,1,.67.15,4.79,4.79,0,0,1,.64.21,8.73,8.73,0,0,1,1.24.57l.59.36c.19.12.36.26.55.39a5.52,5.52,0,0,1,.53.43,5.47,5.47,0,0,1,.51.45,12.41,12.41,0,0,1,1,1c.3.34.59.69.86,1s.53.73.79,1.1A29.84,29.84,0,0,1,66,81.68,38.32,38.32,0,0,1,67.74,86.77Z"/><path class="cls-19" d="M52.71,86.81s.95-.83,3.63-.64S61,81.56,62.93,81.7s2.57-.42,2.57-.42l1.87,4.87a20.47,20.47,0,0,0-9.65,2c-1.79,1.09-.93,2.27.85,2.56a16.58,16.58,0,0,1-3.9.5Z"/><path class="cls-18" d="M24.56,81.72a4.59,4.59,0,0,1,.71.4,6.39,6.39,0,0,1,.66.5c.24.2.46.43.69.66l.31.38a2.66,2.66,0,0,1,.28.38c.08.12.16.26.23.38a1.94,1.94,0,0,1,.18.35,7.47,7.47,0,0,1,.26.77s-.22-.26-.48-.64c-.06-.1-.16-.19-.24-.3a2.91,2.91,0,0,1-.26-.33c-.08-.12-.21-.22-.3-.34l-.31-.35L26,83.24c-.11-.11-.2-.23-.31-.34l-.56-.58Z"/><g class="cls-21"><path class="cls-27" d="M33.7,80.8c.74-2.53,2.47-3.19,3.67-2.66s-1,4.63,3.79,5.09c4.33.42,6.94-3.44,7.07-7.63.17-1.38.94-1.11,1.06.36s1.3-5.74,7.37-4.41c2.85.87,1.41-1,3.25-3.25C61,67,65.76,67.34,70,69c-4.26-2.39-9-2.14-14.23-1.18-2.91.54-5.5,2.73-8.83,4.73,1.84,6.27-2,10.67-5.29,10.24S39,78.5,39,78.5l-2.2-2.45c-.73.06-1.49.1-2.29.09a14.31,14.31,0,0,0-4.08,1.11C31.92,77.46,33.29,78.37,33.7,80.8Z"/></g><path class="cls-27" d="M38.46,84.38a5.48,5.48,0,0,0,1,.3A7.49,7.49,0,0,0,38.46,84.38Z"/><path class="cls-1" d="M48.93,82.65c2.53-4.19.75-7.45-.7-4.41-1.84,5.47-6.38,6.16-9.4,4.49s-1.4-3.91-2.41-4S35.33,80,35.33,80c-.38,1.24.88,3.46,3.13,4.36-3.23-.69-3.11,2.12-1.73,4.36,1.1,1.88,6.79,2.28,11,2.58s8.33-.65,6.91-4.34S51.63,80.83,48.93,82.65Z"/><path class="cls-1" d="M31.75,78.31c-2.72-1.2-6.27,3.14-6.27,3.14S28,84,28.28,86.13c-1.82-2.71-3.3-4-3.89-3.52s2.92,3,3.51,5.74c.65,2,.59,1.16,1.65.45s1.48-1.91.05-3.92a4.67,4.67,0,0,1,2.63,1S34.47,79.51,31.75,78.31Z"/><path class="cls-1" d="M57.17,72.25S53.88,71.13,53,73.87,53,81,54.32,82.48c-.56-3.29.19-4.25.19-4.25A48.21,48.21,0,0,0,59,86.61a9.73,9.73,0,0,1,5-.65s-4.18.48-4.26,1.71,4-.5,6.61,0C67.74,87.68,63.05,74.57,57.17,72.25Z"/><path class="cls-27" d="M69.73,83.23c-1.66-6.62-7.46-11.85-4.22-13.3,2.89-1.3,8.16,2.93,9.26,3.85a12.8,12.8,0,0,0-3.62-4c-4.55-3.17-9.74-3-15.42-1.91-2.91.54-5.5,2.73-8.83,4.73,1.84,6.27-2,10.67-5.29,10.24S39,78.5,39,78.5l-2.2-2.45c-.73.06-1.49.1-2.29.09,0,0-2.7.12-7.34,2.64l-3.47,2.15S21,79.74,21.65,83.86c1.53,6.74,7.09,9.82,7.49,6.38a24.88,24.88,0,0,0,5.19-1.55A42.26,42.26,0,0,0,39,94.18c2.6,2.49,26.18,3.74,33.91-2.6a11.35,11.35,0,0,0,3.81-7C74.53,92.15,71.38,89.78,69.73,83.23Zm-37.5,2.62a4.67,4.67,0,0,0-2.63-1c1.43,2,1,3.21-.05,3.92s-1,1.5-1.65-.45c-.59-2.73-4.11-5.23-3.51-5.74s2.07.81,3.89,3.52c-.29-2.15-2.8-4.68-2.8-4.68s3.55-4.34,6.27-3.14S32.23,85.85,32.23,85.85Zm15.53,5.47c-4.24-.3-9.93-.7-11-2.58-1.38-2.24-1.5-5,1.73-4.36-2.25-.9-3.51-3.12-3.13-4.36,0,0,.09-1.34,1.09-1.27s-.6,2.31,2.41,4,7.56,1,9.4-4.49c1.45-3,3.23.22.7,4.41,2.7-1.82,4.32.65,5.74,4.33S52,91.62,47.76,91.32Zm18.52-3.63c-2.65-.52-6.7,1.21-6.61,0S63.93,86,63.93,86a9.73,9.73,0,0,0-5,.65,48.21,48.21,0,0,1-4.45-8.38s-.75,1-.19,4.25C53,81,52.15,76.61,53,73.87s4.15-1.62,4.15-1.62C63.05,74.57,67.74,87.68,66.28,87.69Z"/><path class="cls-24" d="M38.88,102.1c1.69-1.84,1.53-2.22,4.47-2.28,3.32-.07,4-.24,5.24-1.22s1.35-1,3.64-.75,8.94,1.36,14-.38,2.33-6.48,1.36-8.64a18.83,18.83,0,0,0-8.73,1l.52,1a41.92,41.92,0,0,0-6.78.79c-5,.85-6.79.94-11.72-.08s-5.86-.82-9,.62c-2.11,1-3.21,1.44-4.1,1.41s-.32,2.9,3,1.52c1.45-.6,2.39-1,2.39-1s-1.82,1-3.46,2.2-4.8,4.71-3.85,5.63c1.24,1.2,2.78-1.32,4.23-2.84a25,25,0,0,1,4.32-3.23s-1.25,1-2.57,2.17c-1.09,1.16-1.2,2.72-1.22,4.63s.85,2.3,1.67,1a14.55,14.55,0,0,0,.88-3c.17-1.26,3.07-3,3.07-3a8.82,8.82,0,0,0-2.49,3c-.57,1.54-.84,2.57-1.17,3.43s1.72,1.4,2.48-.59,1.58-3.94,3.7-4.91c-1,.89-.86,1.29-1.74,2.81s-1.21,2-.63,2.57S38.88,102.1,38.88,102.1Z"/><path class="cls-25" d="M33.26,105a1,1,0,0,1-.79-.41.58.58,0,0,1,0-.56c.15-.39.28-.81.44-1.31s.41-1.27.73-2.12a5.81,5.81,0,0,1,1.13-1.76,3.74,3.74,0,0,0-1.44,1.79,14.55,14.55,0,0,1-.89,3c-.45.75-.85.88-1.1.86-.54,0-.85-.74-.84-1.87,0-1.94.13-3.52,1.26-4.72l.63-.57a15.92,15.92,0,0,0-2.18,1.82c-.3.31-.61.68-.91,1-1,1.15-1.89,2.23-2.79,2.16a1.22,1.22,0,0,1-.74-.35.81.81,0,0,1-.21-.66c.11-1.42,2.72-4.21,4.09-5.18.68-.49,1.41-1,2-1.34l-.8.33a4.12,4.12,0,0,1-1.87.37A1.67,1.67,0,0,1,27.21,94c0-.35.23-.58.52-.57.86,0,2-.45,4-1.39a9.71,9.71,0,0,1,5.32-1.24,31.11,31.11,0,0,1,3.81.61,33.8,33.8,0,0,0,4.48.69,28.32,28.32,0,0,0,7.19-.61,47.22,47.22,0,0,1,6.57-.79l-.49-1,.15-.06a19.24,19.24,0,0,1,8.8-1h.08l0,.07c.08.17.16.36.26.56.75,1.61,1.9,4.06,1.07,6a4.31,4.31,0,0,1-2.77,2.27,24.41,24.41,0,0,1-9.52.85c-1.33-.09-2.49-.23-3.43-.34L52.21,98l-.28,0c-2-.19-2.16-.2-3.25.74s-2,1.18-5.33,1.25c-2.45.05-2.67.31-3.73,1.51-.18.21-.39.45-.64.72s-1.65,2.06-2.43,2h0a.39.39,0,0,1-.29-.13c-.63-.62-.33-1.14.47-2.52l.13-.22a12.56,12.56,0,0,0,.64-1.26,4.71,4.71,0,0,1,.48-.89c-1.44,1-2.14,2.58-2.82,4.37A2,2,0,0,1,33.26,105Zm2.88-7.5.16.24a8.65,8.65,0,0,0-2.45,3c-.31.84-.52,1.51-.72,2.11s-.29.93-.45,1.33a.32.32,0,0,0,0,.3.72.72,0,0,0,.57.27,1.68,1.68,0,0,0,1.61-1.27c.82-2.16,1.67-4,3.78-5l.9-.41-.75.65a3.6,3.6,0,0,0-1.06,1.49,12.91,12.91,0,0,1-.65,1.29l-.13.23c-.8,1.37-1,1.72-.52,2.17a.14.14,0,0,0,.11,0c.47,0,1.6-1.15,2.19-1.9l.65-.72c1.1-1.26,1.36-1.56,3.93-1.61,3.28-.07,4-.24,5.15-1.19A2.7,2.7,0,0,1,51,97.6l1,.08.28,0,1.11.12c.94.11,2.1.25,3.42.34a23.89,23.89,0,0,0,9.41-.83,4,4,0,0,0,2.6-2.11c.78-1.83-.33-4.21-1.07-5.78L67.48,89a18.92,18.92,0,0,0-8.43.9l.56,1.08h-.24a42.27,42.27,0,0,0-6.75.79,28.34,28.34,0,0,1-7.26.61,32.41,32.41,0,0,1-4.52-.69A30.45,30.45,0,0,0,37.07,91c-2-.14-3.09.27-5.18,1.22s-3.24,1.45-4.17,1.42c-.19,0-.22.21-.23.3A1.42,1.42,0,0,0,29,95.27a4,4,0,0,0,1.74-.35c1.43-.6,2.38-1,2.39-1l.12.26s-1.83,1-3.45,2.2c-1.46,1-3.87,3.74-4,5a.48.48,0,0,0,.12.43.94.94,0,0,0,.56.28c.76.05,1.67-1,2.55-2.06.31-.36.62-.73.93-1.05a25,25,0,0,1,4.35-3.25l.16.24s-1.26,1-2.56,2.16c-1.05,1.12-1.15,2.64-1.18,4.52,0,1.07.29,1.57.58,1.59s.54-.24.83-.71h0a15.07,15.07,0,0,0,.86-3C33.17,99.28,36,97.57,36.14,97.5Z"/><path class="cls-25" d="M59.37,90.79a3.79,3.79,0,0,1,.63-.15,4.18,4.18,0,0,1,.66-.07,6.48,6.48,0,0,1,.76,0c.25,0,.51.07.75.11s.46.14.64.2a3.61,3.61,0,0,1,.42.23l.15.1s-.27,0-.64-.08l-.63-.06c-.23,0-.48,0-.73,0L60.65,91,60,90.89A5.89,5.89,0,0,1,59.37,90.79Z"/><path class="cls-25" d="M36.21,97.62a1.8,1.8,0,0,1,.26-.3,2,2,0,0,1,.3-.26,3.57,3.57,0,0,1,.38-.25,3.68,3.68,0,0,1,.78-.32,1.91,1.91,0,0,1,.4-.08,2.29,2.29,0,0,1-.27.3,3.85,3.85,0,0,1-.68.49,6.17,6.17,0,0,1-.78.34A1.77,1.77,0,0,1,36.21,97.62Z"/><path class="cls-25" d="M34.38,95.86a1.43,1.43,0,0,1,.18-.26,2.11,2.11,0,0,1,.5-.41,2.94,2.94,0,0,1,.6-.26,1.64,1.64,0,0,1,.32,0,1.3,1.3,0,0,1-.18.27,2.22,2.22,0,0,1-.51.41,2.08,2.08,0,0,1-.59.25A1,1,0,0,1,34.38,95.86Z"/><path class="cls-1" d="M32.34,94.41a7.43,7.43,0,0,0-.71.6c.87-.55,1.51-.91,1.51-.91Z"/><path class="cls-26" d="M29.07,94.55a1.93,1.93,0,0,1-1.71-.66c-.11.73.83,2.22,3.39,1.16l1.59-.64c.68-.53,1.47-1.06,2-1.43C31.89,93.78,31.18,94.4,29.07,94.55Z"/><path class="cls-26" d="M67.58,88.83a18.83,18.83,0,0,0-8.73,1l.49.94c6.77.22,7.41,3.43,4.49,4.64-6.44,2.39-12.74-.45-14.48.92s-2.69,2.06-4.56,2.07a6.46,6.46,0,0,0-4.34,1.27c-1,.89-1.78.84-1.88.09s1.64-2.13,1.64-2.13a14.73,14.73,0,0,0-2.92,1.22c-1.25.73-2,.3-1.38-.62S39.13,96,39.13,96a29.67,29.67,0,0,0-4.33,2c-1,.75-2.3-.16-1.57-.93s3.57-3,3.57-3a33.26,33.26,0,0,0-3.17,1.57c-1.63.93-1.94,1-2.5.42-.21-.21,0-.59.5-1-.59.37-1.28.82-1.95,1.29-1.65,1.18-4.8,4.71-3.85,5.63,1.24,1.2,2.78-1.32,4.23-2.84a25,25,0,0,1,4.32-3.23s-1.25,1-2.57,2.17c-1.09,1.16-1.2,2.72-1.22,4.63s.85,2.3,1.67,1a14.55,14.55,0,0,0,.88-3c.17-1.26,3.07-3,3.07-3a8.82,8.82,0,0,0-2.49,3c-.57,1.54-.84,2.57-1.17,3.43s1.72,1.4,2.48-.59,1.58-3.94,3.7-4.91c-1,.89-.86,1.29-1.74,2.81s-1.21,2-.63,2.57,2.52-1.86,2.52-1.86c1.69-1.84,1.53-2.22,4.47-2.28,3.32-.07,4-.24,5.24-1.22s1.35-1,3.64-.75,8.94,1.36,14-.38S68.55,91,67.58,88.83Z"/><path class="cls-28" d="M34.8,91.52s1-.62,6.84.67c4.08.66,2.65.62.35.33S38.31,91.45,34.8,91.52Z"/><path class="cls-28" d="M49.17,92.72s8-1.94,12.3-1.32A108.57,108.57,0,0,0,49.17,92.72Z"/><path class="cls-24" d="M9.07,30.07s-1.86,5.56.51,13.66c1.11,6.45,1.09,6.75-.47,12.22S11.43,68.86,21.92,74.4c9.48,4.59,19.3,2.93,28.44-1.62,6-3.4,8-6.4,10.16-10.56,2.06,1.32,6.44-.92,7.11-6.46s-5-6.33-6.54-1.63c-.71-8-5-24.37-18.38-28.45S11.63,21.53,9.07,30.07Z"/><path class="cls-25" d="M31.8,77.2a27.22,27.22,0,0,1-9.94-2.67C12.25,69.45,7.19,62.14,9,55.91c1.57-5.49,1.58-5.72.47-12.15-2.35-8-.52-13.68-.5-13.73,1.55-5.18,9-7.82,20-7a63.27,63.27,0,0,1,13.77,2.55c5.93,1.81,10.66,6.13,14,12.84A45.39,45.39,0,0,1,61.17,53.5a3.81,3.81,0,0,1,3.67-2.58,3,3,0,0,1,2.1,1.1,4.75,4.75,0,0,1,.84,3.76c-.62,5-4,7.1-6.13,6.95a2.56,2.56,0,0,1-1.08-.31c-2,4-4,7-10.14,10.48C43.88,76.16,37.62,77.61,31.8,77.2ZM29,23.27c-10.85-.76-18.24,1.8-19.75,6.84,0,.06-1.82,5.62.51,13.58,1.11,6.45,1.09,6.79-.48,12.3C7.92,60.62,10.47,68.19,22,74.27a26.63,26.63,0,0,0,9.83,2.64c5.76.41,12-1,18.48-4.26,6.1-3.44,8-6.52,10.09-10.49l.07-.14.13.08a2.26,2.26,0,0,0,1.08.34c2,.15,5.23-1.89,5.82-6.69a4.46,4.46,0,0,0-.77-3.55,2.73,2.73,0,0,0-1.9-1c-1.19-.08-2.85.65-3.6,3l-.21.67-.06-.7A45.44,45.44,0,0,0,56.54,38.5c-3.35-6.63-8-10.9-13.88-12.68A63.14,63.14,0,0,0,29,23.27Z"/><g class="cls-29"><path class="cls-24" d="M61.09,54.13c-.71-8-5-24.37-18.38-28.45S11.63,21.53,9.07,30.07c0,0-1.86,5.56.51,13.66,1.11,6.45,1.09,6.75-.47,12.22S11.43,68.86,21.92,74.4c9.48,4.59,19.3,2.93,28.44-1.62,6-3.4,8-6.4,10.16-10.56,2.06,1.32,6.44-.92,7.11-6.46S62.59,49.43,61.09,54.13ZM40.67,75.2C29.79,79.06,18.75,72.46,13.61,67,8.34,61.12,9,56.38,10.23,53.48s1.34-4.24,1-6.53a47.15,47.15,0,0,1-1-8.27s3,1.41,4.26-1.19a4.4,4.4,0,0,0,6-2.27,4.38,4.38,0,0,0,6-2c2.47,3.16,8.58,3.44,10.83,1.21,1,2.31,5.47,5,7.89,4.59.23,3.15,1.33,6.66,5.28,7.84C51.06,50.83,62.34,68.81,40.67,75.2Z"/></g><path class="cls-26" d="M18,68.15s.9,1.52,4.06,1.18a52.61,52.61,0,0,1,10.36.37,15.06,15.06,0,0,0,5.64-.36s-.36-.67.36-1.84A2.68,2.68,0,0,0,40.3,70a1.29,1.29,0,0,1-1.35.08s-.42,5-6.27,5.11-7.7-5.1-10.13-4.58S18,69.83,18,68.15Z"/><path class="cls-26" d="M9.4,58.41a6,6,0,0,1,3.93,5l.29-1.72s5.26,1.43,5.47-6.06c-.06-6.83-6.7-11.11-8.84-3A12.9,12.9,0,0,0,10.32,58Z"/><path class="cls-26" d="M38.28,65s1.27-5.67,6-4.29c0,0-.5-1-2.69-.83,0,0,2.92-9.11-4.47-10.67-4.81-.53-7.92,4.57-6,10C32.09,62,36,63.9,38,63A7.67,7.67,0,0,0,38.28,65Z"/><path class="cls-26" d="M27.3,64.34a2.26,2.26,0,0,0-2.86-1.54c-.07,0-.14.19,0,.24.66.18.55.65-.35,1.4a3.38,3.38,0,0,1-1.58.12,3.09,3.09,0,0,1-.8-.24c-.53-.23-.28-1.56.09-1.35,0,0,0,0,0,0l-.05-.06s0,0-.05,0a1.71,1.71,0,0,0-.27.14c0-.12-.13-.16-.2-.07-.43.61-.65.78-.67,1.52a3,3,0,0,0,.75,2,3.8,3.8,0,0,0,4.05.81C26.42,66.84,27.66,65.61,27.3,64.34Z"/><path class="cls-26" d="M21.31,66.47a2.77,2.77,0,0,0,1.09.77,4.2,4.2,0,0,0,3.25-.54,2.81,2.81,0,0,0,1.06-3.34h0a3.06,3.06,0,0,1-3.55,2.5,2.7,2.7,0,0,1-2.34-2.3,1.64,1.64,0,0,0-.24.91A3,3,0,0,0,21.31,66.47Z"/><path class="cls-25" d="M26.61,65.49c-1.43,1.28-3.81,1.9-5.23.23a3.61,3.61,0,0,1-.47-.89c-.45-1.13.44-1.68,1.43-1.67.4,0,.78.22,1.17.18,0,0,0,0,0,0-.36-.09-.65-.34-1-.42a2.45,2.45,0,0,0,.52-1.7c0-.85-.61-1.29-1.15-1.82h0a3.94,3.94,0,0,1,.91,1.33,2.86,2.86,0,0,1-.44,2.16,2.06,2.06,0,0,0-1.17.2c-.94.5-.73,1.7-.29,2.44A3.05,3.05,0,0,0,23.33,67a3.94,3.94,0,0,0,3.33-1.46A0,0,0,1,0,26.61,65.49Z"/><path class="cls-30" d="M23.74,64.18a.79.79,0,0,0-.43-.76,1.57,1.57,0,0,0-.7-.17.88.88,0,0,0-.85.48.79.79,0,0,0,1,1h.14l.19,0A.7.7,0,0,0,23.74,64.18Z"/><path class="cls-30" d="M24.81,63.59c-.24-.05-.46.37-.18.41S25.09,63.64,24.81,63.59Z"/><path class="cls-25" d="M41.64,56.44c0,3.61-2.34,6.42-5.26,6.3S31.1,59.59,31.08,56s2.34-6.42,5.26-6.29S41.63,52.84,41.64,56.44Z"/><path class="cls-13" d="M41.32,56.43c0,3.38-2.2,6-4.94,5.91s-5-3-5-6.33,2.19-6,4.93-5.92S41.3,53.05,41.32,56.43Z"/><path class="cls-24" d="M36.45,51.78a5.6,5.6,0,0,1,4.81,3.78c-.35-3-2.42-5.36-4.92-5.47-2.32-.1-4.26,1.8-4.79,4.44A5.21,5.21,0,0,1,36.45,51.78Z"/><path class="cls-30" d="M36.72,50.31a3.56,3.56,0,0,0-3.31,1.55,4.25,4.25,0,0,0,1.05-.32c.45-.12.93-.17,1.39-.27a3,3,0,0,0,1-.32C37.11,50.78,37.27,50.39,36.72,50.31Z"/><path class="cls-31" d="M41.23,56.07c.23,2.39-1.16,4.41-3.08,4.54s-3.66-1.71-3.88-4.09,1.16-4.4,3.09-4.53S41,53.7,41.23,56.07Z"/><path class="cls-32" d="M41.23,56.07c.23,2.39-1.16,4.41-3.08,4.54s-3.66-1.71-3.88-4.09,1.16-4.4,3.09-4.53S41,53.7,41.23,56.07Z"/><path class="cls-33" d="M40.42,56.29c.17,1.82-.88,3.36-2.35,3.45s-2.8-1.3-3-3.11.89-3.37,2.35-3.46S40.28,54.77,40.42,56.29Z"/><path class="cls-34" d="M40.17,56.19a2.32,2.32,0,0,1-1.86,2.73A2.48,2.48,0,0,1,36,56.46a2.31,2.31,0,0,1,1.86-2.73A2.47,2.47,0,0,1,40.17,56.19Z"/><path class="cls-35" d="M34.25,55.83c0,.23,0,.46,0,.69.22,2.38,1.95,4.21,3.88,4.09s3.31-2.15,3.08-4.54a4.72,4.72,0,0,0-.1-.64C39.16,56.86,36.13,57.35,34.25,55.83Z"/><path class="cls-13" d="M37,55.81a1.23,1.23,0,0,1-1.11,1.32,1.26,1.26,0,0,1-1.07-1.37,1.22,1.22,0,0,1,1.11-1.32A1.25,1.25,0,0,1,37,55.81Z"/><path class="cls-13" d="M36.54,58.15a.58.58,0,0,1-.52.63.6.6,0,0,1-.51-.66A.57.57,0,0,1,36,57.5.59.59,0,0,1,36.54,58.15Z"/><path class="cls-25" d="M38.39,64.06A4.07,4.07,0,0,1,38.56,63a4.4,4.4,0,0,1,.43-1,5.49,5.49,0,0,1,.35-.54,5.34,5.34,0,0,1,.46-.5l.26-.22.28-.19a2.86,2.86,0,0,1,.58-.29A2.75,2.75,0,0,1,41.5,60a2.11,2.11,0,0,1,.54-.07,2.29,2.29,0,0,1,.45,0l.34,0,.3,0a2.09,2.09,0,0,1-.3,0l-.33,0c-.13,0-.27.07-.43.1a4.08,4.08,0,0,0-.48.14,5.49,5.49,0,0,0-.51.21,5.24,5.24,0,0,0-.51.3l-.24.18-.23.2a4.37,4.37,0,0,0-.42.44c-.12.16-.25.31-.36.48s-.21.32-.29.48l-.24.45a5.94,5.94,0,0,0-.29.71Z"/><g class="cls-7"><path class="cls-36" d="M40.91,54c.59,3.39-1.14,7.73-4.79,7.43-3.47-.29-4.46-4.61-4.69-6,0,.17,0,.35,0,.54,0,3.38,2.24,6.21,5,6.33s4.95-2.53,4.94-5.91A7.68,7.68,0,0,0,40.91,54Z"/></g><path class="cls-25" d="M18.51,55c.14,3.4-1.58,6.24-3.83,6.33s-4.2-2.59-4.34-6,1.58-6.24,3.83-6.33S18.37,51.56,18.51,55Z"/><path class="cls-13" d="M18.26,55c.13,3.2-1.48,5.86-3.6,6s-3.93-2.44-4.07-5.64,1.48-5.86,3.6-5.94S18.13,51.78,18.26,55Z"/><path class="cls-31" d="M18.22,54.79c.17,2.18-1,4-2.6,4.17s-3-1.55-3.2-3.73,1-4,2.59-4.16S18.06,52.61,18.22,54.79Z"/><path class="cls-32" d="M18.22,54.79c.17,2.18-1,4-2.6,4.17s-3-1.55-3.2-3.73,1-4,2.59-4.16S18.06,52.61,18.22,54.79Z"/><path class="cls-33" d="M17.55,55c.12,1.66-.76,3.08-2,3.18S13.24,57,13.12,55.33s.75-3.09,2-3.18S17.44,53.59,17.55,55Z"/><path class="cls-34" d="M17.34,54.9c.1,1.31-.6,2.43-1.57,2.51s-1.83-.93-1.93-2.25.6-2.43,1.56-2.51S17.24,53.58,17.34,54.9Z"/><path class="cls-35" d="M12.41,54.6a4.42,4.42,0,0,0,0,.63c.16,2.18,1.6,3.85,3.2,3.73s2.77-2,2.6-4.17a3.65,3.65,0,0,0-.08-.59C16.49,55.51,14,56,12.41,54.6Z"/><path class="cls-13" d="M14.75,54.63c0,.68-.43,1.23-.93,1.21s-.9-.56-.88-1.24.42-1.23.92-1.22S14.76,54,14.75,54.63Z"/><path class="cls-13" d="M14.36,56.78a.53.53,0,0,1-.44.58.53.53,0,0,1-.42-.6.53.53,0,0,1,.44-.58C14.18,56.19,14.37,56.45,14.36,56.78Z"/><path class="cls-24" d="M14.33,50.93c1.94,0,3.18,1.47,3.85,3.23-.38-2.8-2.06-4.9-4-4.81s-3.23,2-3.54,4.54C11.09,52.86,12.19,50.93,14.33,50.93Z"/><path class="cls-30" d="M14.49,49.52A2.79,2.79,0,0,0,12,51.23c.29,0,.54-.27.8-.38s.71-.23,1.06-.36a2.29,2.29,0,0,0,.75-.37C14.81,49.93,14.92,49.55,14.49,49.52Z"/><path class="cls-25" d="M10,58.34a3,3,0,0,1,.86.3,4.66,4.66,0,0,1,.81.51c.13.12.28.23.4.36a5,5,0,0,1,.37.43,3.76,3.76,0,0,1,.32.46,3.17,3.17,0,0,1,.24.49,3,3,0,0,1,.17.47,1.85,1.85,0,0,1,.1.44,2.84,2.84,0,0,1,.05.38c0,.11,0,.21,0,.29v.25l-.09-.24-.08-.27c0-.1-.09-.21-.14-.34a2.47,2.47,0,0,0-.16-.39c-.07-.14-.13-.28-.21-.42s-.16-.29-.26-.43-.19-.29-.3-.42a6.23,6.23,0,0,0-.68-.76,8.11,8.11,0,0,0-.68-.59A8.55,8.55,0,0,0,10,58.34Z"/><g class="cls-7"><path class="cls-36" d="M14.07,60c-2.77-.34-3.35-3.84-3.46-5.59,0,.31,0,.62,0,.93.14,3.2,2,5.73,4.07,5.64s3.73-2.75,3.6-6a8.6,8.6,0,0,0-.47-2.46C18.55,56,17.52,60.39,14.07,60Z"/></g><path class="cls-26" d="M11.19,47s-.09,1.87.32.88,1.24-2.36,2.75-1.91S16,48.66,17.76,49c1.19-.62-1.54-3.59-2.74-4.65S11.48,44.49,11.19,47Z"/><path class="cls-37" d="M11.37,47.64s.36-2.94,2.45-2.87,2.89,3.28,3.79,3.23-.76-4.63-3.69-5.18S10.49,48.44,11.37,47.64Z"/><path d="M11.37,47.64a4.88,4.88,0,0,1,.22-1,3.75,3.75,0,0,1,.5-1,2,2,0,0,1,1.19-.86,2.14,2.14,0,0,1,1.73.32,5.32,5.32,0,0,1,1.35,1.44c.19.28.38.57.59.85a2.35,2.35,0,0,0,.33.37.4.4,0,0,0,.39.13.26.26,0,0,0,.06-.14.93.93,0,0,0,0-.24,2.28,2.28,0,0,0-.09-.51,5.18,5.18,0,0,0-.38-1,7,7,0,0,0-1.17-1.75,4.7,4.7,0,0,0-1.65-1.18,2.66,2.66,0,0,0-1-.18,1.6,1.6,0,0,0-.85.26,3,3,0,0,0-1.06,1.31,6.2,6.2,0,0,0-.46,1.38A5.68,5.68,0,0,0,11,47a1.1,1.1,0,0,0,.14.7.13.13,0,0,0,.17,0Zm0,0,0,0a.13.13,0,0,1-.18,0A1.13,1.13,0,0,1,11,47a5.49,5.49,0,0,1,.1-1.14,6,6,0,0,1,.43-1.43A3.16,3.16,0,0,1,12.57,43a1.82,1.82,0,0,1,.94-.31,2.67,2.67,0,0,1,1,.19,4.72,4.72,0,0,1,1.74,1.21,7.51,7.51,0,0,1,1.23,1.81,6,6,0,0,1,.38,1,2.53,2.53,0,0,1,.09.55,1,1,0,0,1,0,.3.38.38,0,0,1-.21.29.59.59,0,0,1-.58-.17,2.25,2.25,0,0,1-.36-.41c-.22-.29-.4-.58-.6-.86a5.1,5.1,0,0,0-1.27-1.41,2,2,0,0,0-1.61-.35,2.06,2.06,0,0,0-1.16.8,3.91,3.91,0,0,0-.53,1A4.69,4.69,0,0,0,11.37,47.64Z"/><path class="cls-38" d="M14.47,44.28a1.82,1.82,0,0,0-2.38.64c-.18.2-.56.6-.88.55h0c-.34,1.32-.24,2.57.19,2.18,0,0,.36-2.94,2.45-2.87s2.89,3.28,3.79,3.23c.15,0,.23-.14.24-.36C16.64,46.73,16,44.92,14.47,44.28Z"/><path class="cls-39" d="M12.59,63a5.65,5.65,0,0,0,.13-.62,4.17,4.17,0,0,0-.42-1.85A3.08,3.08,0,0,0,10.7,59a1.15,1.15,0,0,0-1.45.79,1.4,1.4,0,0,0-.06.89,2.27,2.27,0,0,0,.46.47c.48.36,1,.66,1.48,1a2.55,2.55,0,0,1,1,1.39C12.33,63.68,12.53,63.2,12.59,63Z"/><path class="cls-30" d="M11.56,59.82a1.38,1.38,0,0,0-.57-.55,1.69,1.69,0,0,0-.71-.13c-.06,0-.09.07,0,.1a4.19,4.19,0,0,1,.59.32,2.67,2.67,0,0,0,.55.4C11.47,60,11.6,59.92,11.56,59.82Z"/><path class="cls-39" d="M39.08,65.27a8.55,8.55,0,0,1,0-.88A5.88,5.88,0,0,1,40.15,62a4.27,4.27,0,0,1,2.63-1.69,1.62,1.62,0,0,1,1.78,1.49A1.83,1.83,0,0,1,44.39,63a2.39,2.39,0,0,1-.75.52c-.76.37-1.57.64-2.32,1a3.53,3.53,0,0,0-1.73,1.65C39.25,66.26,39.1,65.55,39.08,65.27Z"/><path class="cls-30" d="M41.37,61.17a1.78,1.78,0,0,1,.93-.6,2.3,2.3,0,0,1,1,0c.09,0,.12.12,0,.14a5.53,5.53,0,0,0-.9.28,3.72,3.72,0,0,1-.86.4C41.44,61.43,41.29,61.29,41.37,61.17Z"/><path class="cls-25" d="M64.52,54.88c-.68-.13-1.21.44-1.57.73a4.54,4.54,0,0,0-1.16,2.12,2.11,2.11,0,0,0,.14,2c.08.15.36.06.36-.06a5.54,5.54,0,0,1,.19-1.24,7.69,7.69,0,0,0,1.27,0c.34,0,.69,0,.91-.17,0,0,0-.09-.09-.06-.24.13-.81-.1-1.08-.13L62.87,58l-.24-.06c.07-.21.14-.42.22-.64a5.16,5.16,0,0,1,.39-.87,1.86,1.86,0,0,1,.55-.68c.3-.45.86-.5,1.67-.14,0,0,.12,0,.11,0C65.54,55.13,65,55,64.52,54.88Z"/><path class="cls-40" d="M22.7,69.94a24.92,24.92,0,0,1,5.49.12c3.44.39,8.08.87,10.32-.17-.79,2.19-2.3,4.55-6.89,4.49S25.87,70.08,22.7,69.94Z"/><path class="cls-13" d="M31,72.52c3.9.14,6-.9,6.71-2.35-2.42.66-6.46.24-9.54-.11-1.08-.12-2-.18-2.8-.2C25.91,70.8,27.82,72.4,31,72.52Z"/><path class="cls-25" d="M22.7,69.94c.33,0,.66-.07,1-.1s.67,0,1,0h1c.34,0,.67,0,1,0,.66,0,1.33.07,2,.14s1.32.13,2,.18c1.32.1,2.64.17,4,.16l1,0c.32,0,.65,0,1-.1a7.55,7.55,0,0,0,.95-.17l.47-.14.44-.18.46-.18-.17.46a12.07,12.07,0,0,1-.47,1.12,6.32,6.32,0,0,1-.65,1,6,6,0,0,1-.85.9,6.57,6.57,0,0,1-1,.7l-.56.26-.58.2-.6.15c-.2.05-.4.08-.6.11s-.4,0-.6.06-.41,0-.61,0h-.62l-.59,0a3.37,3.37,0,0,1-.61-.1,4.39,4.39,0,0,1-.6-.15,7.36,7.36,0,0,1-1.12-.47l-.53-.31-.5-.34c-.32-.24-.63-.5-.93-.76-.6-.53-1.17-1.09-1.8-1.56a5.76,5.76,0,0,0-1-.59c-.18-.08-.37-.13-.56-.2S22.9,70,22.7,69.94Zm0,0c.2,0,.4,0,.6.06s.39.09.58.16a5.37,5.37,0,0,1,1.06.56c.67.45,1.27,1,1.88,1.48.3.25.62.49.94.72l.49.32.52.28a7.1,7.1,0,0,0,1.08.42,2.66,2.66,0,0,0,.56.12,3.56,3.56,0,0,0,.57.09l.6,0a5.66,5.66,0,0,0,.58,0,5.63,5.63,0,0,0,.58,0c.2,0,.39,0,.58-.07L33.9,74l.56-.15.54-.19.52-.25a6.11,6.11,0,0,0,.94-.66,5.18,5.18,0,0,0,.78-.84,8.85,8.85,0,0,0,.6-1,8.41,8.41,0,0,0,.46-1.07l.3.27-.49.19-.49.14c-.34.07-.67.13-1,.17a8.61,8.61,0,0,1-1,.09c-.33,0-.67,0-1,0a35.31,35.31,0,0,1-4-.23q-1-.11-2-.24c-.66-.09-1.32-.12-2-.2-.33,0-.66-.08-1-.09l-1,0c-.33,0-.66,0-1,0S23,69.91,22.7,69.94Z"/><path class="cls-25" d="M18.83,69.21a.8.8,0,0,0,.12.15s.11.07.17.12.15.06.24.11l.13,0,.16,0,.34.08.38,0a2.45,2.45,0,0,0,.38,0l.79,0h.36a1.76,1.76,0,0,1,.33,0,5,5,0,0,1,.69.06,5.1,5.1,0,0,1-.67.19l-.33.07a2.07,2.07,0,0,1-.37.05c-.26,0-.54,0-.82,0s-.29,0-.43-.06l-.4-.08c-.13,0-.25-.1-.37-.15l-.16-.08-.14-.1c-.09-.08-.18-.12-.23-.21a1.62,1.62,0,0,1-.13-.19A.76.76,0,0,1,18.83,69.21Z"/><path class="cls-25" d="M38.28,68.31a3.25,3.25,0,0,1,.18.33l.16.32a1.69,1.69,0,0,0,.19.32,1,1,0,0,0,.22.26s.07.07.12.09.09.05.14.06a1.53,1.53,0,0,0,.24.07l.11,0-.1.06a.7.7,0,0,1-.28.09.66.66,0,0,1-.44-.07,1,1,0,0,1-.38-.34,1.43,1.43,0,0,1-.23-.84A1.27,1.27,0,0,1,38.28,68.31Z"/><path class="cls-26" d="M31.34,48s2.25-2.8,4.91-2.41,5.91,4.26,5.91,4.26a7.51,7.51,0,0,0-5.66-6.07,5.67,5.67,0,0,0-6.24,3.9C30.16,48.52,30.9,48.45,31.34,48Z"/><path class="cls-37" d="M31.59,46.81s1.94-2.6,4.6-2.21,5.59,4.23,5.59,4.23A6.58,6.58,0,0,0,36.51,43a5.17,5.17,0,0,0-6,3.46C30.41,47.34,31.15,47.27,31.59,46.81Z"/><path d="M41.9,49.18l-.21-.28s-2.92-3.81-5.51-4.19-4.48,2.14-4.5,2.16a1.06,1.06,0,0,1-.81.38h0a.51.51,0,0,1-.35-.17.81.81,0,0,1-.12-.61,5.27,5.27,0,0,1,5.51-3.62c.2,0,.41,0,.62.07a6.74,6.74,0,0,1,5.36,5.91Zm-6-4.72.29,0c2.27.33,4.65,3,5.41,4a6.57,6.57,0,0,0-.67-2,6.68,6.68,0,0,0-4.47-3.32l-.59-.07a5,5,0,0,0-5.27,3.43.57.57,0,0,0,.08.44.23.23,0,0,0,.19.09h0a.92.92,0,0,0,.62-.3C31.57,46.64,33.37,44.28,35.92,44.46Z"/><path class="cls-38" d="M35.14,44c-2.84.37-4.26,3-3.93,1.88a4.93,4.93,0,0,1,1.34-2,4.75,4.75,0,0,0-2,2.69c-.1.85.64.78,1.08.32,0,0,1.94-2.6,4.6-2.21s5.59,4.23,5.59,4.23,0-.15-.05-.41C38.89,44.08,36.9,43.77,35.14,44Z"/><path class="cls-1" d="M45.16,39.06c-2.42.42-6.86-2.28-7.89-4.59-2.25,2.23-8.36,2-10.83-1.21a4.38,4.38,0,0,1-6,2,4.4,4.4,0,0,1-6,2.27c-1.23,2.6-4.26,1.19-4.26,1.19a47.15,47.15,0,0,0,1,8.27c.38,2.29.29,3.63-1,6.53S8.34,61.12,13.61,67c5.14,5.45,16.18,12,27.06,8.19,21.67-6.39,10.39-24.37,9.77-28.3C46.49,45.72,45.39,42.21,45.16,39.06Z"/><path class="cls-41" d="M9.35,36.23a3.22,3.22,0,0,0,3.48-.65c1.87,1,5,1.55,6.28-2.1,2.72,1.69,5.87-.63,6.89-2.35,1.77,2.37,7.08,3.49,11.61.67,1.67,3.85,6.47,5.69,8.77,4.8-.36,3,2.09,6.42,4.17,6.57-.76,2.34,3.06,3.21,3.06,3.21-1.24,2.75-.61,4.44,2.57,6-.07,5.22,3.68,5,4.38,3.59.42-.86-.15-2.85.13-4.93-1.42-8.54-6.1-21.76-18-25.37C29.27,21.6,11.63,21.53,9.07,30.07c0,0-1.86,5.56.51,13.66l.06.38A54,54,0,0,0,9.35,36.23Z"/><path class="cls-28" d="M30.21,44.4a1.61,1.61,0,0,0-.52.58,2.6,2.6,0,0,0-.16.34,1,1,0,0,1-.11.3c-.08.1-.06.25.09.25a.89.89,0,0,0,.61-.35,1.81,1.81,0,0,0,.52-.83C30.72,44.41,30.44,44.26,30.21,44.4Z"/><path class="cls-28" d="M18.83,46.37c0-.45-.48-.49-.65-.84,0-.07-.18,0-.18,0,0,.39-.17.87.27,1.08C18.47,46.75,18.83,46.63,18.83,46.37Z"/><path class="cls-30" d="M18.76,68.3s.67,1.25,3.31,1,10,.5,12.19.39a33.28,33.28,0,0,0-8.81-.88C21.2,68.86,20.38,69.33,18.76,68.3Z"/><path class="cls-26" d="M62,58.31c0,.36-.11.72-.16,1.07.33.47,1.2.28,1.64,0,.92-.58,2.34-1.71,2.42-2.89S65,55,64.13,55.56a4.74,4.74,0,0,0-.74.6,5.8,5.8,0,0,0-1.34,1.61l-.06.47S62,58.29,62,58.31Z"/><path class="cls-42" d="M8.63,58.07s-4.69-3.35-.35-7.76a2.9,2.9,0,0,1-.68-4.64c-1.67-.11-2.81-3-1.47-4.58-2.85.69-8.54-2.85-4.7-8.07-1.69-2.92-.47-4.4.86-5.77C0,24.85.94,19.31,5.79,19,3.71,15,7.7,9.26,12.6,11.39c-.12-1.46.68-1.74,1.46-1.69-.14-4.37,7.08-6.56,9.8-3.79a3.38,3.38,0,0,1,3-1.69c.88-4.53,9.47-5.61,12.26-.7a2.32,2.32,0,0,1,3.43-1c1.74-3.92,8.58-2.43,10.3.27C55.54,0,62,2.88,62.49,6.28a6.39,6.39,0,0,1,7.08,1.29c2.44,2,2.27,6,2.27,6s6.57.68,3.47,4.84c3.57.25,4.42,2.44,2.77,5.23,2.21.38,1.92,2.94,1.4,4,2-.08,1.66,1.8,1.18,2.33,3.25-.11,4,5.32,1.77,6.62,3.24.23,4,4.32.9,6.34,1.92,2.94-.48,5.23-2.62,5.42,1,2.2-2,3.45-2.34,2.86s2.15,4.52-4.42,5.52c.36,2.83-1.69,3.35-2.59,3.29.2,2-2.11,3-3.34,2.9-.14,2-3.59,3.34-5.82,1.5-.78,1.62-3,.8-2.35-.84a13.1,13.1,0,0,1,.67-1.37s4.15,2.16,6.67-4.22c1.52-4.77-.41-6.81-2.53-7S61.09,53.25,61,54.76s-1.2,1.69-1.42.48c-1.16.66-2.58-1.45-1.13-4.12-2.5.58-5-2.07-2.94-5.88-2.72.33-4.48-3.31-2.58-5.86-2.66.71-6.12-1.1-5.26-6.87-1.92,2.78-7.91-.26-8.7-2.86-1.79,2.12-5.71-.55-5.63-1.67,0,0-3.78,4.82-8,.56C25,32,20.8,32.78,18,31.46c.07,3.22-3.91,3.61-5.59,1.92-.39,1.32-2.82.78-3.82-.94C8.1,37.11,8.23,38.79,10,45.65,11,50.78,9.58,53.58,8.63,58.07Z"/><path class="cls-43" d="M60.83,65.45a1.33,1.33,0,0,1-1-.6,1.46,1.46,0,0,1-.08-1.31,13.94,13.94,0,0,1,.67-1.39l.07-.11.12.06a3.83,3.83,0,0,0,1.31.32c1.51.11,3.63-.58,5.17-4.47,1-3,.46-4.63-.12-5.48a3,3,0,0,0-2.29-1.29c-2,0-3.43,2.14-3.53,3.59-.07,1-.55,1.43-1,1.4-.26,0-.56-.22-.7-.73A1.23,1.23,0,0,1,58,54.71a3.79,3.79,0,0,1,.18-3.39,4.56,4.56,0,0,1-.64,0A3.11,3.11,0,0,1,55,49.72a4.49,4.49,0,0,1,.22-4.32,3.1,3.1,0,0,1-2.9-1.94,4.1,4.1,0,0,1,.25-3.86,5,5,0,0,1-1.1.06,4.14,4.14,0,0,1-3-1.54c-.68-.85-1.4-2.42-1.1-5.15a3.13,3.13,0,0,1-2.52.77c-2.41-.17-5.29-2-6-3.82a2.49,2.49,0,0,1-2,.66,5.25,5.25,0,0,1-2.57-1,3.34,3.34,0,0,1-1.13-1.26,6,6,0,0,1-4.53,2.12,5.27,5.27,0,0,1-3.24-1.58c-.4,2.51-2.94,3.49-5.2,3.34a6.91,6.91,0,0,1-2.14-.51,2.81,2.81,0,0,1-.83,2,3.49,3.49,0,0,1-2.63.84,3.8,3.8,0,0,1-2.21-.87,1.32,1.32,0,0,1-1.36.62,3.57,3.57,0,0,1-2.42-1.4c-.43,4.44-.21,6.25,1.42,12.76.84,4,.17,6.6-.62,9.62-.24.91-.48,1.84-.7,2.87l0,.22-.18-.13a5.7,5.7,0,0,1-2.24-3.74,5.31,5.31,0,0,1,1.75-4.11,3,3,0,0,1-.76-4.57,2.59,2.59,0,0,1-1.62-1.58,3.23,3.23,0,0,1,.13-2.9,3.72,3.72,0,0,1-.75,0A5.86,5.86,0,0,1,.39,38.2c-.51-1.11-.77-2.91.87-5.19-1.59-2.8-.54-4.33.83-5.76A5.27,5.27,0,0,1,1.33,22a4.88,4.88,0,0,1,4.23-3.14,5.74,5.74,0,0,1,.54-5.54,5.24,5.24,0,0,1,4.74-2.52,5.48,5.48,0,0,1,1.6.38,1.67,1.67,0,0,1,.4-1.25,1.42,1.42,0,0,1,1.08-.37,4.18,4.18,0,0,1,1.4-3.06,7.59,7.59,0,0,1,5.6-1.94,4.69,4.69,0,0,1,2.9,1.12,3.53,3.53,0,0,1,2.95-1.6c.63-2.81,4-4.1,6.88-3.9a6.9,6.9,0,0,1,5.5,3.05A2.21,2.21,0,0,1,41.32,2a3.15,3.15,0,0,1,1.2.34c.8-1.64,2.6-2.47,5-2.31A7.58,7.58,0,0,1,52.9,2.58a4.21,4.21,0,0,1,3.35-1c2.62.18,5.82,2.15,6.35,4.55a6.39,6.39,0,0,1,2.93-.48,6.84,6.84,0,0,1,4.14,1.86c2.24,1.81,2.33,5.24,2.32,6,.65.08,3.42.54,4.13,2.16a2.72,2.72,0,0,1-.55,2.68,3.76,3.76,0,0,1,3.18,1.67c.5.94.34,2.18-.45,3.59a2,2,0,0,1,1.4,1.07,3.75,3.75,0,0,1,0,2.91,1.38,1.38,0,0,1,1.39.81,1.92,1.92,0,0,1-.15,1.52h0a3.27,3.27,0,0,1,2.76,2.77,4.09,4.09,0,0,1-.89,3.9,3,3,0,0,1,2.49,2.23A4,4,0,0,1,83.52,43a3.38,3.38,0,0,1,.34,3.42,3.94,3.94,0,0,1-3,2.07,2,2,0,0,1-.25,1.89,2.67,2.67,0,0,1-2,1.14h-.07a4.06,4.06,0,0,1-.41,3.17,5.59,5.59,0,0,1-4.06,2.19,3.06,3.06,0,0,1-.68,2.52,2.7,2.7,0,0,1-1.91.8A2.38,2.38,0,0,1,70.8,62a3.89,3.89,0,0,1-2.65,1.1c-.2,1.4-1.92,2.49-3.77,2.36a4,4,0,0,1-2.13-.79A1.53,1.53,0,0,1,60.83,65.45Zm-.25-3A12,12,0,0,0,60,63.65a1.1,1.1,0,0,0,0,1.05,1,1,0,0,0,.81.46,1.25,1.25,0,0,0,1.22-.8l.09-.16.13.12a3.67,3.67,0,0,0,2.11.83c1.76.13,3.39-.92,3.48-2.23v-.14H68a3.6,3.6,0,0,0,2.57-1A2.11,2.11,0,0,0,71.23,60l0-.16h.17a2.37,2.37,0,0,0,1.84-.71,2.81,2.81,0,0,0,.59-2.42l0-.14.14,0c2-.3,3.31-1,4-2.08a3.93,3.93,0,0,0,.3-3.24c0-.08,0-.13,0-.19l0-.06h.08c.08,0,.11.07.14.13a.21.21,0,0,0,.17.06,2.46,2.46,0,0,0,1.76-1,1.74,1.74,0,0,0,.14-1.79l-.07-.18.2,0a3.69,3.69,0,0,0,2.91-1.94,3.16,3.16,0,0,0-.4-3.26l-.08-.12.12-.07a3.76,3.76,0,0,0,1.79-4,2.76,2.76,0,0,0-2.62-2.07l-.46,0,.4-.23c1.13-.66,1.4-2.41,1.07-3.8-.37-1.62-1.41-2.6-2.77-2.56h-.34l.23-.25a1.54,1.54,0,0,0,.26-1.45c-.17-.45-.61-.66-1.33-.63h-.23l.1-.22a3.62,3.62,0,0,0,.1-2.86,1.85,1.85,0,0,0-1.39-1l-.21,0,.11-.18c.82-1.39,1-2.6.54-3.49s-1.57-1.42-3.2-1.53l-.26,0,.16-.21a2.62,2.62,0,0,0,.66-2.6c-.72-1.65-4-2-4-2l-.14,0v-.13s.14-4-2.22-5.87a6.45,6.45,0,0,0-4-1.79,6.18,6.18,0,0,0-3,.52l-.18.09,0-.19C62,4.16,59.09,2,56.23,1.82A4,4,0,0,0,53,2.9L52.85,3l-.09-.16C51.91,1.55,49.68.46,47.46.3s-4,.67-4.74,2.29l-.07.14-.14-.08a2.85,2.85,0,0,0-1.21-.38,2,2,0,0,0-2,1.31l-.12.24L39,3.59A6.54,6.54,0,0,0,33.63.46C30.82.26,27.56,1.52,27,4.25l0,.12h-.12A3.22,3.22,0,0,0,24,6l-.09.17L23.75,6A4.31,4.31,0,0,0,20.9,4.84,7.37,7.37,0,0,0,15.51,6.7a4,4,0,0,0-1.31,3v.16h-.16a1.25,1.25,0,0,0-1,.28,1.53,1.53,0,0,0-.3,1.25l0,.24-.22-.1a5.43,5.43,0,0,0-1.73-.43,4.94,4.94,0,0,0-4.47,2.39,5.41,5.41,0,0,0-.43,5.44l.1.19-.21,0a4.63,4.63,0,0,0-4.2,3,4.92,4.92,0,0,0,.79,5l.1.11-.1.09C1,28.79,0,30.2,1.56,33l.05.08-.06.07c-1.63,2.21-1.39,3.93-.9,5A5.53,5.53,0,0,0,5.08,41a3.37,3.37,0,0,0,1-.07l.42-.11-.28.34A2.83,2.83,0,0,0,6,44.08a2.13,2.13,0,0,0,1.66,1.45l.35,0-.26.22A2.68,2.68,0,0,0,6.89,48a2.75,2.75,0,0,0,1.47,2.19l.15.09-.13.14a5.09,5.09,0,0,0-1.78,4,5.32,5.32,0,0,0,1.94,3.39c.21-1,.43-1.82.65-2.66.78-3,1.45-5.56.62-9.48C8.12,38.93,7.94,37.2,8.43,32.43l0-.44.23.38A3.27,3.27,0,0,0,11.11,34a1,1,0,0,0,1.14-.63l.07-.23.17.18a3.51,3.51,0,0,0,2.19.92,3.15,3.15,0,0,0,2.41-.76,2.56,2.56,0,0,0,.75-2v-.23l.21.1a6.43,6.43,0,0,0,2.24.57c2.21.15,4.7-.83,4.94-3.37l0-.31.22.23a5.12,5.12,0,0,0,3.26,1.7c2.55.18,4.47-2.23,4.49-2.25l.28-.37,0,.47c0,.32.42.87,1.07,1.34a5,5,0,0,0,2.42,1,2.15,2.15,0,0,0,1.89-.74l.17-.2.08.25c.53,1.74,3.48,3.68,5.85,3.85a2.8,2.8,0,0,0,2.59-1l.34-.51-.08.61c-.35,2.32,0,4.19,1,5.41a3.83,3.83,0,0,0,2.75,1.43,4.14,4.14,0,0,0,1.36-.13l.4-.1-.24.32a3.83,3.83,0,0,0-.43,3.88,2.82,2.82,0,0,0,2.87,1.76l.27,0-.13.25a4.43,4.43,0,0,0-.34,4.27,2.79,2.79,0,0,0,2.28,1.47A3,3,0,0,0,58.4,51l.31-.07-.15.27a3.63,3.63,0,0,0-.32,3.39c.31.56.82.78,1.25.53l.18-.09,0,.19c.07.41.26.66.48.68s.6-.37.66-1.14c.11-1.59,1.65-3.89,3.82-3.85h0a3.22,3.22,0,0,1,2.52,1.41c.61.9,1.13,2.63.15,5.73-1.61,4.06-3.86,4.78-5.46,4.66A4,4,0,0,1,60.58,62.41Z"/><path class="cls-44" d="M82.43,36.6c2.22-1.3,1.48-6.73-1.77-6.62.48-.53.84-2.41-1.18-2.33.52-1.08.81-3.64-1.4-4,1.65-2.79.8-5-2.77-5.23,3.1-4.16-3.47-4.84-3.47-4.84s.17-4-2.27-6a6.39,6.39,0,0,0-7.08-1.29C62,2.88,55.54,0,52.88,2.8c-1.72-2.7-8.56-4.19-10.3-.27a2.32,2.32,0,0,0-3.43,1c-2.79-4.91-11.38-3.83-12.26.7a3.38,3.38,0,0,0-3,1.69c-2.72-2.77-9.94-.58-9.8,3.79-.78,0-1.58.23-1.46,1.69C7.7,9.26,3.71,15,5.79,19c-4.85.33-5.8,5.87-3.5,8.27C1,28.62-.26,30.1,1.43,33c-3.84,5.22,1.85,8.76,4.7,8.07-1.34,1.58-.2,4.47,1.47,4.58a2.9,2.9,0,0,0,.68,4.64c-4.34,4.41.35,7.76.35,7.76C9.58,53.58,11,50.78,10,45.65,8.23,38.79,8.1,37.11,8.57,32.44c1,1.72,3.43,2.26,3.82.94,1.68,1.69,5.66,1.3,5.59-1.92,2.82,1.32,7.06.5,7.38-2.92,4.18,4.26,8-.56,8-.56-.08,1.12,3.84,3.79,5.63,1.67.79,2.6,6.78,5.64,8.7,2.86-.86,5.77,2.6,7.58,5.26,6.87-1.9,2.55-.14,6.19,2.58,5.86-2.06,3.81.44,6.46,2.94,5.88-1.45,2.67,0,4.78,1.13,4.12.22,1.21,1.31,1,1.42-.48S62.59,51,64.66,51s4,2.19,2.53,7c-2.52,6.38-6.67,4.22-6.67,4.22a13.1,13.1,0,0,0-.67,1.37c-.62,1.64,1.57,2.46,2.35.84,2.23,1.84,5.68.51,5.82-1.5,1.23.09,3.54-.87,3.34-2.9.9.06,3-.46,2.59-3.29,6.57-1,4.13-6.1,4.42-5.52s3.3-.66,2.34-2.86c2.14-.19,4.54-2.48,2.62-5.42C86.39,40.92,85.67,36.83,82.43,36.6Zm-76-10.34a2.93,2.93,0,0,1-.27-3.64,4.32,4.32,0,0,1,3.53-1.95c.06-.11.15-.24.22-.23a3,3,0,0,1,.51.21l.52,0s0,.14-.1.24C13.09,22.84,8.87,28.54,6.42,26.26Zm14.52-3.63a4.59,4.59,0,0,1-4.12,1.64c-1.6-.16-1.32-1.69-.4-2.52A6.33,6.33,0,0,1,19,20.4l-.5,0s.14-.36.25-.36a4.87,4.87,0,0,1,1.34.25,3.59,3.59,0,0,1,.47,0,.71.71,0,0,1-.06.14A1.29,1.29,0,0,1,20.94,22.63Zm2.65-9.3c-1,1.54-4,3-5.73,1.7-1.37-1.06-.89-3,0-4.27A4.28,4.28,0,0,1,23.11,9.4s0,.07-.06.15a1.88,1.88,0,0,1,1.05,1.09A3,3,0,0,1,23.59,13.33ZM41.81,7.17a1.49,1.49,0,0,1,.36-.39c0-.1.17-.31.25-.31l.29,0a4.24,4.24,0,0,1,1.51-.12s-.09.26-.2.33l.4.13s0,0,0,0c0,.75-.11,1.85-.89,2.24a1.28,1.28,0,0,1-1.47-.44A1.21,1.21,0,0,1,41.81,7.17ZM30,19.41c-1.07.49-2.71,0-2.73-1.38,0-.05,0-.09,0-.14-.09.11-.3.3-.18.09a3.53,3.53,0,0,1,.21-.32c.23-1.1,1.55-1.43,2.58-1.31,0,0,0,0,0,.08a2.29,2.29,0,0,1,.92.36C32,17.66,31,18.92,30,19.41Zm6.73-13.8a5.52,5.52,0,0,1-2,2.3C33.19,9,29.9,9.46,28.9,7.4a3.41,3.41,0,0,1,1.24-4c1.8-1.43,3.94-.73,5.57.56C36.45,4.22,37,4.69,36.68,5.61ZM44.19,19c-1.59,1.8-4.37,1.74-6.39.6s-1.78-3.51.25-4.45a7.68,7.68,0,0,1,5.37.16,1.56,1.56,0,0,1,1.47.61,3.41,3.41,0,0,1,.33.17s-.06.17-.15.27A3.22,3.22,0,0,1,44.19,19ZM55,6.24a1.7,1.7,0,0,1,1-.8l-.3,0c-.05,0,.14-.37.25-.36a5.46,5.46,0,0,1,1.24.25,5.12,5.12,0,0,1,.56,0s0,.08,0,.16l.16.07c.34.17.93.47.88.94s-.53.73-.88.88A3.35,3.35,0,0,1,56,7.67C55.36,7.54,54.62,7,55,6.24Zm1.45,10.64c-1.56-.2-4.62-1.75-4-3.79s3.14-2,5.1-1.71a5.52,5.52,0,0,1,.81.06c1.18.17,3.05.72,3.42,2.07C62.48,16,58.2,17.11,56.48,16.88Zm5.44,14.59c-1.79.47-6.81.89-5.78-2.41a4.49,4.49,0,0,1,2.77-2.53,6.17,6.17,0,0,0-.73.12s.13-.33.25-.36a8.29,8.29,0,0,1,2.26-.14,3.34,3.34,0,0,1,.79.06v0a4.42,4.42,0,0,1,3.23,1.63C65.74,29.57,63.26,31.12,61.92,31.47ZM68.73,44c-.73,1-2.8,2.45-4,1.38-1.75-1.53-.64-5.75,2-5.21l0,.13C68.59,40.36,70.11,42.15,68.73,44Zm3.08-9.72c-.74.91-2.3,1.67-3.35.76a2,2,0,0,1-.24-2.69,2.8,2.8,0,0,1,3.35-.93.72.72,0,0,1-.17.3c.57.08,1.15.35,1.12,1A2.84,2.84,0,0,1,71.81,34.32Zm1.57-16a2.31,2.31,0,0,1-3.14,1,2.11,2.11,0,0,1-.69-2.62,1.71,1.71,0,0,1,1.09-.9c0-.11.15-.27.22-.27C72.35,15.37,74.23,16.69,73.38,18.33Z"/><g class="cls-45"><path class="cls-37" d="M82.43,36.6c1.19-.69,1.53-2.58,1.09-4.16-.38,2.91-3.15,5.05-5.1,3.29.73,2.43-.67,5.33-4.2,4.48,4.72,5.11-2.48,9.69-3.49,5-1.22,4.55-7.78,4.38-7.55,1.11-2.87,2.64-5.65-1.48-3.82-3.48-3.72.19-5.43-4.19-3.06-5.93a6,6,0,0,1-5.46-8.34c-4.85,1.9-10.72-.65-9.91-4.17-1.42,1.13-5.55.84-6.34-2.24-1,3.06-7.53,5.07-10.37,2.4-4.95,6.6-10.66,3.05-10.66,3.05S14.1,31,11.24,30.5s-1.36-2.93-1.36-2.93S8.39,29.82,7,29.42,5.45,28,7.29,26.33c0,0-3.63.56-2.67-1.18,1.22-1.9,3.7-.22,3.7-.22s-.8-2.41-2.08-1.77C3.16,24.6,2.13,23,1.82,21.33a5.1,5.1,0,0,0,.47,5.92C1,28.62-.26,30.1,1.43,33c-3.84,5.22,1.85,8.76,4.7,8.07-1.34,1.58-.2,4.47,1.47,4.58a2.9,2.9,0,0,0,.68,4.64c-4.34,4.41.35,7.76.35,7.76C9.58,53.58,11,50.78,10,45.65,8.23,38.79,8.1,37.11,8.57,32.44c1,1.72,3.43,2.26,3.82.94,1.68,1.69,5.66,1.3,5.59-1.92,2.82,1.32,7.06.5,7.38-2.92,4.18,4.26,8-.56,8-.56-.08,1.12,3.84,3.79,5.63,1.67.79,2.6,6.78,5.64,8.7,2.86-.86,5.77,2.6,7.58,5.26,6.87-1.9,2.55-.14,6.19,2.58,5.86-2.06,3.81.44,6.46,2.94,5.88-1.45,2.67,0,4.78,1.13,4.12.22,1.21,1.31,1,1.42-.48S62.59,51,64.66,51s4,2.19,2.53,7c-2.52,6.38-6.67,4.22-6.67,4.22a13.1,13.1,0,0,0-.67,1.37c-.62,1.64,1.57,2.46,2.35.84,2.23,1.84,5.68.51,5.82-1.5,1.23.09,3.54-.87,3.34-2.9.9.06,3-.46,2.59-3.29,6.57-1,4.13-6.1,4.42-5.52s3.3-.66,2.34-2.86c2.14-.19,4.54-2.48,2.62-5.42C86.39,40.92,85.67,36.83,82.43,36.6Z"/></g><path class="cls-43" d="M7.19,24.41a1.91,1.91,0,0,0-.83-.28,1.8,1.8,0,0,0-.86.11,3.49,3.49,0,0,0-.39.19c-.12.08-.24.16-.35.25s-.21.2-.32.3a3.17,3.17,0,0,0-.28.34,1.9,1.9,0,0,0-.2.37l-.08.19,0,.2a1,1,0,0,0,.24.74,1.67,1.67,0,0,0,.69.44,1.44,1.44,0,0,0,.4.09,1.07,1.07,0,0,0,.4,0L6,27.25l-.26.31-.27.32-.22.35c-.06.12-.11.25-.17.38s-.08.26-.12.39,0,.28,0,.41a2.75,2.75,0,0,0,0,.41,1.72,1.72,0,0,0,.1.39,1.63,1.63,0,0,0,.09.19l.11.16c.06.12.19.19.27.28a1.73,1.73,0,0,0,.36.18,1.79,1.79,0,0,0,.4.09c.14,0,.27,0,.41,0L7.06,31l.41-.12c.27-.08.52-.23.79-.34l.12,0,0,.13,0,.22a.83.83,0,0,0,0,.22,1.77,1.77,0,0,0,0,.23l0,.23a3.92,3.92,0,0,0,.28.88,3.3,3.3,0,0,1-.35-.87l0-.23a2.89,2.89,0,0,1,0-.48l.05-.24.09.08a7.18,7.18,0,0,1-.79.38l-.42.15-.45.08a3.31,3.31,0,0,1-.45,0,3.54,3.54,0,0,1-.45-.08,3.36,3.36,0,0,1-.43-.2c-.11-.12-.26-.2-.33-.34l-.14-.19a1.89,1.89,0,0,1-.09-.21,1.45,1.45,0,0,1-.13-.45,3.44,3.44,0,0,1,0-.46c0-.15,0-.3,0-.45s.08-.3.13-.44.11-.28.18-.42l.25-.38.3-.34.13.23a1.74,1.74,0,0,1-1-.09A1.84,1.84,0,0,1,3.9,27a1.22,1.22,0,0,1-.28-.92c0-.08,0-.16,0-.24l.1-.23A2.14,2.14,0,0,1,4,25.2c.1-.11.19-.24.31-.35s.22-.21.34-.3A2.59,2.59,0,0,1,5,24.3a2,2,0,0,1,.42-.18A1.93,1.93,0,0,1,7.19,24.41Z"/><path class="cls-43" d="M64.27,31.07a1.16,1.16,0,0,1,.22.06,2.06,2.06,0,0,1,.54.27,1.55,1.55,0,0,1,.56.68,1.36,1.36,0,0,1,.12.49,2.18,2.18,0,0,1-.06.52,2,2,0,0,1-.18.48,1.37,1.37,0,0,1-.29.42,1.64,1.64,0,0,1-.35.3,1.78,1.78,0,0,1-.38.17,1.83,1.83,0,0,1-.6.08.89.89,0,0,1-.23,0l.22,0a2,2,0,0,0,.55-.17,2.36,2.36,0,0,0,.32-.2,1.52,1.52,0,0,0,.29-.28,2,2,0,0,0,.22-.37,2.28,2.28,0,0,0,.15-.44,1.61,1.61,0,0,0,.06-.44,1.41,1.41,0,0,0-.07-.41,1.57,1.57,0,0,0-.43-.64,2.66,2.66,0,0,0-.46-.35A1.1,1.1,0,0,0,64.27,31.07Z"/><path class="cls-43" d="M63.09,35.29a2.46,2.46,0,0,1,.58.42,1.92,1.92,0,0,1,.42.64,1.63,1.63,0,0,1,.08.45,1.25,1.25,0,0,1-.09.46,1,1,0,0,1-.1.21,1.88,1.88,0,0,1-.12.18,1.37,1.37,0,0,1-.33.31,1.59,1.59,0,0,1-.38.17A1.72,1.72,0,0,1,62.08,38l.19,0a2.35,2.35,0,0,0,.5,0,1.41,1.41,0,0,0,.61-.26.89.89,0,0,0,.25-.26,1.11,1.11,0,0,0,.11-.16,1.42,1.42,0,0,0,.08-.18.89.89,0,0,0,.07-.36,1.11,1.11,0,0,0,0-.36,2,2,0,0,0-.3-.61,3.18,3.18,0,0,0-.32-.39Z"/><path class="cls-43" d="M75.32,41.07a1.85,1.85,0,0,1,.52.18,2,2,0,0,1,.49.32,2.75,2.75,0,0,1,.22.26,2,2,0,0,1,.15.33,1.54,1.54,0,0,1,0,.37,1.3,1.3,0,0,1-.08.34l-.15.28c-.06.08-.13.14-.18.21a2.65,2.65,0,0,1-.31.26.65.65,0,0,1-.13.08,1,1,0,0,1,.09-.12c0-.08.14-.18.22-.32l.12-.22c0-.08.07-.17.11-.25a2.36,2.36,0,0,0,0-.28.63.63,0,0,0,0-.27.85.85,0,0,0-.11-.26,1.24,1.24,0,0,0-.17-.23,2.69,2.69,0,0,0-.39-.37A3.45,3.45,0,0,0,75.32,41.07Z"/><path class="cls-46" d="M32.84,4.21a.87.87,0,0,0-.64-.86c-.11-.31-.9-.09-1.15,0a2.12,2.12,0,0,0-1.46,1.12h0a.79.79,0,0,0,.07.83c.48.75,1.8.39,2.4,0A1.46,1.46,0,0,0,32.84,4.21Z"/><path class="cls-46" d="M29.71,6.93c-.06-.32-.45-.5-.73-.57a2.48,2.48,0,0,0-.9,0,1.56,1.56,0,0,0-1.18.87l-.08-.09a.62.62,0,0,0-.88.1.43.43,0,0,0,.15.65.61.61,0,0,0,.71-.14,1,1,0,0,0,.51.68A1.76,1.76,0,0,0,29,8.18L29.2,8a2.29,2.29,0,0,0,.27-.27A1,1,0,0,0,29.71,6.93Z"/><path class="cls-46" d="M27.76,12.77a.62.62,0,0,0-.76,0,.41.41,0,0,0-.05.64.6.6,0,0,0,.76,0A.41.41,0,0,0,27.76,12.77Z"/><path class="cls-46" d="M18.53,9.58c.06-.68-.72-.88-1.22-.7s-1.2.94-1.11,1.5a.59.59,0,0,0,.21.53c.41.38,1.09-.05,1.44-.3A1.55,1.55,0,0,0,18.53,9.58Z"/><path class="cls-46" d="M13.14,17.94a.62.62,0,0,0-.35-.61.91.91,0,0,0-.82,0c-.33.13-.85.48-.86.88a1.41,1.41,0,0,0,0,.2,0,0,0,0,1,0,0,.43.43,0,0,0,.1.44.87.87,0,0,0,1.1,0A1.24,1.24,0,0,0,13.14,17.94Z"/><g class="cls-47"><path class="cls-42" d="M12.6,19.37Z"/><path class="cls-42" d="M12.77,19.56v-.09c0-.08-.13-.11-.2-.09h0c-.14,0-.33.1-.24.24a.21.21,0,0,0,.11.1C12.56,19.76,12.76,19.72,12.77,19.56Z"/></g><path class="cls-46" d="M9.69,24.46a.88.88,0,0,0-.85-1.25c-.7-.05-1.38.73-1.71,1.26s-.78,1.64.16,1.86a1.53,1.53,0,0,0,1.5-.57A3.32,3.32,0,0,0,9.69,24.46Z"/><path class="cls-46" d="M42.66,12.47a.73.73,0,0,0,0-.74,1,1,0,0,0-1-.31,2.55,2.55,0,0,0-1.39.69,1.34,1.34,0,0,0-.32.5.64.64,0,0,0,.08.67c.34.51,1,.4,1.52.2A2.17,2.17,0,0,0,42.66,12.47Z"/><path class="cls-46" d="M52.51,5.88l0,0a.78.78,0,0,0,.26-1,.88.88,0,0,0-.66-.43,2,2,0,0,0-1.89.61.87.87,0,0,0,.17,1.44,2.1,2.1,0,0,0,1.65-.06A.79.79,0,0,0,52.51,5.88Z"/><path class="cls-46" d="M50.7,7.3h0a.49.49,0,0,0-.39-.49h0c-.42-.11-1,.31-.75.76a.62.62,0,0,0,.66.24C50.41,7.75,50.72,7.55,50.7,7.3Z"/><path class="cls-46" d="M67.22,18.44c.16-1-1-1.22-1.71-1a2.55,2.55,0,0,0-.69.36,1.53,1.53,0,0,0-.85,1.5c.11.88,1.13.83,1.74.61S67.12,19.1,67.22,18.44Z"/><g class="cls-21"><path class="cls-37" d="M84.79,37.94a3.18,3.18,0,0,1-5.17,1.94,3.09,3.09,0,0,1-2.6,5.2c.72,4-5.63,6.66-6.81,2.76-2.27,3.54-8.41,3.22-8.16,1.22-2.95,2.15-7.32-1-4.77-5.38-2.9-.2-5.09-2.48-2.5-5.89-3.31.78-7.08-3-6.21-7.27-2.81,1.71-9,1.15-8.3-3.16-1.54,1.23-5.38,1.63-5.92-1.88C32,28.34,28.77,30.29,25,26.73c-1.12,3.42-6.37,5.4-7.6,2.89-.68,2.85-3.78,4-4.77,1.89-2.82,2.76-4.33-.87-4.33-.87.34,2.13-3.81,4.8-3,1.72A3.09,3.09,0,0,1,1,32.17a7.39,7.39,0,0,0,.42.85c-3.84,5.22,1.85,8.76,4.7,8.07-1.34,1.58-.2,4.47,1.47,4.58a2.9,2.9,0,0,0,.68,4.64c-4.34,4.41.35,7.76.35,7.76C9.58,53.58,11,50.78,10,45.65,8.23,38.79,8.1,37.11,8.57,32.44c1,1.72,3.43,2.26,3.82.94,1.68,1.69,5.66,1.3,5.59-1.92,2.82,1.32,7.06.5,7.38-2.92,4.18,4.26,8-.56,8-.56-.08,1.12,3.84,3.79,5.63,1.67.79,2.6,6.78,5.64,8.7,2.86-.86,5.77,2.6,7.58,5.26,6.87-1.9,2.55-.14,6.19,2.58,5.86-2.06,3.81.44,6.46,2.94,5.88-1.45,2.67,0,4.78,1.13,4.12.22,1.21,1.31,1,1.42-.48S62.59,51,64.66,51s4,2.19,2.53,7c-2.52,6.38-6.67,4.22-6.67,4.22a13.1,13.1,0,0,0-.67,1.37c-.62,1.64,1.57,2.46,2.35.84,2.23,1.84,5.68.51,5.82-1.5,1.23.09,3.54-.87,3.34-2.9.9.06,3-.46,2.59-3.29,6.57-1,4.13-6.1,4.42-5.52s3.3-.66,2.34-2.86c2.14-.19,4.54-2.48,2.62-5.42A3.68,3.68,0,0,0,84.79,37.94Z"/></g></g></g></g></svg>