<svg xmlns="http://www.w3.org/2000/svg" xmlns:xlink="http://www.w3.org/1999/xlink" viewBox="0 0 87.06 160"><defs><style>.cls-1{fill:#b2ccea;}.cls-2{isolation:isolate;}.cls-3{fill:#f7c6aa;}.cls-24,.cls-4,.cls-44,.cls-5,.cls-6,.cls-7,.cls-9{fill:#f4caab;}.cls-18,.cls-35,.cls-4{opacity:0.4;}.cls-18,.cls-19,.cls-28,.cls-33,.cls-4,.cls-42,.cls-44{mix-blend-mode:screen;}.cls-5{opacity:0.3;}.cls-11,.cls-13,.cls-21,.cls-22,.cls-23,.cls-26,.cls-27,.cls-35,.cls-36,.cls-38,.cls-40,.cls-5,.cls-6,.cls-7,.cls-9{mix-blend-mode:multiply;}.cls-6{opacity:0.6;}.cls-19,.cls-22,.cls-23,.cls-7{opacity:0.8;}.cls-8{fill:#a5765d;}.cls-10,.cls-11,.cls-13,.cls-28{fill:#fab548;}.cls-11,.cls-21,.cls-26,.cls-28,.cls-38{opacity:0.5;}.cls-12{fill:#b57c28;}.cls-14{fill:#fdd062;}.cls-15{clip-path:url(#clip-path);}.cls-16{fill:#d4eaff;}.cls-17{fill:#fdffb3;}.cls-18,.cls-19{fill:#b0d0ff;}.cls-20{fill:#3b76ab;}.cls-21,.cls-22{fill:#7ca8d8;}.cls-25,.cls-26{fill:#443a33;}.cls-27{opacity:0.9;}.cls-29{fill:#fff;}.cls-30{fill:#ddd;}.cls-31{fill:#aa7f63;}.cls-32,.cls-33{fill:#332c26;}.cls-34{fill:#0a0a0a;}.cls-35{fill:#333332;}.cls-36{fill:#f4ccab;}.cls-37{fill:#7c0d0d;}.cls-39{fill:#e2414f;}.cls-41{fill:#e0e0e0;}.cls-42{fill:#e05a44;}.cls-43{fill:#605348;}.cls-44{opacity:0.7;}</style><clipPath id="clip-path"><path class="cls-1" d="M43,75.21c-.82-.68-2.33-1.57-3.44-1-.06,0-.45,0-.36-.11,3.14-4,7.84.08,10.72,2.17L52.19,78c.67.49,2.72,1.54,2.63,0-.07-1.23-1.37-2.61-2.12-3.48a18.7,18.7,0,0,0-1.45-1.5l-.12,0a1.08,1.08,0,0,0,0-.18.48.48,0,0,1,.34,0l.07.06A8.27,8.27,0,0,1,55.26,75,28.17,28.17,0,0,1,60,80.72a34.73,34.73,0,0,1,5.64,15.87,25,25,0,0,1,.06,4.06c0,.33,3.59.84,3.91.88,3.06.47,6.16.74,9.25,1l.3,0c.05,0,.35.06.22.15a31.31,31.31,0,0,0-3.88,3.09,8.55,8.55,0,0,1-2,1.77c-1,.51-2.19.59-3.24,1-2.11.9-3.33,3.38-4.06,5.4-.54,1.52-.63,3.26-1.45,4.66-.13.22-.81.17-1,.18-1.46.06-2.95-.18-4.41-.22-2.63,0-5.26,0-7.89-.29a18,18,0,0,1-7-1.84,8.51,8.51,0,0,1-3.31-4c-2.22-5-.8-10.48-.45-15.65a6.1,6.1,0,0,0-.17-1.59c-.21-1.23-.41-2.46-.6-3.7a28.26,28.26,0,0,1-.3-8c0-.14.33,0,.39,0a13,13,0,0,0,3.73,1.93c2.25.67,3-1.69,3-3.47C46.74,79.37,45,76.88,43,75.21Z"/></clipPath></defs><g class="cls-2"><g id="Layer_2" data-name="Layer 2"><g id="Layer_1-2" data-name="Layer 1"><path class="cls-3" d="M55.57,109.16a5.28,5.28,0,0,1,5.25-4h0c2.42-.21,5,0,7.4,0q3.89,0,7.78.22a12.78,12.78,0,0,1,3.46.62,10.94,10.94,0,0,1,1.61.71,6.24,6.24,0,0,1,2.41,2.15,5,5,0,0,1,.73,2,7.86,7.86,0,0,1-.39,3.4c-.86,3.15-1,6.46-1.6,9.66-.67,3.44-2.13,7-2.34,10.49-.25,3.94,1.75,6.41,3.6,9.68,1.38,2.44,3.26,7.3-.76,8.44-1.93.55-4.53-.69-5.88-2A28.6,28.6,0,0,1,72.41,144c-.75-1.3-1.44-2.64-2.21-3.93-1.52-2.53-1.93-4.4.16-6.85.76-.88,1.68-1.49,1.9-2.72a16.8,16.8,0,0,0-.09-3.32c-.08-2.55-.07-5.16.08-7.71a20.31,20.31,0,0,1,.5-3.64c-2.92.12-5.81.62-8.74.74-2.19.1-4.79.31-6.81-.75a.06.06,0,0,1-.06,0C54.85,114.83,55,111.13,55.57,109.16Z"/><path class="cls-4" d="M83.55,108.41c1.16,1.58.24,4.24-.83,5.23s-2.24,1.32-3.55-.34-2.9-4.52-1.72-5.34S82,106.23,83.55,108.41Z"/><path class="cls-5" d="M79.44,116.75c-.94-.5-2.57-1.68-2.41-3,.1-.82,1.42-.22,1.87.06a5,5,0,0,0,2.22.87,3.86,3.86,0,0,0,3-1.45c-.07.34-.16.66-.24,1s-.22.82-.3,1.24A2.91,2.91,0,0,1,79.44,116.75Z"/><path class="cls-6" d="M55.57,109.16a5.28,5.28,0,0,1,5.25-4h0c2.42-.21,5,0,7.4,0s5.13.08,7.69.21a7,7,0,0,0-4.34,3.69c-.86,2,2.8,2,4.24,2A24.59,24.59,0,0,0,74,117.93a65.36,65.36,0,0,0,.11,7.79c.06,1.45.28,2.88.35,4.33a15.43,15.43,0,0,1-.48,4.12,9.55,9.55,0,0,0,1.06,6,.22.22,0,0,0,.32.1c.81.57,2,0,2.9-.21a3.63,3.63,0,0,1,3.09.42c.13.26.28.52.43.79a2.92,2.92,0,0,0-4,2.51c-.18,1.47,1.1,2.56,2.32,3.1s2.95.77,4-.2a3.21,3.21,0,0,0,.34-.41c.94,2.46,1.26,5.44-1.77,6.3-1.93.55-4.53-.69-5.88-2A28.6,28.6,0,0,1,72.41,144c-.75-1.3-1.44-2.64-2.21-3.93-1.52-2.53-1.93-4.4.16-6.85.76-.88,1.68-1.49,1.9-2.72a16.8,16.8,0,0,0-.09-3.32c-.08-2.55-.07-5.16.08-7.71a20.31,20.31,0,0,1,.5-3.64c-2.92.12-5.81.62-8.74.74-2.19.1-4.79.31-6.81-.75a.06.06,0,0,1-.06,0C54.85,114.83,55,111.13,55.57,109.16Z"/><path class="cls-7" d="M55.57,109.16a5.28,5.28,0,0,1,5.25-4h0c2.42-.21,5,0,7.4,0,2.25,0,4.51.07,6.76.17-2.78,1.54-4.22,4.1-4.79,7.36-.21,1.16.17,2.11,1.44,2.15A1.51,1.51,0,0,0,73,114.1a6,6,0,0,1,.79-1,15.9,15.9,0,0,0-.9,5.88c-.08,2.11-.14,4.22-.1,6.33s.71,4.28-.1,6.19a7.83,7.83,0,0,0-.17,5.6c.4,1.45.56,3.12,1.38,4.42.59.93,1.21,1.59,2.25.84.62-.44.9-1.1,1.46-1.6a5.09,5.09,0,0,1,1.36-.87,3.59,3.59,0,0,1,2.44.55,1.62,1.62,0,0,0,.1.18,4.43,4.43,0,0,0-3.95,2.49c-.87,2.11,1.18,3.78,2.83,4.74a4,4,0,0,0,4.57-.26c.51,2.1.29,4.24-2.2,4.94-1.93.55-4.53-.69-5.88-2A28.6,28.6,0,0,1,72.41,144c-.75-1.3-1.44-2.64-2.21-3.93-1.52-2.53-1.93-4.4.16-6.85.76-.88,1.68-1.49,1.9-2.72a16.8,16.8,0,0,0-.09-3.32c-.08-2.55-.07-5.16.08-7.71a20.31,20.31,0,0,1,.5-3.64c-2.92.12-5.81.62-8.74.74-2.19.1-4.79.31-6.81-.75a.06.06,0,0,1-.06,0C54.85,114.83,55,111.13,55.57,109.16Z"/><path class="cls-8" d="M57.14,115.83a.06.06,0,0,0,.06,0c2,1.06,4.62.85,6.81.75,2.93-.12,5.82-.62,8.74-.74a20.31,20.31,0,0,0-.5,3.64c-.15,2.55-.16,5.16-.08,7.71a16.8,16.8,0,0,1,.09,3.32c-.22,1.23-1.14,1.84-1.9,2.72-2.09,2.45-1.68,4.32-.16,6.85.77,1.29,1.46,2.63,2.21,3.93a28.6,28.6,0,0,0,4.45,6.52c1.35,1.31,4,2.55,5.88,2,4-1.14,2.14-6,.76-8.44-1.85-3.27-3.85-5.74-3.6-9.68.21-3.52,1.67-7,2.34-10.49.61-3.2.74-6.51,1.6-9.66a7.86,7.86,0,0,0,.39-3.4,5,5,0,0,0-.73-2,6.24,6.24,0,0,0-2.41-2.15,10.94,10.94,0,0,0-1.61-.71,12.78,12.78,0,0,0-3.46-.62q-3.9-.21-7.78-.22c-2.44,0-5-.23-7.4,0h0a5.28,5.28,0,0,0-5.25,4C55,111.13,54.85,114.83,57.14,115.83Zm-1.06-6.73a5.29,5.29,0,0,1,4.69-3.75.1.1,0,0,0,.08.05,57.51,57.51,0,0,0,6.95.12q3.4,0,6.81.16c2.08.1,4.38.16,6.22,1.24a7.38,7.38,0,0,1,2.49,2.25A5,5,0,0,1,84,112c-.16,1.51-.73,3-1,4.47-.56,3.25-.83,6.52-1.62,9.72-.68,2.77-1.64,5.42-1.78,8.28a10,10,0,0,0,.77,4.7c.74,1.71,1.84,3.35,2.74,5a23.26,23.26,0,0,1,1.56,3.31c.82,2.52-.37,5.31-3.68,4.67a8.5,8.5,0,0,1-5.36-3.59,61.19,61.19,0,0,1-3.42-5.66c-.54-1-1.07-2-1.67-2.94-.82-1.33-1.7-2.39-1.3-4.07a8,8,0,0,1,2.59-3.73c1.27-1.17.7-3.41.68-4.91-.09-4.85-.26-9.94,1.54-14.52,0,0-.06-.09-.08,0a12,12,0,0,0-1.15,3,18.42,18.42,0,0,0-3.63.19c-1.46.12-2.92.27-4.39.35s-3.09,0-4.64,0a8.08,8.08,0,0,1-3.16-.86,5.31,5.31,0,0,1-1.26-2.83A7.25,7.25,0,0,1,56.08,109.1Z"/><path class="cls-4" d="M82.48,118.13c0,2.63-2.69,12.66-2.89,14.11a14.69,14.69,0,0,0-.21,3.1c.05.78,0,1-.88.93s-2.23,1.56-2.33-1.5.21-8.48.31-12.72.62-6.37,1.92-5.49,2,.88,2.84.57S82.48,117.16,82.48,118.13Z"/><path class="cls-4" d="M81.34,141.34c.89,1.37,2.18,3.16,2.07,4.3A1.69,1.69,0,0,1,81.09,147c-1.19-.31.72-.57.67-1.7a4.3,4.3,0,0,0-1.92-3.11C79,141.81,80.78,140.46,81.34,141.34Z"/><path class="cls-9" d="M55.57,109.16a5.28,5.28,0,0,1,5.25-4h0c2.42-.21,5,0,7.4,0q3.89,0,7.78.22a12.78,12.78,0,0,1,3.46.62,10.94,10.94,0,0,1,1.61.71,6.24,6.24,0,0,1,2.41,2.15,5,5,0,0,1,.73,2,7.86,7.86,0,0,1-.39,3.4c-.21.75-.37,1.52-.51,2.28a.23.23,0,0,0-.09.2c.14,1.66-1.88.78-2.53,2a4.21,4.21,0,0,0-.66,2.74c-.12,2.35-1.36,7-1.86,9.32a22.81,22.81,0,0,0-.75,6.12,19.06,19.06,0,0,0,1.81,6.5c.58,1.43,1.22,2.61,2.73,3.13.92.33,1.73-.71,1.77-1.52,0-.14,0-.28,0-.42,1.33,2.54,2.76,6.9-1,8-1.93.55-4.53-.69-5.88-2A28.6,28.6,0,0,1,72.41,144c-.75-1.3-1.44-2.64-2.21-3.93-1.52-2.53-1.93-4.4.16-6.85.76-.88,1.68-1.49,1.9-2.72a16.8,16.8,0,0,0-.09-3.32c-.08-2.55-.07-5.16.08-7.71a20.31,20.31,0,0,1,.5-3.64c-2.92.12-5.81.62-8.74.74-2.19.1-4.79.31-6.81-.75a.06.06,0,0,1-.06,0C54.85,114.83,55,111.13,55.57,109.16Z"/><path class="cls-10" d="M70.83,132.46a.12.12,0,0,1,.16-.1l.08-.05c.07,0,.13.07.07.12l0,0A32.1,32.1,0,0,0,74,139.8a5.53,5.53,0,0,1,4.85-3.23c2.31.1,2.88,3.27,3.24,5,0,0,0,0,0,0s-.11-.18-.16-.27a.06.06,0,0,1-.05,0c-1-1.21-2.16-.73-3.24.05a5.21,5.21,0,0,0-2.12,2.55h0a8,8,0,0,0,3.5,3.36,3,3,0,0,0,2.91-.25c1-.83.7-2.19.32-3.24v0l-.26-.51c0-.07.07-.11.11,0,1.71,2.76,3.84,5.71,4,9.08a5.45,5.45,0,0,1-5.09,5.5c-2.93.34-5.4-1.7-7-3.95-1.92-2.76-3.06-6.05-4.25-9.18-.53-1-1-2.07-1.52-3.12a9.93,9.93,0,0,1-1.17-3.62A6.44,6.44,0,0,1,70.83,132.46Z"/><path class="cls-11" d="M70.83,132.46a.12.12,0,0,1,.16-.1l.08-.05c.07,0,.13.07.07.12l0,0A32.1,32.1,0,0,0,74,139.8a7.12,7.12,0,0,1,.53-.86c0,1.55.41,3.09,1.89,2.75a4.16,4.16,0,0,0,1.92-1.24,2,2,0,0,1,2.29-.54.94.94,0,0,0,.64.07.59.59,0,0,0,.38-.3c.2.68.33,1.36.44,1.9,0,0,0,0,0,0s-.11-.18-.16-.27a.06.06,0,0,1-.05,0c-1-1.21-2.16-.73-3.24.05a5.21,5.21,0,0,0-2.12,2.55h0a8,8,0,0,0,3.5,3.36,3,3,0,0,0,2.91-.25,2.23,2.23,0,0,0,.56-2.49,3,3,0,0,1,0,2.79c-1.31,1.95-3.94,1.13-5.38-.2-2-1.87-3.28-4.56-4.58-6.93-.76-1.38-1.08-2.27-1.59-3.26s-.91-2-1.29-1.39c-1,1.69.76,4.27,1,4.79A101.86,101.86,0,0,0,76,149.66a15.19,15.19,0,0,0,3,3.58c1.35,1.3,4.92,1.77,6.59.39a3.8,3.8,0,0,0,1.16-3.49,9.38,9.38,0,0,1,.34,2.12,5.45,5.45,0,0,1-5.09,5.5c-2.93.34-5.4-1.7-7-3.95-1.92-2.76-3.06-6.05-4.25-9.18-.53-1-1-2.07-1.52-3.12a9.93,9.93,0,0,1-1.17-3.62A6.44,6.44,0,0,1,70.83,132.46Z"/><path class="cls-12" d="M68.06,137.89a9.93,9.93,0,0,0,1.17,3.62c.48,1.05,1,2.1,1.52,3.12,1.19,3.13,2.33,6.42,4.25,9.18,1.57,2.25,4,4.29,7,3.95a5.45,5.45,0,0,0,5.09-5.5c-.13-3.37-2.26-6.32-4-9.08,0-.06-.14,0-.11,0l.26.51v0c.38,1.05.73,2.41-.32,3.24a3,3,0,0,1-2.91.25,8,8,0,0,1-3.5-3.36h0a5.21,5.21,0,0,1,2.12-2.55c1.08-.78,2.25-1.26,3.24-.05a.06.06,0,0,0,.05,0c0,.09.1.18.16.27s0,0,0,0c-.36-1.74-.93-4.91-3.24-5A5.53,5.53,0,0,0,74,139.8a32.1,32.1,0,0,1-2.93-7.32l0,0c.06-.05,0-.16-.07-.12l-.08.05a.12.12,0,0,0-.16.1A6.44,6.44,0,0,0,68.06,137.89Zm8.23,5.69-.06-.1c-.7-1.07-1.38-2.19-2-3.33.83-1.66,3.27-4.12,5.38-3.06,1.52.76,1.57,2.44,2.14,3.83-.75-.88-1.84-.79-2.87-.17A5.76,5.76,0,0,0,76.29,143.58Zm-7.6-7.47a9,9,0,0,0,.91,2.14c1,2.07,2,4.16,3,6.26s1.85,4.5,3,6.63a10.52,10.52,0,0,0,3.48,3.78,5.7,5.7,0,0,0,.53.32,14.51,14.51,0,0,1-4-4.54c-.93-1.83-1.65-3.74-2.49-5.6s-1.77-3.71-2.63-5.57c-.49-1.06-1.71-2.82-1.59-4.16a10.16,10.16,0,0,1,1.91-2.67,33,33,0,0,0,2.93,7.4c.61,1.15,1.31,2.23,2,3.32a17,17,0,0,0,2.1,2.81c1.09,1.08,3.19,2.33,4.75,1.4a2.65,2.65,0,0,0,1.19-2.75,22.74,22.74,0,0,1,2.59,5.58c.19,1.63.14,3.28-1.2,4.48a4.3,4.3,0,0,1-4.46,1s-.06,0,0,.06a4.34,4.34,0,0,0,4.87-1.09,3.86,3.86,0,0,0,.79-1.16,5.18,5.18,0,0,1-5.67,3.74c-6-.72-7.78-8.37-9.87-13-.8-1.94-2-3.79-2.38-5.86A5.3,5.3,0,0,1,68.69,136.11Z"/><path class="cls-8" d="M79.19,114.2c.82.38,1.93,1,2.84.57,0,0,.07,0,0,.06a2,2,0,0,1-2.47-.35S79.15,114.18,79.19,114.2Z"/><path class="cls-13" d="M70.83,132.46a.12.12,0,0,1,.16-.1l.08-.05c.07,0,.13.07.07.12l0,0c.11.45.25.91.39,1.36a1.3,1.3,0,0,0-.95.53c-1.23,1.38-.71,3.37-.11,4.89.81,2,1.86,4,2.73,6a45.21,45.21,0,0,0,2.41,5.07c1.57,2.66,4.22,5.88,7.7,5.35a4.58,4.58,0,0,0,2.23-1A4.59,4.59,0,0,1,84.05,156a5.16,5.16,0,0,1-4.82-.31c-2.6-1.42-4.19-5-5.58-8.06-.5-1.1-3.81-8.35-4-8.34s2.51,6.54,3.94,10.07a14.71,14.71,0,0,0,3.1,5.1,8.59,8.59,0,0,0,4.3,2.41c2.82.52,4.89-1.21,6-3.62a5.55,5.55,0,0,1-5,4.56c-2.93.34-5.4-1.7-7-3.95-1.92-2.76-3.06-6.05-4.25-9.18-.53-1-1-2.07-1.52-3.12a9.93,9.93,0,0,1-1.17-3.62A6.44,6.44,0,0,1,70.83,132.46Z"/><path class="cls-14" d="M84.81,146.83c.62,1.24,1.66,3,1.14,4.39s-3.42,2.54-6,1.35-3.26-3-4-4.35-2-5-.47-2.89,3.63,4.9,6.31,4.65C86.42,149.57,84.81,146.83,84.81,146.83Z"/><path class="cls-14" d="M75,139.17s1.76-2.48,3.73-2.31,2.93,2.83,2.07,2.24-1.59-1.69-3.38-1A11.56,11.56,0,0,0,75,139.17Z"/><path class="cls-13" d="M70.83,132.46a.12.12,0,0,1,.16-.1l.08-.05c.07,0,.13.07.07.12l0,0A32.1,32.1,0,0,0,74,139.8a6.06,6.06,0,0,1,3.47-3.05,5.63,5.63,0,0,0,.49,3.09,1.21,1.21,0,0,0,1,.68c.84.06,1.6-.36,2.23.25-.84-.46-1.76,0-2.61.59a5.21,5.21,0,0,0-2.12,2.55h0a8,8,0,0,0,3.5,3.36,3.32,3.32,0,0,0,2.11.15c-.34.63-.22,1.21.39,2.07,1,1.38,1,3.17,1.9,4.53.51.77,1.55.13,2-.34a2.86,2.86,0,0,0,.65-1.17A5.49,5.49,0,0,1,82,157.76c-2.93.34-5.4-1.7-7-3.95-1.92-2.76-3.06-6.05-4.25-9.18-.53-1-1-2.07-1.52-3.12a9.93,9.93,0,0,1-1.17-3.62A6.44,6.44,0,0,1,70.83,132.46Z"/><path class="cls-3" d="M51.9,111.36a5.3,5.3,0,0,1,5.25-4h0c2.43-.21,5,0,7.4,0,2.59,0,5.19.08,7.78.22a12.41,12.41,0,0,1,3.46.62,10.94,10.94,0,0,1,1.61.71,6.24,6.24,0,0,1,2.41,2.15,4.85,4.85,0,0,1,.73,2,7.86,7.86,0,0,1-.39,3.4c-.86,3.15-1,6.46-1.6,9.65-.67,3.44-2.13,7-2.34,10.5-.25,3.93,1.75,6.41,3.6,9.68,1.38,2.44,3.26,7.3-.76,8.44-1.92.55-4.53-.69-5.88-2a28.6,28.6,0,0,1-4.45-6.52c-.75-1.3-1.44-2.64-2.21-3.93-1.52-2.53-1.93-4.41.17-6.85.76-.88,1.68-1.49,1.89-2.72a16.8,16.8,0,0,0-.09-3.32c-.07-2.55-.07-5.15.08-7.71a21.25,21.25,0,0,1,.5-3.64c-2.92.12-5.81.62-8.73.75-2.2.09-4.8.3-6.81-.76a.08.08,0,0,1-.07,0C51.19,117,51.31,113.33,51.9,111.36Z"/><path class="cls-4" d="M79.88,110.6c1.16,1.59.25,4.25-.82,5.25s-2.25,1.31-3.56-.35-2.9-4.52-1.72-5.34S78.3,108.43,79.88,110.6Z"/><path class="cls-5" d="M75.77,118.94c-.94-.49-2.57-1.68-2.41-2.94.1-.82,1.42-.23,1.87.06a5,5,0,0,0,2.22.87,3.93,3.93,0,0,0,3-1.45c-.08.34-.17.66-.25,1s-.21.82-.3,1.24A2.9,2.9,0,0,1,75.77,118.94Z"/><path class="cls-6" d="M51.9,111.36a5.3,5.3,0,0,1,5.25-4h0c2.43-.21,5,0,7.4,0s5.13.08,7.69.21a7,7,0,0,0-4.34,3.69c-.86,2,2.81,2,4.24,2a24.71,24.71,0,0,0-1.79,6.78,63.45,63.45,0,0,0,.11,7.8c.06,1.44.29,2.88.35,4.32a15.58,15.58,0,0,1-.48,4.14c-.45,2.11.22,4,1.06,6a.22.22,0,0,0,.32.1c.81.57,2,0,2.9-.22a3.66,3.66,0,0,1,3.09.43c.14.26.28.52.44.79a2.92,2.92,0,0,0-4,2.51c-.18,1.47,1.1,2.56,2.32,3.1s2.95.77,4-.21a2.12,2.12,0,0,0,.34-.4c.94,2.46,1.27,5.44-1.77,6.3-1.92.55-4.53-.69-5.88-2a28.6,28.6,0,0,1-4.45-6.52c-.75-1.3-1.44-2.64-2.21-3.93-1.52-2.53-1.93-4.41.17-6.85.76-.88,1.68-1.49,1.89-2.72a16.8,16.8,0,0,0-.09-3.32c-.07-2.55-.07-5.15.08-7.71a21.25,21.25,0,0,1,.5-3.64c-2.92.12-5.81.62-8.73.75-2.2.09-4.8.3-6.81-.76a.08.08,0,0,1-.07,0C51.19,117,51.31,113.33,51.9,111.36Z"/><path class="cls-7" d="M51.9,111.36a5.3,5.3,0,0,1,5.25-4h0c2.43-.21,5,0,7.4,0,2.25,0,4.51.07,6.76.17-2.78,1.54-4.22,4.1-4.79,7.35-.21,1.17.17,2.12,1.44,2.16a1.51,1.51,0,0,0,1.33-.77,6.05,6.05,0,0,1,.8-1,15.68,15.68,0,0,0-.91,5.88c-.08,2.11-.14,4.22-.1,6.32s.71,4.29-.09,6.19a7.75,7.75,0,0,0-.17,5.61,15.93,15.93,0,0,0,1.37,4.41c.59.94,1.21,1.6,2.25.85.62-.44.91-1.1,1.46-1.6a5.53,5.53,0,0,1,1.36-.87,3.51,3.51,0,0,1,2.44.55,1.62,1.62,0,0,0,.1.18,4.43,4.43,0,0,0-3.95,2.5c-.87,2.1,1.18,3.77,2.83,4.74a4,4,0,0,0,4.57-.27c.52,2.1.29,4.23-2.2,4.94-1.92.55-4.53-.69-5.88-2a28.6,28.6,0,0,1-4.45-6.52c-.75-1.3-1.44-2.64-2.21-3.93-1.52-2.53-1.93-4.41.17-6.85.76-.88,1.68-1.49,1.89-2.72a16.8,16.8,0,0,0-.09-3.32c-.07-2.55-.07-5.15.08-7.71a21.25,21.25,0,0,1,.5-3.64c-2.92.12-5.81.62-8.73.75-2.2.09-4.8.3-6.81-.76a.08.08,0,0,1-.07,0C51.19,117,51.31,113.33,51.9,111.36Z"/><path class="cls-8" d="M53.47,118a.08.08,0,0,0,.07,0c2,1.06,4.61.85,6.81.76,2.92-.13,5.81-.63,8.73-.75a21.25,21.25,0,0,0-.5,3.64c-.15,2.56-.15,5.16-.08,7.71a16.8,16.8,0,0,1,.09,3.32c-.21,1.23-1.13,1.84-1.89,2.72-2.1,2.44-1.69,4.32-.17,6.85.77,1.29,1.46,2.63,2.21,3.93a28.6,28.6,0,0,0,4.45,6.52c1.35,1.31,4,2.55,5.88,2,4-1.14,2.14-6,.76-8.44C78,143,76,140.54,76.23,136.61c.21-3.52,1.67-7.06,2.34-10.5.62-3.19.74-6.5,1.6-9.65a7.86,7.86,0,0,0,.39-3.4,4.85,4.85,0,0,0-.73-2,6.24,6.24,0,0,0-2.41-2.15,10.94,10.94,0,0,0-1.61-.71,12.41,12.41,0,0,0-3.46-.62c-2.59-.14-5.19-.21-7.78-.22-2.44,0-5-.23-7.4,0h0a5.3,5.3,0,0,0-5.25,4C51.31,113.33,51.19,117,53.47,118Zm-1.06-6.73a5.29,5.29,0,0,1,4.69-3.75.16.16,0,0,0,.08,0,57.47,57.47,0,0,0,6.95.12q3.41,0,6.82.16c2.07.1,4.37.16,6.22,1.23a7.55,7.55,0,0,1,2.48,2.25,5,5,0,0,1,.65,2.83c-.16,1.52-.72,3-1,4.48-.56,3.25-.83,6.51-1.62,9.73-.68,2.75-1.64,5.41-1.78,8.27a10,10,0,0,0,.77,4.7c.74,1.71,1.84,3.34,2.74,5A24.34,24.34,0,0,1,81,149.64c.82,2.53-.36,5.32-3.68,4.67A8.45,8.45,0,0,1,72,150.73a57.93,57.93,0,0,1-3.41-5.67c-.55-1-1.08-2-1.67-2.93-.83-1.33-1.71-2.39-1.31-4.07a8,8,0,0,1,2.59-3.73c1.27-1.18.71-3.41.68-4.91-.09-4.85-.26-9.94,1.54-14.52,0-.05-.05-.1-.08-.05a12,12,0,0,0-1.15,3,17.55,17.55,0,0,0-3.62.19c-1.47.12-2.93.27-4.39.34a45.06,45.06,0,0,1-4.65,0,8.08,8.08,0,0,1-3.16-.86,5.32,5.32,0,0,1-1.26-2.82A7.28,7.28,0,0,1,52.41,111.3Z"/><path class="cls-10" d="M67.16,134.65a.13.13,0,0,1,.17-.09l.07-.05c.08,0,.13.07.08.12l0,0A32,32,0,0,0,70.36,142a5.53,5.53,0,0,1,4.85-3.23c2.31.1,2.89,3.27,3.24,5,0,0,0,0,0,0s-.11-.18-.16-.27a0,0,0,0,1,0,0c-1-1.21-2.17-.73-3.25.05a5.21,5.21,0,0,0-2.12,2.55h0a8,8,0,0,0,3.5,3.36,2.94,2.94,0,0,0,2.91-.25c1-.83.71-2.19.33-3.24a0,0,0,0,1,0-.05l-.27-.51c0-.07.07-.11.11-.05,1.72,2.76,3.84,5.71,4,9.08A5.45,5.45,0,0,1,78.3,160c-2.93.34-5.4-1.7-7-4-1.92-2.77-3.06-6-4.25-9.18-.53-1-1-2.07-1.52-3.12a9.92,9.92,0,0,1-1.16-3.62A6.44,6.44,0,0,1,67.16,134.65Z"/><path class="cls-11" d="M67.16,134.65a.13.13,0,0,1,.17-.09l.07-.05c.08,0,.13.07.08.12l0,0A32,32,0,0,0,70.36,142a7.64,7.64,0,0,1,.53-.86c0,1.55.41,3.09,1.89,2.75a4.16,4.16,0,0,0,1.92-1.24,2,2,0,0,1,2.28-.54.92.92,0,0,0,.65.06.53.53,0,0,0,.38-.29c.2.68.33,1.36.44,1.9,0,0,0,0,0,0s-.11-.18-.16-.27a0,0,0,0,1,0,0c-1-1.21-2.17-.73-3.25.05a5.21,5.21,0,0,0-2.12,2.55h0a8,8,0,0,0,3.5,3.36,2.94,2.94,0,0,0,2.91-.25,2.23,2.23,0,0,0,.56-2.49,2.94,2.94,0,0,1,0,2.78c-1.31,2-3.94,1.14-5.38-.19-2-1.88-3.28-4.56-4.59-6.93-.75-1.38-1.06-2.28-1.58-3.26s-.9-2-1.29-1.39c-1,1.69.76,4.27,1,4.79a102,102,0,0,0,4.37,9.32,14.9,14.9,0,0,0,3,3.58c1.35,1.3,4.93,1.77,6.6.39a3.82,3.82,0,0,0,1.15-3.49,9.47,9.47,0,0,1,.34,2.12A5.45,5.45,0,0,1,78.3,160c-2.93.34-5.4-1.7-7-4-1.92-2.77-3.06-6-4.25-9.18-.53-1-1-2.07-1.52-3.12a9.92,9.92,0,0,1-1.16-3.62A6.44,6.44,0,0,1,67.16,134.65Z"/><path class="cls-12" d="M64.4,140.09a9.92,9.92,0,0,0,1.16,3.62c.48,1,1,2.1,1.52,3.12,1.19,3.13,2.33,6.41,4.25,9.18,1.57,2.25,4,4.29,7,4a5.45,5.45,0,0,0,5.09-5.5c-.13-3.37-2.25-6.32-4-9.08,0-.06-.14,0-.11.05l.27.51a0,0,0,0,0,0,.05c.38,1,.72,2.41-.33,3.24a2.94,2.94,0,0,1-2.91.25,8,8,0,0,1-3.5-3.36h0A5.21,5.21,0,0,1,75,143.56c1.08-.78,2.26-1.26,3.25-.05a0,0,0,0,0,0,0c0,.09.1.18.16.27s0,0,0,0c-.35-1.74-.93-4.91-3.24-5A5.53,5.53,0,0,0,70.36,142a32,32,0,0,1-2.93-7.33l0,0s0-.16-.08-.12l-.07.05a.13.13,0,0,0-.17.09A6.44,6.44,0,0,0,64.4,140.09Zm8.22,5.68-.06-.09c-.7-1.07-1.37-2.19-2-3.33.83-1.66,3.27-4.12,5.38-3.07,1.52.76,1.57,2.45,2.14,3.84-.75-.89-1.84-.79-2.87-.18A5.89,5.89,0,0,0,72.62,145.77ZM65,138.31a9,9,0,0,0,.92,2.14q1.56,3.11,3,6.26c1,2.2,1.85,4.5,3,6.62a10.47,10.47,0,0,0,3.48,3.79l.53.32a14.51,14.51,0,0,1-4-4.54c-.93-1.83-1.65-3.74-2.49-5.6s-1.77-3.71-2.63-5.57c-.49-1.06-1.71-2.82-1.59-4.16a10.16,10.16,0,0,1,1.91-2.67,32.8,32.8,0,0,0,2.93,7.4c.61,1.15,1.31,2.23,2,3.32a17,17,0,0,0,2.1,2.81c1.09,1.07,3.19,2.33,4.76,1.4a2.66,2.66,0,0,0,1.18-2.75,22.74,22.74,0,0,1,2.59,5.58c.19,1.63.14,3.28-1.2,4.48a4.28,4.28,0,0,1-4.46,1s-.06.05,0,.07A4.34,4.34,0,0,0,82,157.11a4.23,4.23,0,0,0,.8-1.16,5.21,5.21,0,0,1-5.68,3.74c-6-.72-7.78-8.36-9.87-13-.8-1.95-2-3.79-2.38-5.86A5.42,5.42,0,0,1,65,138.31Z"/><path class="cls-8" d="M75.52,116.4c.82.37,1.93,1,2.84.57,0,0,.07,0,0,0a2,2,0,0,1-2.47-.34S75.48,116.38,75.52,116.4Z"/><path class="cls-4" d="M78.81,120.33c0,2.63-2.69,12.66-2.89,14.1a14.78,14.78,0,0,0-.21,3.11c.05.77,0,1-.88.93S72.6,140,72.5,137s.21-8.48.31-12.73.62-6.36,1.92-5.48,2,.88,2.84.57S78.81,119.36,78.81,120.33Z"/><path class="cls-4" d="M77.68,143.54c.88,1.36,2.17,3.16,2.07,4.3a1.7,1.7,0,0,1-2.33,1.39c-1.19-.31.72-.57.67-1.7a4.26,4.26,0,0,0-1.92-3.11C75.3,144,77.11,142.66,77.68,143.54Z"/><path class="cls-13" d="M67.16,134.65a.13.13,0,0,1,.17-.09l.07-.05c.08,0,.13.07.08.12l0,0c.12.46.25.92.39,1.37a1.25,1.25,0,0,0-.95.52c-1.23,1.39-.71,3.38-.11,4.9.8,2,1.86,4,2.73,6a45.21,45.21,0,0,0,2.41,5.07c1.57,2.66,4.22,5.87,7.7,5.35a4.58,4.58,0,0,0,2.23-1,4.59,4.59,0,0,1-1.45,1.28,5.17,5.17,0,0,1-4.81-.31c-2.61-1.42-4.2-5-5.59-8.06-.5-1.1-3.81-8.35-4-8.34s2.51,6.54,3.94,10.07a14.71,14.71,0,0,0,3.1,5.1,8.59,8.59,0,0,0,4.3,2.41c2.83.51,4.89-1.21,6-3.62a5.55,5.55,0,0,1-5,4.56c-2.93.34-5.4-1.7-7-4-1.92-2.77-3.06-6-4.25-9.18-.53-1-1-2.07-1.52-3.12a9.92,9.92,0,0,1-1.16-3.62A6.44,6.44,0,0,1,67.16,134.65Z"/><path class="cls-14" d="M81.14,149c.62,1.25,1.66,3.06,1.14,4.4s-3.41,2.54-6,1.35a8.15,8.15,0,0,1-4-4.35c-.73-1.34-2-5-.47-2.89s3.63,4.89,6.31,4.65C82.75,151.77,81.14,149,81.14,149Z"/><path class="cls-14" d="M71.3,141.37s1.75-2.48,3.72-2.31,2.93,2.83,2.07,2.24-1.59-1.69-3.38-1A11.22,11.22,0,0,0,71.3,141.37Z"/><path class="cls-3" d="M43.66,72.83a.1.1,0,0,1,0,0c.15-1.34.12-2.73.31-4.07-.12-.58-.31-1.5.21-1.95a2.32,2.32,0,0,1,2.27-.11c1.7.5,4.33,1.25,5,3.08a.09.09,0,0,1-.14.1c-.09.91-.25,1.8-.25,2.71h0c1.91,1.41,4,3.4,4.72,5.7a2.27,2.27,0,0,1-2.25,3.15c-2.07,0-4.21-1.47-5.74-2.72a21.31,21.31,0,0,1-2.93-3C44.3,74.89,43.43,73.92,43.66,72.83Z"/><path class="cls-6" d="M43.66,72.83a.1.1,0,0,1,0,0c.15-1.34.12-2.73.31-4.07-.12-.58-.31-1.5.21-1.95a2.32,2.32,0,0,1,2.27-.11c1.7.5,4.33,1.25,5,3.08a.09.09,0,0,1-.14.1c-.08.84-.22,1.66-.24,2.5a1.23,1.23,0,0,0-1.47-1,9.33,9.33,0,0,1-2.3-.13.86.86,0,0,0-1.11.86c0,1-.18,1.12.44,2a9.6,9.6,0,0,0,2.15,2c1.07.84,3.15,2.62,4.69,2.12,1.95-.64-1.37-4-1.91-4.68-.11-.15-.42-.58-.47.12-.16-.77-.1-1,0-1a12.87,12.87,0,0,1,4.7,5.68,2.27,2.27,0,0,1-2.25,3.15c-2.07,0-4.21-1.47-5.74-2.72a21.31,21.31,0,0,1-2.93-3C44.3,74.89,43.43,73.92,43.66,72.83Z"/><path class="cls-6" d="M51.37,69.83q-.07.69-.15,1.35a4.71,4.71,0,0,1-2.9-.47A2.43,2.43,0,0,0,47,70.34a10.75,10.75,0,0,1-3.15,0c0-.55.08-1.11.15-1.65-.12-.58-.31-1.5.21-1.95a2.32,2.32,0,0,1,2.27-.11c1.7.5,4.33,1.25,5,3.08A.09.09,0,0,1,51.37,69.83Z"/><path class="cls-8" d="M44.94,75.67a21.31,21.31,0,0,0,2.93,3c1.53,1.25,3.67,2.73,5.74,2.72a2.27,2.27,0,0,0,2.25-3.15c-.77-2.3-2.81-4.29-4.72-5.7h0c0-.91.16-1.8.25-2.71a.09.09,0,0,0,.14-.1c-.69-1.83-3.32-2.58-5-3.08a2.32,2.32,0,0,0-2.27.11c-.52.45-.33,1.37-.21,1.95-.19,1.34-.16,2.73-.31,4.07a.1.1,0,0,0,0,0C43.43,73.92,44.3,74.89,44.94,75.67ZM43.87,73a25.21,25.21,0,0,0,.7-5.27.18.18,0,0,0-.14-.18.9.9,0,0,1,1.19-.62,15.13,15.13,0,0,1,2,.63,7.39,7.39,0,0,1,3.54,2,7.27,7.27,0,0,0-.05,4s.07,0,.06,0c0-.25,0-.5-.06-.74,1.4,1.45,3.06,2.67,4,4.52.46.9.94,2.2.14,3.07a2.58,2.58,0,0,1-2.78.4,13,13,0,0,1-4.64-2.69C46.24,76.73,44.52,75.05,43.87,73Z"/><path class="cls-1" d="M43,75.21c-.82-.68-2.33-1.57-3.44-1-.06,0-.45,0-.36-.11,3.14-4,7.84.08,10.72,2.17L52.19,78c.67.49,2.72,1.54,2.63,0-.07-1.23-1.37-2.61-2.12-3.48a18.7,18.7,0,0,0-1.45-1.5l-.12,0a1.08,1.08,0,0,0,0-.18.48.48,0,0,1,.34,0l.07.06A8.27,8.27,0,0,1,55.26,75,28.17,28.17,0,0,1,60,80.72a34.73,34.73,0,0,1,5.64,15.87,25,25,0,0,1,.06,4.06c0,.33,3.59.84,3.91.88,3.06.47,6.16.74,9.25,1l.3,0c.05,0,.35.06.22.15a31.31,31.31,0,0,0-3.88,3.09,8.55,8.55,0,0,1-2,1.77c-1,.51-2.19.59-3.24,1-2.11.9-3.33,3.38-4.06,5.4-.54,1.52-.63,3.26-1.45,4.66-.13.22-.81.17-1,.18-1.46.06-2.95-.18-4.41-.22-2.63,0-5.26,0-7.89-.29a18,18,0,0,1-7-1.84,8.51,8.51,0,0,1-3.31-4c-2.22-5-.8-10.48-.45-15.65a6.1,6.1,0,0,0-.17-1.59c-.21-1.23-.41-2.46-.6-3.7a28.26,28.26,0,0,1-.3-8c0-.14.33,0,.39,0a13,13,0,0,0,3.73,1.93c2.25.67,3-1.69,3-3.47C46.74,79.37,45,76.88,43,75.21Z"/><g class="cls-15"><path class="cls-16" d="M60.75,98.67a2.36,2.36,0,0,0-.23-2.18c-.73-1.11-2.11.12-1.43,1A3,3,0,0,0,60.75,98.67Z"/><path class="cls-16" d="M60.75,98.67a2.34,2.34,0,0,0-2.14-.49.87.87,0,1,0,.48,1.67A3.05,3.05,0,0,0,60.75,98.67Z"/><path class="cls-16" d="M60.75,98.67a2.34,2.34,0,0,0-1,1.93.87.87,0,1,0,1.74,0A3.1,3.1,0,0,0,60.75,98.67Z"/><path class="cls-16" d="M60.75,98.67a2.36,2.36,0,0,0,1.61,1.49.88.88,0,1,0,.41-1.7A3.08,3.08,0,0,0,60.75,98.67Z"/><path class="cls-16" d="M60.75,98.67a2.36,2.36,0,0,0,2-.88c.82-1-.77-2-1.39-1.06A3,3,0,0,0,60.75,98.67Z"/><path class="cls-17" d="M60.26,99a.56.56,0,1,0,.2-.76A.56.56,0,0,0,60.26,99Z"/><path class="cls-16" d="M57.73,109.23a2.34,2.34,0,0,0-.22-2.18c-.73-1.11-2.11.12-1.43,1A3,3,0,0,0,57.73,109.23Z"/><path class="cls-16" d="M57.73,109.23a2.37,2.37,0,0,0-2.14-.49.87.87,0,1,0,.48,1.68A3,3,0,0,0,57.73,109.23Z"/><path class="cls-16" d="M57.73,109.23a2.35,2.35,0,0,0-1,1.94.87.87,0,1,0,1.74,0A3,3,0,0,0,57.73,109.23Z"/><path class="cls-16" d="M57.73,109.23a2.36,2.36,0,0,0,1.62,1.49c1.28.34,1.49-1.49.4-1.7A3,3,0,0,0,57.73,109.23Z"/><path class="cls-16" d="M57.73,109.23a2.33,2.33,0,0,0,2-.89c.83-1-.76-2-1.38-1A3,3,0,0,0,57.73,109.23Z"/><path class="cls-17" d="M57.25,109.52a.56.56,0,1,0,1-.57.56.56,0,1,0-1,.57Z"/><path class="cls-16" d="M68,109.66a2.07,2.07,0,0,0-.19-1.94c-.66-1-1.88.1-1.28.88A2.67,2.67,0,0,0,68,109.66Z"/><path class="cls-16" d="M68,109.66a2.08,2.08,0,0,0-1.9-.44.78.78,0,1,0,.43,1.5A2.72,2.72,0,0,0,68,109.66Z"/><path class="cls-16" d="M68,109.66a2.1,2.1,0,0,0-.92,1.72.78.78,0,1,0,1.55,0A2.72,2.72,0,0,0,68,109.66Z"/><path class="cls-16" d="M68,109.66A2.11,2.11,0,0,0,69.41,111a.78.78,0,1,0,.36-1.51A2.7,2.7,0,0,0,68,109.66Z"/><path class="cls-16" d="M68,109.66a2.1,2.1,0,0,0,1.79-.79c.74-.92-.68-1.75-1.23-.93A2.69,2.69,0,0,0,68,109.66Z"/><path class="cls-17" d="M67.53,109.91a.5.5,0,0,0,.86-.5.51.51,0,0,0-.68-.18A.51.51,0,0,0,67.53,109.91Z"/><path class="cls-16" d="M51.44,117.1a1.86,1.86,0,0,0-.18-1.73c-.58-.88-1.68.09-1.14.79A2.41,2.41,0,0,0,51.44,117.1Z"/><path class="cls-16" d="M51.44,117.1a1.9,1.9,0,0,0-1.7-.39.69.69,0,1,0,.38,1.33A2.45,2.45,0,0,0,51.44,117.1Z"/><path class="cls-16" d="M51.44,117.1a1.88,1.88,0,0,0-.83,1.54.69.69,0,1,0,1.38,0A2.39,2.39,0,0,0,51.44,117.1Z"/><path class="cls-16" d="M51.44,117.1a1.87,1.87,0,0,0,1.28,1.18.69.69,0,1,0,.33-1.34A2.43,2.43,0,0,0,51.44,117.1Z"/><path class="cls-16" d="M51.44,117.1a1.86,1.86,0,0,0,1.59-.7c.66-.83-.61-1.56-1.1-.84A2.37,2.37,0,0,0,51.44,117.1Z"/><path class="cls-17" d="M51.05,117.32a.45.45,0,0,0,.61.17.45.45,0,1,0-.45-.77A.44.44,0,0,0,51.05,117.32Z"/><path class="cls-16" d="M62.47,117.66a1.87,1.87,0,0,0-.17-1.74c-.58-.88-1.68.1-1.14.79A2.46,2.46,0,0,0,62.47,117.66Z"/><path class="cls-16" d="M62.47,117.66a1.88,1.88,0,0,0-1.7-.4.69.69,0,1,0,.39,1.33A2.41,2.41,0,0,0,62.47,117.66Z"/><path class="cls-16" d="M62.47,117.66a1.88,1.88,0,0,0-.83,1.53.7.7,0,1,0,1.39,0A2.37,2.37,0,0,0,62.47,117.66Z"/><path class="cls-16" d="M62.47,117.66a1.87,1.87,0,0,0,1.29,1.17.69.69,0,1,0,.32-1.34A2.41,2.41,0,0,0,62.47,117.66Z"/><path class="cls-16" d="M62.47,117.66a1.9,1.9,0,0,0,1.6-.71c.65-.82-.61-1.56-1.1-.83A2.41,2.41,0,0,0,62.47,117.66Z"/><path class="cls-17" d="M62.09,117.88a.45.45,0,1,0,.77-.45.45.45,0,0,0-.77.45Z"/><path class="cls-16" d="M67,102.33a1.88,1.88,0,0,0-.18-1.74c-.58-.88-1.68.09-1.13.79A2.46,2.46,0,0,0,67,102.33Z"/><path class="cls-16" d="M67,102.33a1.86,1.86,0,0,0-1.7-.39.69.69,0,1,0,.38,1.32A2.41,2.41,0,0,0,67,102.33Z"/><path class="cls-16" d="M67,102.33a1.88,1.88,0,0,0-.83,1.53.7.7,0,1,0,1.39,0A2.39,2.39,0,0,0,67,102.33Z"/><path class="cls-16" d="M67,102.33a1.87,1.87,0,0,0,1.29,1.17.69.69,0,1,0,.32-1.34A2.39,2.39,0,0,0,67,102.33Z"/><path class="cls-16" d="M67,102.33a1.88,1.88,0,0,0,1.59-.71c.66-.82-.6-1.56-1.1-.83A2.43,2.43,0,0,0,67,102.33Z"/><path class="cls-17" d="M66.57,102.55a.44.44,0,1,0,.16-.61A.43.43,0,0,0,66.57,102.55Z"/><path class="cls-16" d="M50.7,95.62a2.36,2.36,0,0,0-.22-2.19c-.73-1.1-2.11.12-1.43,1A3.08,3.08,0,0,0,50.7,95.62Z"/><path class="cls-16" d="M50.7,95.62a2.36,2.36,0,0,0-2.14-.5.88.88,0,1,0,.49,1.68A3,3,0,0,0,50.7,95.62Z"/><path class="cls-16" d="M50.7,95.62a2.34,2.34,0,0,0-1,1.93.87.87,0,1,0,1.74,0A3,3,0,0,0,50.7,95.62Z"/><path class="cls-16" d="M50.7,95.62a2.36,2.36,0,0,0,1.62,1.48.87.87,0,1,0,.41-1.69A3,3,0,0,0,50.7,95.62Z"/><path class="cls-16" d="M50.7,95.62a2.38,2.38,0,0,0,2-.89c.83-1-.76-2-1.39-1.06A3.11,3.11,0,0,0,50.7,95.62Z"/><path class="cls-17" d="M50.22,95.9a.56.56,0,0,0,.76.2.56.56,0,0,0-.56-1A.57.57,0,0,0,50.22,95.9Z"/><path class="cls-16" d="M42.67,113.64a2,2,0,0,0-.19-1.85c-.62-.94-1.79.1-1.21.84A2.56,2.56,0,0,0,42.67,113.64Z"/><path class="cls-16" d="M42.67,113.64a2,2,0,0,0-1.82-.42.74.74,0,1,0,.41,1.42A2.59,2.59,0,0,0,42.67,113.64Z"/><path class="cls-16" d="M42.67,113.64a2,2,0,0,0-.88,1.64.74.74,0,1,0,1.47,0A2.57,2.57,0,0,0,42.67,113.64Z"/><path class="cls-16" d="M42.67,113.64A2,2,0,0,0,44,114.9a.74.74,0,1,0,.34-1.44A2.56,2.56,0,0,0,42.67,113.64Z"/><path class="cls-16" d="M42.67,113.64a2,2,0,0,0,1.7-.75c.7-.88-.65-1.67-1.18-.9A2.59,2.59,0,0,0,42.67,113.64Z"/><path class="cls-17" d="M42.26,113.88a.48.48,0,1,0,.82-.48.48.48,0,0,0-.82.48Z"/><path class="cls-16" d="M54.89,87.17a1.44,1.44,0,0,0-.14-1.32c-.44-.66-1.26.07-.86.6A1.86,1.86,0,0,0,54.89,87.17Z"/><path class="cls-16" d="M54.89,87.17a1.43,1.43,0,0,0-1.29-.3c-.77.2-.34,1.22.29,1A1.83,1.83,0,0,0,54.89,87.17Z"/><path class="cls-16" d="M54.89,87.17a1.4,1.4,0,0,0-.63,1.16.53.53,0,1,0,1.05,0A1.81,1.81,0,0,0,54.89,87.17Z"/><path class="cls-16" d="M54.89,87.17a1.41,1.41,0,0,0,1,.89.53.53,0,1,0,.25-1A1.84,1.84,0,0,0,54.89,87.17Z"/><path class="cls-16" d="M54.89,87.16a1.39,1.39,0,0,0,1.21-.53c.49-.62-.47-1.18-.84-.63A1.74,1.74,0,0,0,54.89,87.16Z"/><path class="cls-17" d="M54.6,87.33a.32.32,0,0,0,.45.13.34.34,0,0,0,.13-.46.33.33,0,0,0-.46-.12A.32.32,0,0,0,54.6,87.33Z"/><path class="cls-16" d="M53.29,78.32a1.86,1.86,0,0,0-.17-1.72c-.58-.87-1.66.1-1.13.78A2.37,2.37,0,0,0,53.29,78.32Z"/><path class="cls-16" d="M53.29,78.32a1.85,1.85,0,0,0-1.68-.39A.69.69,0,1,0,52,79.25,2.41,2.41,0,0,0,53.29,78.32Z"/><path class="cls-16" d="M53.29,78.32a1.85,1.85,0,0,0-.82,1.52.69.69,0,1,0,1.37,0A2.33,2.33,0,0,0,53.29,78.32Z"/><path class="cls-16" d="M53.29,78.32a1.87,1.87,0,0,0,1.28,1.17.68.68,0,1,0,.32-1.33A2.41,2.41,0,0,0,53.29,78.32Z"/><path class="cls-16" d="M53.29,78.32a1.84,1.84,0,0,0,1.58-.7c.65-.81-.6-1.55-1.09-.83A2.41,2.41,0,0,0,53.29,78.32Z"/><path class="cls-17" d="M52.91,78.54a.44.44,0,1,0,.16-.6A.44.44,0,0,0,52.91,78.54Z"/><path class="cls-16" d="M42.89,73.18a1.82,1.82,0,0,0-.18-1.71c-.57-.88-1.65.09-1.12.78A2.38,2.38,0,0,0,42.89,73.18Z"/><path class="cls-16" d="M42.89,73.18a1.85,1.85,0,0,0-1.68-.39.69.69,0,1,0,.38,1.32A2.41,2.41,0,0,0,42.89,73.18Z"/><path class="cls-16" d="M42.89,73.18a1.85,1.85,0,0,0-.82,1.52.69.69,0,1,0,1.37,0A2.44,2.44,0,0,0,42.89,73.18Z"/><path class="cls-16" d="M42.89,73.18a1.87,1.87,0,0,0,1.27,1.17A.68.68,0,1,0,44.48,73,2.39,2.39,0,0,0,42.89,73.18Z"/><path class="cls-16" d="M42.89,73.18a1.84,1.84,0,0,0,1.58-.7c.65-.81-.6-1.54-1.09-.82A2.38,2.38,0,0,0,42.89,73.18Z"/><path class="cls-17" d="M42.51,73.4a.44.44,0,1,0,.16-.6A.44.44,0,0,0,42.51,73.4Z"/><path class="cls-16" d="M41.09,98.1a1.83,1.83,0,0,0-.17-1.72c-.57-.87-1.66.1-1.12.79A2.37,2.37,0,0,0,41.09,98.1Z"/><path class="cls-16" d="M41.09,98.1a1.83,1.83,0,0,0-1.68-.38A.68.68,0,1,0,39.79,99,2.35,2.35,0,0,0,41.09,98.1Z"/><path class="cls-16" d="M41.09,98.1a1.85,1.85,0,0,0-.81,1.52.69.69,0,1,0,1.37,0A2.4,2.4,0,0,0,41.09,98.1Z"/><path class="cls-16" d="M41.09,98.1a1.87,1.87,0,0,0,1.28,1.17.68.68,0,1,0,.32-1.33A2.41,2.41,0,0,0,41.09,98.1Z"/><path class="cls-16" d="M41.09,98.1a1.84,1.84,0,0,0,1.58-.69c.65-.82-.6-1.55-1.09-.83A2.38,2.38,0,0,0,41.09,98.1Z"/><path class="cls-17" d="M40.72,98.33a.44.44,0,0,0,.76-.45.44.44,0,1,0-.76.45Z"/><path class="cls-16" d="M61.61,85.39a2.23,2.23,0,0,0-.21-2.07c-.7-1-2,.11-1.36.94A2.89,2.89,0,0,0,61.61,85.39Z"/><path class="cls-16" d="M61.61,85.39a2.23,2.23,0,0,0-2-.47A.82.82,0,1,0,60,86.5,2.88,2.88,0,0,0,61.61,85.39Z"/><path class="cls-16" d="M61.61,85.39a2.22,2.22,0,0,0-1,1.82.83.83,0,1,0,1.65,0A2.84,2.84,0,0,0,61.61,85.39Z"/><path class="cls-16" d="M61.61,85.39a2.22,2.22,0,0,0,1.53,1.4.82.82,0,1,0,.38-1.6A2.81,2.81,0,0,0,61.61,85.39Z"/><path class="cls-16" d="M61.61,85.39a2.22,2.22,0,0,0,1.9-.85c.77-1-.73-1.85-1.32-1A2.9,2.9,0,0,0,61.61,85.39Z"/><path class="cls-17" d="M61.15,85.65a.53.53,0,1,0,.19-.72A.53.53,0,0,0,61.15,85.65Z"/><path class="cls-16" d="M47.77,82.74a2.23,2.23,0,0,0-.21-2.07c-.69-1-2,.11-1.35.94A2.89,2.89,0,0,0,47.77,82.74Z"/><path class="cls-16" d="M47.77,82.74a2.2,2.2,0,0,0-2-.47.82.82,0,1,0,.46,1.58A2.82,2.82,0,0,0,47.77,82.74Z"/><path class="cls-16" d="M47.77,82.74a2.2,2.2,0,0,0-1,1.82.83.83,0,1,0,1.65,0A2.84,2.84,0,0,0,47.77,82.74Z"/><path class="cls-16" d="M47.77,82.74a2.22,2.22,0,0,0,1.53,1.4.82.82,0,1,0,.39-1.6A2.85,2.85,0,0,0,47.77,82.74Z"/><path class="cls-16" d="M47.77,82.73a2.2,2.2,0,0,0,1.9-.83c.78-1-.72-1.86-1.31-1A2.86,2.86,0,0,0,47.77,82.73Z"/><path class="cls-17" d="M47.32,83a.53.53,0,1,0,.19-.72A.52.52,0,0,0,47.32,83Z"/><path class="cls-16" d="M46.85,104.92a2.21,2.21,0,0,0-.21-2.06c-.69-1-2,.11-1.35.94A2.83,2.83,0,0,0,46.85,104.92Z"/><path class="cls-16" d="M46.85,104.92a2.22,2.22,0,0,0-2-.46.82.82,0,1,0,.45,1.58A2.81,2.81,0,0,0,46.85,104.92Z"/><path class="cls-16" d="M46.85,104.92a2.22,2.22,0,0,0-1,1.83.82.82,0,1,0,1.64,0A2.88,2.88,0,0,0,46.85,104.92Z"/><path class="cls-16" d="M46.85,104.92a2.22,2.22,0,0,0,1.53,1.4.82.82,0,1,0,.39-1.6A2.83,2.83,0,0,0,46.85,104.92Z"/><path class="cls-16" d="M46.85,104.92a2.23,2.23,0,0,0,1.9-.84c.78-1-.72-1.86-1.31-1A2.84,2.84,0,0,0,46.85,104.92Z"/><path class="cls-17" d="M46.39,105.19a.53.53,0,0,0,.92-.53.53.53,0,0,0-.92.53Z"/></g><path class="cls-18" d="M51,77.89c2.17,2.59,5.48,4.4,5.54,1.76s-2.28-5-1.66-4.55,4.19,4,7.4,10.91A27,27,0,0,1,65,98.64c-.42,2.53-2.79,3.93-6.62,2.84s-5.9-7.86-7-12,.83-3.21,2.59-.47,8,5.18,7.66.05-5-11.69-5-11.69c1.19,1.91,1.65,4.24,1.14,5.38-1.14,2.49-5.49-1.19-8.7-5.38s-6.34-4.52-6.34-4.52C44,72.32,48.81,75.3,51,77.89Z"/><path class="cls-19" d="M64.81,98.19A31.76,31.76,0,0,0,55.5,76S61.09,81.08,64.81,98.19Z"/><path class="cls-20" d="M46.72,82.07c0,1.78-.75,4.14-3,3.47A13,13,0,0,1,40,83.61c-.06,0-.37-.14-.39,0a28.26,28.26,0,0,0,.3,8c.19,1.24.39,2.47.6,3.7a6.1,6.1,0,0,1,.17,1.59c-.35,5.17-1.77,10.68.45,15.65a8.51,8.51,0,0,0,3.31,4,18,18,0,0,0,7,1.84c2.63.28,5.26.24,7.89.29,1.46,0,3,.28,4.41.22.2,0,.88,0,1-.18.82-1.4.91-3.14,1.45-4.66.73-2,2-4.5,4.06-5.4,1-.45,2.22-.53,3.24-1a8.55,8.55,0,0,0,2-1.77,31.31,31.31,0,0,1,3.88-3.09c.13-.09-.17-.14-.22-.15l-.3,0c-3.09-.24-6.19-.51-9.25-1-.32,0-3.88-.54-3.9-.87,0-.18,0-.36,0-.54a27.75,27.75,0,0,0-.09-3.53A34.73,34.73,0,0,0,60,80.72,28.17,28.17,0,0,0,55.26,75a8.27,8.27,0,0,0-3.72-2.14l-.07-.06a.43.43,0,0,0-.32,0c0,.06,0,.13,0,.19h.09a18.7,18.7,0,0,1,1.45,1.5c.75.87,2,2.25,2.12,3.48.09,1.59-2,.54-2.63,0l-2.27-1.66C47,74.2,42.34,70.13,39.2,74.12c-.09.11.3.14.36.11,1.11-.59,2.62.3,3.44,1C45,76.88,46.74,79.37,46.72,82.07ZM42.1,74.35a4.4,4.4,0,0,0-2.25-.45c3.86-4.23,9.38,3.07,12.89,4.67,1,.44,3.07.68,2.37-1.09A12.83,12.83,0,0,0,51.77,73c2.33.61,4.31,3,5.69,4.73a39.17,39.17,0,0,1,5,8.37,30.05,30.05,0,0,1,2.75,14.5s0,0,0,0a19.05,19.05,0,0,1-.44,2.92.06.06,0,0,0,.11,0,7.81,7.81,0,0,0,.71-2.76,11.41,11.41,0,0,0,2.5.61c1.56.28,3.12.48,4.68.65,2,.22,4,.41,6,.55a21.71,21.71,0,0,0-4.21,3.49c-1.06,1.23-2.22,1.5-3.73,1.94a5.81,5.81,0,0,0-2.67,1.59,13.18,13.18,0,0,0-3,6,16.64,16.64,0,0,1-.53,2c-.06.16-.23.79-.38.86a4.82,4.82,0,0,1-2.07,0c-.79,0-1.59-.09-2.39-.11-2.81-.07-5.64,0-8.44-.3s-5.93-.72-8-2.72c-2.68-2.64-3.33-6.79-3.19-10.4.08-2.08.49-4.16.65-6.24.09,1.21.16,2.41.21,3.62,0,0,.07.06.07,0a41.68,41.68,0,0,0,0-4.33A21.76,21.76,0,0,0,41,95.77c0-.27-.06-.53-.11-.8-.62-3.68-1.29-7.33-.86-11.07a10.23,10.23,0,0,0,4.47,1.95c2.09.21,2.78-2.34,2.66-4A9.48,9.48,0,0,0,42.1,74.35Z"/><path class="cls-21" d="M53.81,73.84a.21.21,0,0,0-.21.21,1.41,1.41,0,0,0,.54,1A7.69,7.69,0,0,1,55.32,77c.33.65,1.22,3-.32,2.93s-3-1.4-4.08-2.3A45.73,45.73,0,0,0,44.82,73a28,28,0,0,1,5.1,3.29L52.19,78c.67.49,2.72,1.54,2.63,0-.07-1.23-1.37-2.61-2.12-3.48a18.7,18.7,0,0,0-1.45-1.5l-.12,0a1.08,1.08,0,0,0,0-.18.48.48,0,0,1,.34,0l.07.06a6.24,6.24,0,0,1,2.31,1Z"/><path class="cls-21" d="M39.9,91.56a28.26,28.26,0,0,1-.3-8c0-.14.33,0,.39,0a13,13,0,0,0,3.73,1.93c2.25.67,3-1.69,3-3.47,0-2.7-1.72-5.19-3.72-6.86a5.11,5.11,0,0,0-2.3-1.15,3.39,3.39,0,0,1,2.42.1,9,9,0,0,1,5,5.52A66,66,0,0,1,50,87.9a48.42,48.42,0,0,0,1.55,5.54c1.09,3.16,2.74,7.21,6,8.66a5.62,5.62,0,0,0,7.72-3,11.38,11.38,0,0,0,.41-1.6,22.78,22.78,0,0,1,0,3.2c0,.33,3.59.84,3.91.88,3.06.47,6.16.74,9.25,1l.3,0c.05,0,.35.06.22.15a31.31,31.31,0,0,0-3.88,3.09,8.55,8.55,0,0,1-2,1.77l-.18.08c-1-.2-1.9-.57-2.84-.82A30.25,30.25,0,0,0,67,106a28.88,28.88,0,0,0-6.36-.42,12.65,12.65,0,0,0-3,.51c-.61.19-1.63.5-1.83,1.22-.28,1,.88,1.84,1.64,2.18a22.39,22.39,0,0,0,5.31,1.29c1.52.25,3,.48,4.56.74A16.11,16.11,0,0,0,66.19,114c-.54,1.52-.63,3.26-1.45,4.66-.13.22-.81.17-1,.18-1.46.06-2.95-.18-4.41-.22-2.63,0-5.26,0-7.89-.29a18,18,0,0,1-7-1.84,8.51,8.51,0,0,1-3.31-4c-2.22-5-.8-10.48-.45-15.65a6.1,6.1,0,0,0-.17-1.59C40.29,94,40.09,92.8,39.9,91.56Z"/><path class="cls-22" d="M39.9,91.56a28.26,28.26,0,0,1-.3-8c0-.14.33,0,.39,0a13,13,0,0,0,3.73,1.93c2.25.67,3-1.69,3-3.47,0-2.7-1.72-5.19-3.72-6.86a5.7,5.7,0,0,0-1.9-1.06c.8.1,1.5-.26,2.19.17a7.63,7.63,0,0,1,2.48,2.14c1.49,2.12,3.75,6.94,2.34,9.52a4,4,0,0,1-3.24,1.86.23.23,0,0,0-.13-.07c-1.51-.19-2.58.19-2.76,1.86-.3,2.73.26,5.53.45,8.25a18.31,18.31,0,0,0,1.65,7.52c.23.43.43.85.67,1.28-.38-.43-.75-.86-1.17-1.27-2.2-2.19-2.3,1.58-2,3a9.11,9.11,0,0,0,1.53,4c1.65,2.29,5.31,2.71,7.88,3,1.94.2,3.89.32,5.82.61a21.75,21.75,0,0,0,5.4.39,3.66,3.66,0,0,0,2.86-1.64c.42-.65.72-1.38,1.19-2a11.33,11.33,0,0,1,1-1.1,16.51,16.51,0,0,0-1,2.35c-.54,1.52-.63,3.26-1.45,4.66-.13.22-.81.17-1,.18-1.46.06-2.95-.18-4.41-.22-2.63,0-5.26,0-7.89-.29a18,18,0,0,1-7-1.84,8.51,8.51,0,0,1-3.31-4c-2.22-5-.8-10.48-.45-15.65a6.1,6.1,0,0,0-.17-1.59C40.29,94,40.09,92.8,39.9,91.56Z"/><path class="cls-22" d="M73.44,107.56c-.36-.33-.68-.74-1-1a9.05,9.05,0,0,0-1.79-.89c-.74-.37-1.46-.78-2.17-1.22a8.3,8.3,0,0,0-1.65-1c-1.11-.4-2.32,1.21-3.34,1.43A11.27,11.27,0,0,1,60,105a5.74,5.74,0,0,0,2.19-.82,7.14,7.14,0,0,0,2.37-3.08,11.84,11.84,0,0,0,.83-2.63,9.41,9.41,0,0,0,.24-1,22.78,22.78,0,0,1,0,3.2c0,.33,3.59.84,3.91.88,3.06.47,6.16.74,9.25,1l.3,0c.05,0,.35.06.22.15a31.31,31.31,0,0,0-3.88,3.09,8.55,8.55,0,0,1-2,1.77Z"/><path class="cls-3" d="M60.42,77.42c2,2.37,3,5.22,4.12,8.07h0c1.36,3.06,2,6.4,3.72,9.29A18.78,18.78,0,0,0,71.91,99a20.24,20.24,0,0,0,3.4,2.66,19.34,19.34,0,0,1,5.3.59,6.48,6.48,0,0,1,3.82,2.79,9,9,0,0,1,1.88,4.63,7.81,7.81,0,0,1-1.86,5,.08.08,0,0,1-.08,0,5.44,5.44,0,0,1-1.2,2,1.31,1.31,0,0,1-.57.71c-1.52.82-1.76-1.57-1.68-2.5,0-.44.14-.89.22-1.34a1,1,0,0,1-1.31.24c-1-.48-1.28-2-1.77-2.87a3.83,3.83,0,0,0-1.89-1.75,9.17,9.17,0,0,1-1.44-.71,2.27,2.27,0,0,1-1-1.77c-1-.63-2.1-1-3.09-1.57a17.19,17.19,0,0,1-3.08-2.35,14.58,14.58,0,0,1-1.92-2.1,26.85,26.85,0,0,0-.07-4A34.73,34.73,0,0,0,60,80.72,28.17,28.17,0,0,0,55.26,75a12,12,0,0,0-1.76-1.34C56.21,73.62,58.75,75.41,60.42,77.42Z"/><path class="cls-4" d="M55.84,74.42c1.3.47,3.68,1.66,5.9,5.64s4.19,10.4,5.44,13S70,98.54,75.35,102a6.82,6.82,0,0,0,.88.15c.72.1,4.55-.07,6.31,1.35s.86,1,.58.86.87,1.38-.24.76-.86-.4-.63.14.46,1.2-.88.41-.73,0-.56.52-.2,1-1.58-.1-2.87-.18-3.76-1.42-.28-1.17-1.17-1.76a22.17,22.17,0,0,1-8.73-9.07c-.52-1-2.72-10.35-5.11-14.21A16.15,16.15,0,0,0,55.84,74.42Z"/><g class="cls-23"><path class="cls-24" d="M65.36,94.59l.47,1a14.69,14.69,0,0,0,2.47,4A21.53,21.53,0,0,0,72,102.88c.39.28.92.83,1.44.86a5.79,5.79,0,0,0,1-.19A3.21,3.21,0,0,0,76.11,107c.52.27,1.22.29,1.63.75a5,5,0,0,1,.83,1.65,6,6,0,0,0,1.05,2.06c.58.6,1.79.83,1.35-.38-.66-1.78-1.86-3.35-2.21-5.22.63,1.14,1.27,2.27,1.95,3.38.32.51,1.34,2.28,2.18,1.7.54-.37-.07-1.63-.24-2a36.73,36.73,0,0,0-2-3.5l1,1.23a19,19,0,0,0,2.69,3.23c.17.13.37-.06.39-.23.1-1-.81-2.15-1.31-3a29.22,29.22,0,0,0-2-2.62,11.88,11.88,0,0,1,1,.87,19.26,19.26,0,0,1,2.45,3.29.26.26,0,0,0,.48-.2,9.31,9.31,0,0,0-1.69-3.24,5.9,5.9,0,0,1,.75.75A12.3,12.3,0,0,1,86,108.87a.22.22,0,0,0,.24.13c0,.23.06.46.07.68a7.81,7.81,0,0,1-1.86,5,.08.08,0,0,1-.08,0,5.44,5.44,0,0,1-1.2,2,1.31,1.31,0,0,1-.57.71c-1.52.82-1.76-1.57-1.68-2.5,0-.44.14-.89.22-1.34a1,1,0,0,1-1.31.24c-1-.48-1.28-2-1.77-2.87a3.83,3.83,0,0,0-1.89-1.75,9.17,9.17,0,0,1-1.44-.71,2.27,2.27,0,0,1-1-1.77c-1-.63-2.1-1-3.09-1.57a17.19,17.19,0,0,1-3.08-2.35,14.58,14.58,0,0,1-1.92-2.1,26.85,26.85,0,0,0-.07-4C65.55,95.92,65.47,95.25,65.36,94.59Z"/></g><path class="cls-8" d="M60.42,77.42c2,2.37,3,5.22,4.12,8.07h0c1.36,3.06,2,6.4,3.72,9.29A18.78,18.78,0,0,0,71.91,99a20.24,20.24,0,0,0,3.4,2.66,19.34,19.34,0,0,1,5.3.59,6.48,6.48,0,0,1,3.82,2.79,9,9,0,0,1,1.88,4.63,7.81,7.81,0,0,1-1.86,5,.08.08,0,0,1-.08,0,5.44,5.44,0,0,1-1.2,2,1.31,1.31,0,0,1-.57.71c-1.52.82-1.76-1.57-1.68-2.5,0-.44.14-.89.22-1.34a1,1,0,0,1-1.31.24c-1-.48-1.28-2-1.77-2.87a3.83,3.83,0,0,0-1.89-1.75,9.17,9.17,0,0,1-1.44-.71,2.27,2.27,0,0,1-1-1.77c-1-.63-2.1-1-3.09-1.57a17.19,17.19,0,0,1-3.08-2.35,14.58,14.58,0,0,1-1.92-2.1c0-.18,0-.36,0-.55a13.7,13.7,0,0,0,2.58,2.89A18.78,18.78,0,0,0,71.15,105a21.57,21.57,0,0,1,2.62,1.35,2.37,2.37,0,0,1,.22-1s.06,0,.06,0c0,1.36.22,2.45,1.51,3.08a6.49,6.49,0,0,1,1.75,1,6.12,6.12,0,0,1,1.28,1.82c.44.85,1.4,3.46,2.6,1.84a4.33,4.33,0,0,0-.59-2.47,24,24,0,0,1-1.79-4s0-.06.07,0a19.67,19.67,0,0,1,1.27,2.51,16.82,16.82,0,0,1,1.15,2.52,3.81,3.81,0,0,1,.11,1.22s0,0,0,.07l-.06.13c-.11,1.34-.57,2.74.2,3.86s1.32-.59,1.43-.92a9.4,9.4,0,0,0,.26-1.17,13.24,13.24,0,0,0,.22-3.38c-.16-2.16-1.65-3.71-2.62-5.53a0,0,0,0,1,.07,0c1.36,1.84,2.85,3.86,2.89,6.24a15.57,15.57,0,0,1-.34,3.4l-.06.23A9.84,9.84,0,0,0,85,111.11c.13-2.14-1.56-4.21-2.71-5.85,0-.06,0-.14.1-.08,1.29,1.44,2.84,3.56,2.91,5.58,0,.1,0,.21,0,.32.58-2.37-.38-4.5-1.87-6.47,0,0,0,0,0,0,1.71,1.89,2.94,4.64,1.82,7.08a9.7,9.7,0,0,1-.66,2.48s0,.07,0,.11A9.48,9.48,0,0,0,86.06,110c.08-1.81-1-3.67-2-5.09a6,6,0,0,0-4.12-2.49c-1.34-.22-2.73-.22-4.07-.45a1.4,1.4,0,0,0,.17.09.07.07,0,0,1,0,.14c-1.57-.43-2.77-1.67-4-2.7a20.59,20.59,0,0,1-3.64-4,17.08,17.08,0,0,1-2.07-4.25c-.55-1.65-1.18-3.29-1.67-5C62.5,81.15,60.12,74.85,54.09,74c-.19-.14-.39-.28-.59-.4C56.21,73.62,58.75,75.41,60.42,77.42Z"/><path class="cls-22" d="M38.66,80.62h0c.09-1.5.63-3.34,2.16-3.77,1.75-.49,3.61,1,4.76,2.26A13.46,13.46,0,0,1,47.29,82a7.36,7.36,0,0,1,.86,3c.05,1.23,0,3.18-1.19,3.77q.26.73.51,1.44a33,33,0,0,0,2.13,5.18c2.22-1,4.42-2,6.7-2.83,1.59-.58,3.21-1,4.8-1.56.91-.3,2.41-.67,2.87-1.64.21.54.4,1.09.58,1.65a19.14,19.14,0,0,1,.75,4.81c-1.66-.07-3.1.86-4.54,1.75s-3.08,1.92-4.69,2.74A17.68,17.68,0,0,1,51.29,102c-1.28.26-2.95.57-4.17-.13a2.52,2.52,0,0,1-1-.68,11.23,11.23,0,0,1-1.29-2.36c-1.08-2.24-2.16-4.43-3.09-6.76s-1.68-4.52-2.43-6.82C38.92,84,38.26,82.05,38.66,80.62Z"/><path class="cls-3" d="M37.74,77.62h0c.09-1.5.67-3.34,2.33-3.77,1.87-.49,3.89,1,5.12,2.26A12.85,12.85,0,0,1,47,79,7,7,0,0,1,48,82c.05,1.23,0,3.18-1.28,3.77q.27.73.54,1.44a31.92,31.92,0,0,0,2.3,5.18c2.39-1,4.76-2,7.22-2.83,1.71-.58,3.46-1,5.18-1.56,1-.31,2.66-.68,3.13-1.71A37.06,37.06,0,0,1,65.24,81,9,9,0,0,0,65,77.74a15.79,15.79,0,0,0-.9-1.61,3.14,3.14,0,0,1-.6-1.46.94.94,0,0,1,.19-.65.07.07,0,0,1,0,0h0a0,0,0,0,0,0,0,1.62,1.62,0,0,1,1.66-.23c2.86.87,3.16,4.59,3.32,7.07a25.27,25.27,0,0,1,4.13-.62,10.9,10.9,0,0,1,4.37.19,6.26,6.26,0,0,1,2.91,1.77c.66.75.17,1.61-.37,2.25a1.63,1.63,0,0,1,.78.67c.55,1-.3,2-1.12,2.47,1.15.34.76,1.6.27,2.35a0,0,0,0,1,0,0,1.15,1.15,0,0,1,.21.23c.63.92-1.68,2.37-2.19,2.69a9.34,9.34,0,0,1-5.18,1.7,14.9,14.9,0,0,1-5.74-1.72c-1.91-.18-3.55.81-5.19,1.74s-3.31,1.92-5,2.75A20.41,20.41,0,0,1,51.35,99c-1.38.25-3.18.56-4.49-.13a2.67,2.67,0,0,1-1.06-.67,12,12,0,0,1-1.4-2.37c-1.15-2.24-2.32-4.43-3.32-6.76s-1.81-4.52-2.62-6.82C38,81,37.3,79.05,37.74,77.62Z"/><path class="cls-6" d="M38.46,82.23c.81,2.3,1.66,4.58,2.62,6.82s2.17,4.52,3.32,6.76a12,12,0,0,0,1.4,2.37,2.67,2.67,0,0,0,1.06.67c1.31.69,3.11.38,4.49.13a20.41,20.41,0,0,0,5.15-1.67c1.74-.83,3.38-1.79,5-2.75s3.28-1.92,5.19-1.74a14.9,14.9,0,0,0,5.74,1.72,9.34,9.34,0,0,0,5.18-1.7c.51-.32,2.82-1.77,2.19-2.69a1.15,1.15,0,0,0-.21-.23,0,0,0,0,0,0,0c.39-.59.71-1.5.26-2,0,0,0,.05,0,.07,0,.26-.28.4-.5.49a3.92,3.92,0,0,1-1.85.32c-.52-.07-.83-.69-.29-1a5.55,5.55,0,0,1,2-.31h.2s0,0,0,0a2.32,2.32,0,0,0,1.17-1.79,2,2,0,0,1-1,.29,7,7,0,0,1-2.41-.34c-.74-.22-1.23-.81-.38-1.3a3,3,0,0,1,1.89,0,7.11,7.11,0,0,1,1.41.36,2.09,2.09,0,0,0-.47-.3,2.79,2.79,0,0,0,.68-1.29l0,0c-.63.33-2-.85-2.37-1.14-.72-.5-1.51-1.37-2.48-1.31.76.72,1.56,1.14.45,2.09-.85.74-1.59,1.08-.73,2.34s0,1.18-.47,1.92c-.67,1,.4,1.17,0,2.09-.19.45-1,.78-1.3,1.16s-.51.85-1.11,1a5,5,0,0,1-2-.16c-1.08-.2-2.69-.67-3.34-1.68a11.92,11.92,0,0,1-1.42-5.75,2.13,2.13,0,0,1,1.51-2.39l.2-.07c.75-.25,1.57-.4,2.27-.64-.31.06-.62.13-.92.22,0-.74-.11-1.58-.24-2.42,0,.15,0,.31-.07.46-.19.91-.86,1.3-1.59.65a5.45,5.45,0,0,1-1.07-2,21.12,21.12,0,0,0-1.77-2.84.93.93,0,0,1-.14-.78l-.1.09a0,0,0,0,1,0,0,0,0,0,0,0,0,0,.94.94,0,0,0-.19.65,3.14,3.14,0,0,0,.6,1.46,15.79,15.79,0,0,1,.9,1.61A9,9,0,0,1,65.24,81a37.06,37.06,0,0,0-.18,5.25c0,.08-.09.16-.14.24,0,1.12.62,2.15-.18,3.17-.65.83-2,1.14-3,1.47-3.6,1.25-6.85,3.29-10.39,4.63a5.86,5.86,0,0,1-3.06.41c-.57-.07-1.63-.33-1.82-1s.5-1.46,1.14-1.81a12.43,12.43,0,0,0,2.15-1l.21-.18-.45.19a31.92,31.92,0,0,1-2.3-5.18q-.27-.7-.54-1.44C48,85.17,48,83.22,48,82A7,7,0,0,0,47,79a12.85,12.85,0,0,0-1.85-2.86c-1.23-1.29-3.25-2.75-5.12-2.26l-.4.14a5.58,5.58,0,0,1,3.66,1.74c2,1.88,1.52,4.26,1.55,6.71a11.59,11.59,0,0,0,1.32,4.28c.56,1.33,1.18,2.62,1.78,3.93.25.54.68,1.18.49,1.8s-1,.72-1.52.76c-1.37.11-2.2-1.7-2.66-2.68-1.2-2.53-2.51-5-3.68-7.55a43.69,43.69,0,0,1-2.1-5.12,6.06,6.06,0,0,1-.3-2.31,6.1,6.1,0,0,0-.47,2.07C37.3,79.05,38,81,38.46,82.23ZM76.8,90.84c.14-.57.69-.75,1.21-.9a.26.26,0,0,1,.15-.14,1.51,1.51,0,0,1,.55-.12.21.21,0,0,1,.13,0,.22.22,0,0,1,.08,0c.21,0,.49.16.43.43s-.29.3-.47.39a5.38,5.38,0,0,1-1.82.62C76.88,91.19,76.77,91,76.8,90.84Z"/><path class="cls-7" d="M48.24,93.11A1.27,1.27,0,0,0,48.7,92a10.69,10.69,0,0,0-1.21-2.8A17.29,17.29,0,0,1,45.37,80a10.92,10.92,0,0,1,1.09,2.19c.1.23.41.12.48-.06.67-1.82-1.29-4.54-2.27-5.94a5.83,5.83,0,0,0-3.54-2.31,3.78,3.78,0,0,0-.6-.08c1.74-.17,3.53,1.15,4.66,2.34A12.85,12.85,0,0,1,47,79,7,7,0,0,1,48,82c.05,1.23,0,3.18-1.28,3.77q.27.73.54,1.44a31.92,31.92,0,0,0,2.3,5.18l.45-.19-.21.18A5.14,5.14,0,0,1,48.24,93.11Z"/><path class="cls-7" d="M39.29,83.87c1.33,2.79,2.67,5.57,4.08,8.32,1,2,1.92,4.19,3.7,5.58s4.18.37,5.9-.24a63.39,63.39,0,0,0,7.59-3.71A28.24,28.24,0,0,1,65,91.65c1.61-.47,3,.33,4.51.87s3.84,1.13,5.42.2c.91-.53.91-1.18,1.17-2.15.19-.72.54-1.3.77-1.95a3.82,3.82,0,0,1-.19,1.62,1.79,1.79,0,0,0-.15,1,.77.77,0,0,0,.84.64,3.06,3.06,0,0,0,1.75-.94,2.38,2.38,0,0,0,.56-.74.23.23,0,0,1,.07-.11l.08.09c.63.92-1.68,2.37-2.19,2.69a9.34,9.34,0,0,1-5.18,1.7,14.9,14.9,0,0,1-5.74-1.72c-1.91-.18-3.55.81-5.19,1.74s-3.31,1.92-5,2.75A20.41,20.41,0,0,1,51.35,99c-1.38.25-3.18.56-4.49-.13a2.67,2.67,0,0,1-1.06-.67,12,12,0,0,1-1.4-2.37c-1.15-2.24-2.32-4.43-3.32-6.76s-1.81-4.52-2.62-6.82a19.32,19.32,0,0,1-.71-2.34A24.42,24.42,0,0,0,39.29,83.87Z"/><path class="cls-8" d="M38.46,82.23c.81,2.3,1.66,4.58,2.62,6.82s2.17,4.52,3.32,6.76a12,12,0,0,0,1.4,2.37,2.67,2.67,0,0,0,1.06.67c1.31.69,3.11.38,4.49.13a20.41,20.41,0,0,0,5.15-1.67c1.74-.83,3.38-1.79,5-2.75s3.28-1.92,5.19-1.74a14.9,14.9,0,0,0,5.74,1.72,9.34,9.34,0,0,0,5.18-1.7c.51-.32,2.82-1.77,2.19-2.69a1.15,1.15,0,0,0-.21-.23,0,0,0,0,0,0,0c.49-.75.88-2-.27-2.35.82-.5,1.67-1.51,1.12-2.47a1.63,1.63,0,0,0-.78-.67c.54-.64,1-1.5.37-2.25a6.26,6.26,0,0,0-2.91-1.77,10.9,10.9,0,0,0-4.37-.19,25.27,25.27,0,0,0-4.13.62c-.16-2.48-.46-6.2-3.32-7.07A1.62,1.62,0,0,0,63.7,74a0,0,0,0,1,0,0h0a.07.07,0,0,0,0,0,.94.94,0,0,0-.19.65,3.14,3.14,0,0,0,.6,1.46,15.79,15.79,0,0,1,.9,1.61A9,9,0,0,1,65.24,81a37.06,37.06,0,0,0-.18,5.25c-.47,1-2.14,1.4-3.13,1.71-1.72.54-3.47,1-5.18,1.56-2.46.83-4.83,1.84-7.22,2.83a31.92,31.92,0,0,1-2.3-5.18q-.27-.7-.54-1.44C48,85.17,48,83.22,48,82A7,7,0,0,0,47,79a12.85,12.85,0,0,0-1.85-2.86c-1.23-1.29-3.25-2.75-5.12-2.26-1.66.43-2.24,2.27-2.33,3.77h0C37.3,79.05,38,81,38.46,82.23Zm-.31-5.18s0,0,0,0a4.62,4.62,0,0,1,.52-1.61,2.61,2.61,0,0,1,2.92-1.25,7.42,7.42,0,0,1,4.11,3.16,9.8,9.8,0,0,1,1.94,4.85c0,1.2,0,2.57-1,3.37a14.11,14.11,0,0,1-1-4.14.06.06,0,1,0-.11,0c-.2,2,.71,4.11,1.42,6a39,39,0,0,0,2.25,5.18q-1,.42-2,.81s0,.06,0,.06c1.73-.1,3.39-1.15,5-1.77,2-.8,4.07-1.59,6.16-2.21,1.61-.49,3.25-.92,4.82-1.52a3.85,3.85,0,0,0,1.94-1.16c0,.46.08.92.15,1.39,0,.06.1,0,.1,0,0-1.5-.18-3-.07-4.51a37.81,37.81,0,0,0,.26-4,6.85,6.85,0,0,0-.85-3.16l-.18-.3c-.08-.16-.16-.32-.25-.48a3.06,3.06,0,0,1-.35-.81c-.4-.77.72-1.11,1.35-.83a4.21,4.21,0,0,1,1.6,1.1c1.38,1.57,1.49,3.74,1.72,5.71a2,2,0,0,0-.26.09,5.27,5.27,0,0,0-.52.22,24.8,24.8,0,0,1,7.57-.82,7.88,7.88,0,0,1,3.47,1.08A2.7,2.7,0,0,1,80,82.52a1.73,1.73,0,0,1-.44,1.83,7.22,7.22,0,0,0-2-.31s-.07.07,0,.09a5.92,5.92,0,0,1,2.23.73c1.15.94.07,1.88-.71,2.55a.15.15,0,0,0,0,.07,5,5,0,0,0-2.24.19,7.62,7.62,0,0,1,0-1.72,14.9,14.9,0,0,0-.28-1.51s0,0,0,0c-.14.62.19,1.16.14,1.8a7.21,7.21,0,0,0,0,1.54A6.63,6.63,0,0,1,76.54,90a3.74,3.74,0,0,0-.12,1.37c0,.07.14.07.13,0,0-1.12.63-2.19.34-3.3,0-.09,0-.16,0-.24a9.27,9.27,0,0,1,1.9-.06c.32,0,.81.13,1,.48.22.51-.11,1-.36,1.46a0,0,0,0,0,0,0c-.78-.34-1.86.24-2.51.65,0,0,0,.11,0,.09A3.58,3.58,0,0,1,78,90c.18,0,2.32-.25,1.37.9A7.68,7.68,0,0,1,78,92.19,11.18,11.18,0,0,1,74.51,94c-2.85.7-5.38-.64-8-1.52a.1.1,0,0,0-.13,0,5.22,5.22,0,0,0-3.35.92c-1.7.9-3.3,2-5,2.85a24.13,24.13,0,0,1-5.62,2.23c-1.84.41-3.66.83-5.33.13A3.94,3.94,0,0,1,45.35,97c-.4-.76-.79-1.52-1.21-2.26a64,64,0,0,1-2.8-5.85c-.85-2-1.71-4-2.4-6.08a23,23,0,0,1-.85-2.94A10.53,10.53,0,0,1,38.15,77.05Z"/><path class="cls-8" d="M75.77,80.73a2.12,2.12,0,0,1,1.36.89c.4.59,0,1.46-.12,2.07,0,.07-.12.06-.11,0A5.59,5.59,0,0,0,77,81.91c-.19-.53-.83-.76-1.25-1.07C75.69,80.8,75.71,80.72,75.77,80.73Z"/><path class="cls-19" d="M56.53,78.05s1.24,2.89-.48,3.65-3.52-.9-8.21-5.93c0,0,5.78,8.72,9.17,7.79C59.29,82.94,56.53,78.05,56.53,78.05Z"/><path class="cls-19" d="M58,106.57a42.18,42.18,0,0,1,6.55-.2,49.72,49.72,0,0,1,7.08,1.14c.07,0,0,.12,0,.12-2.25-.13-4.47-.48-6.7-.69s-4.6,0-6.9-.16C57.85,106.77,57.84,106.58,58,106.57Z"/><path class="cls-4" d="M39.5,74.53c1.39-.56,4.48,1,5,5s.5,4.59,1.74,7.23,2.9,5.5,2.27,5.73-.84,1.25-3.32-3.3S37.08,75.49,39.5,74.53Z"/><path class="cls-4" d="M64.53,87.51c-.67.25-7.29,2.33-8.84,2.95s-7.88,2.76-8.33,3.35.2,1.45,2.14,1.24,5.62-2.07,8.34-3.38,4.87-2.21,5.9-2.73S65.22,87.25,64.53,87.51Z"/><path class="cls-4" d="M64.16,74.15c.69-.55,2.75.31,3.41,2.34s-.28,1.94-1.38.8S63.67,74.53,64.16,74.15Z"/><path class="cls-4" d="M75.52,80.48a4.21,4.21,0,0,1,2.56.59,5,5,0,0,1,1.86,1.36.06.06,0,0,1-.08.08A6.38,6.38,0,0,0,77.7,81.3a15.4,15.4,0,0,0-2.19-.68A.07.07,0,0,1,75.52,80.48Z"/><path class="cls-4" d="M66.27,82.07c.31-.92,6-1.78,8.66-1.72a1.3,1.3,0,0,1-.34.18,26.62,26.62,0,0,0-8.19,1.73C66.28,82.31,66.23,82.2,66.27,82.07Z"/><path class="cls-25" d="M2.33,22.19c2.05-3.91,5.41-7.22,10-7.31a13.2,13.2,0,0,1,3.13.37L15.6,15c.1-.19.43-.08.33.12a2.56,2.56,0,0,0-.11.24l.27.07a0,0,0,0,1,0,.09l-.3-.06a18,18,0,0,0-1.25,5.16,29.79,29.79,0,0,0-.15,6,33.51,33.51,0,0,0,3.51,11.58A116,116,0,0,0,24.1,49,54.62,54.62,0,0,1,27,54.07a25.55,25.55,0,0,0,2.56,4.71.09.09,0,0,1,.12,0c.46.6.81,1.28,1.28,1.88a19.3,19.3,0,0,0,1.89,1.71A18,18,0,0,1,35.76,66a6.71,6.71,0,0,1,1,4.41,5,5,0,0,1-.61,1.77,8.31,8.31,0,0,1-1.32,1.55,7.51,7.51,0,0,1-.25.86c-.47,1.25-1.67,2-2.14,3.18a4.4,4.4,0,0,0,0,2.44,1.4,1.4,0,0,0,1.28,1.18c.43-.11.85-.24,1.27-.38a.06.06,0,0,1,0,.11,7.76,7.76,0,0,1-.77.37.06.06,0,0,1,0,.12,2.25,2.25,0,0,1-.54.09,6,6,0,0,1-5.41-.5,6.44,6.44,0,0,1-2.75-5c-.83,1.89.5,4.27,2.25,5.11l.08,0s0,0,0,0a.31.31,0,0,0,.1,0,.06.06,0,0,1,0,.11l-.17-.06a7.22,7.22,0,0,0-1.23,0,3.6,3.6,0,0,1-1.16.13,7,7,0,0,1-5.78-3.31,6.68,6.68,0,0,1-1.08-2.78,6.4,6.4,0,0,1-2.73-3.44,5.19,5.19,0,0,1,.33-4.25,2.72,2.72,0,0,1-1.89.29,4,4,0,0,1-2.84-4c0-.06.07-.09.12-.06h0a2.23,2.23,0,0,0,1.81.79c.92-.09,1.53-1.13,1.81-1.89.6-1.59-.5-3.21-1.49-4.35-1.79-2-4.22-3.44-6.14-5.37S4.42,48.55,3.19,46A30.94,30.94,0,0,1,.51,37.93C-.43,32.64-.21,27,2.33,22.19Z"/><path class="cls-26" d="M4.31,24.31a29.67,29.67,0,0,1,1.6-4,5.3,5.3,0,0,0,.74-2.16c0-.55-.42-.63-.9-.55a10,10,0,0,1,6.6-2.75,13.2,13.2,0,0,1,3.13.37L15.6,15c.1-.19.43-.08.33.12a2.56,2.56,0,0,0-.11.24l.27.07a0,0,0,0,1,0,.09l-.3-.06a18,18,0,0,0-1.25,5.16,29.79,29.79,0,0,0-.15,6,33.51,33.51,0,0,0,3.51,11.58A116,116,0,0,0,24.1,49,54.62,54.62,0,0,1,27,54.07a25.55,25.55,0,0,0,2.56,4.71.09.09,0,0,1,.12,0c.46.6.81,1.28,1.28,1.88a19.3,19.3,0,0,0,1.89,1.71A18,18,0,0,1,35.76,66a6.71,6.71,0,0,1,1,4.41,5,5,0,0,1-.61,1.77,8.31,8.31,0,0,1-1.32,1.55,7.51,7.51,0,0,1-.25.86c-.47,1.25-1.67,2-2.14,3.18a4.4,4.4,0,0,0,0,2.44,1.4,1.4,0,0,0,1.28,1.18c.43-.11.85-.24,1.27-.38a.06.06,0,0,1,0,.11,7.76,7.76,0,0,1-.77.37.06.06,0,0,1,0,.12,2.25,2.25,0,0,1-.54.09,6,6,0,0,1-5.41-.5,6.44,6.44,0,0,1-2.75-5c-.83,1.89.5,4.27,2.25,5.11l.08,0s0,0,0,0a.31.31,0,0,0,.1,0,.06.06,0,0,1,0,.11l-.17-.06a7.22,7.22,0,0,0-1.23,0,3.6,3.6,0,0,1-1.16.13,7,7,0,0,1-5.78-3.31,6.68,6.68,0,0,1-1.08-2.78,6.4,6.4,0,0,1-2.73-3.44,5.19,5.19,0,0,1,.33-4.25,2.72,2.72,0,0,1-1.89.29,3.91,3.91,0,0,1-2.83-3.8l.28.22A2.67,2.67,0,0,0,15,66.34a4.77,4.77,0,0,0,3.28-4.4c.75,3.2-1.78,6.2-1,9.54.06.25.38.16.41,0a8.08,8.08,0,0,1,2.7-4.82,6.23,6.23,0,0,0,1.22-1.7,11,11,0,0,1-1,3.79,10.65,10.65,0,0,0-1.18,4.4,7.54,7.54,0,0,0,4.41,6.49c.18.07.32-.16.24-.3-1.87-3.4.39-6.36,2.95-8.53-.86,3.12-1.27,6.59,1.38,9,.14.13.43,0,.34-.2-1.36-3.46,3.07-5.48,2.89-8.88a7.12,7.12,0,0,0-3.33-5.42,18.72,18.72,0,0,1,5.21,2.56,22.23,22.23,0,0,0-1.55-2.48c-8.08-8.59-19.45-4.14-25.77-20.39,1.07,2.4,3.73,5.26,5.42,7.25s10.21,6.72,7,4c-3-2.46-4-4.5-5.53-7.05a33.41,33.41,0,0,1-4.1-9.24,43.39,43.39,0,0,1-.79-10.43c0-3.22.8-6.31,1.14-9.49a.2.2,0,0,0-.15-.2c-3.16-.72-4.41,10-4.41,11.68,0,2.78.22,5.63.38,8.39C3.63,34.88,2.79,29.33,4.31,24.31Z"/><path class="cls-26" d="M3.62,44.27a31,31,0,0,0,5.69,8.22A41.56,41.56,0,0,0,13.6,56a10.2,10.2,0,0,1,2.52,4.43c.39,1.59.21,3.93-1.77,4.36a2.65,2.65,0,0,1-.93.05c.88-.14,1.45-1.13,1.73-1.87.6-1.59-.5-3.21-1.49-4.35-1.79-2-4.22-3.44-6.14-5.37S4.42,48.55,3.19,46A30.94,30.94,0,0,1,.51,37.93c-.12-.66-.22-1.33-.3-2A42.61,42.61,0,0,0,3.62,44.27Z"/><path d="M.51,37.93A30.94,30.94,0,0,0,3.19,46c1.23,2.56,2.29,5.23,4.33,7.29s4.35,3.32,6.14,5.37c1,1.14,2.09,2.76,1.49,4.35-.28.76-.89,1.8-1.81,1.89a2.23,2.23,0,0,1-1.81-.79h0s-.13,0-.12.06a4,4,0,0,0,2.84,4,2.72,2.72,0,0,0,1.89-.29,5.19,5.19,0,0,0-.33,4.25,6.4,6.4,0,0,0,2.73,3.44,6.68,6.68,0,0,0,1.08,2.78,7,7,0,0,0,5.78,3.31,3.6,3.6,0,0,0,1.16-.13,7.22,7.22,0,0,1,1.23,0l.17.06a.06.06,0,0,0,0-.11.31.31,0,0,1-.1,0s0,0,0,0l-.08,0c-1.75-.84-3.08-3.22-2.25-5.11a6.44,6.44,0,0,0,2.75,5,6,6,0,0,0,5.41.5,2.25,2.25,0,0,0,.54-.09.06.06,0,0,0,0-.12A7.76,7.76,0,0,0,35,81.1.06.06,0,0,0,35,81c-.42.14-.84.27-1.27.38a1.4,1.4,0,0,1-1.28-1.18,4.4,4.4,0,0,1,0-2.44c.47-1.22,1.67-1.93,2.14-3.18a7.51,7.51,0,0,0,.25-.86c.47-.51,1.68-2.19,1.32-1.55-.21.37.68-2.31.61-1.77-.2,1.56-.14-3.06-1-4.41a18,18,0,0,0-2.91-3.59A19.3,19.3,0,0,1,31,60.68c-.47-.6-.82-1.28-1.28-1.88a.09.09,0,0,0-.12,0A25.55,25.55,0,0,1,27,54.07,54.62,54.62,0,0,0,24.1,49a116,116,0,0,1-6.22-10.82,33.51,33.51,0,0,1-3.51-11.58,29.79,29.79,0,0,1,.15-6,18,18,0,0,1,1.25-5.16l.3.06a0,0,0,0,0,0-.09l-.27-.07a2.56,2.56,0,0,1,.11-.24c.1-.2-.23-.31-.33-.12l-.12.28a13.2,13.2,0,0,0-3.13-.37c-4.61.09-8,3.4-10,7.31C-.21,27-.43,32.64.51,37.93ZM3.56,21c1.35-2.11,3-4.19,5.41-5.17a11.52,11.52,0,0,1,6.45-.45,17.14,17.14,0,0,0-1.25,5.19A27.76,27.76,0,0,0,14,26.25a34.45,34.45,0,0,0,3.45,11.68A127.88,127.88,0,0,0,24.06,49.4a56.24,56.24,0,0,1,3,5.38,17.91,17.91,0,0,0,2.46,4.13h0c1.13,2.55,3.65,3.93,5.24,6.15A7.24,7.24,0,0,1,36.41,70a5.54,5.54,0,0,1-.92,2.58,8.8,8.8,0,0,1-.64.73,5.93,5.93,0,0,0-1.73-4.91c-.08-.09-.24,0-.15.13a5.41,5.41,0,0,1,1.43,5.29,6.48,6.48,0,0,1-1.46,2.41,3.5,3.5,0,0,0-.91,1.4c-.32,1.17-.2,3.31.93,3.91a5.84,5.84,0,0,1-4.71-.82,5,5,0,0,1-1.89-2.33,20.28,20.28,0,0,1-.58-2.63.19.19,0,0,0,0-.08c0-.11-.05-.22-.07-.32a.06.06,0,0,0-.11,0,2.06,2.06,0,0,0,0,.26.08.08,0,0,0,0,0c-1.29,1.74-.16,4.56,1.65,5.58h-.08s0,0,0,0H27a1.61,1.61,0,0,0-.31,0,8.21,8.21,0,0,0-.83.18,6.75,6.75,0,0,1-6.11-3.54c-1.51-2.74-1-5.59.39-8.25,0,0,0,0,0,0a7.34,7.34,0,0,0-1.68,4.59,8.91,8.91,0,0,0,.07,1,6.1,6.1,0,0,1-1.78-7.74s0,0,0,0A3.38,3.38,0,0,0,17.63,66a0,0,0,0,0-.07,0A3,3,0,0,1,14,67.73c-1.49-.53-1.74-1.66-2.15-2.92a1.91,1.91,0,0,0,2.41.2A3.87,3.87,0,0,0,15,59.58c-1.45-2.21-3.68-3.6-5.64-5.28A20.55,20.55,0,0,1,4.1,46.78,34.52,34.52,0,0,1,1,38.19C0,32.33.26,26.12,3.56,21Z"/><path class="cls-10" d="M14.17,12.45a1.74,1.74,0,0,1,.09,2.2A4.32,4.32,0,0,0,14.17,12.45Z"/><path class="cls-12" d="M14.3,14.43a2,2,0,0,0,0-1.39,5.19,5.19,0,0,0-.27-.93h0a2.22,2.22,0,0,1,.69,1.77,1,1,0,0,1-.52.89C14.26,14.66,14.28,14.55,14.3,14.43Z"/><g class="cls-27"><path class="cls-10" d="M14.17,12.45a1.74,1.74,0,0,1,.09,2.2A4.32,4.32,0,0,0,14.17,12.45Z"/></g><path class="cls-10" d="M14.26,14.65a1.74,1.74,0,0,0-.09-2.2l0-.11C14.33,12,16.23,9,18,9.24c.92.11,1.87,5.65.33,6.52-1.33.75-3.55-.59-4.1-.95A.94.94,0,0,0,14.26,14.65Z"/><path class="cls-12" d="M14.18,15c1.11.74,2.61,1.47,3.83,1s1.4-2.48,1.2-4-.54-3.23-1.95-2.72a6.91,6.91,0,0,0-3.17,3,4.06,4.06,0,0,1,.24,1,1.35,1.35,0,0,1,0,1.28C14.26,14.66,14.22,14.81,14.18,15Zm.12-.25a1.18,1.18,0,0,0,.46-1c0-.12-.37-1.49-.48-1.32.11-.17.22-.35.34-.51a7.59,7.59,0,0,1,2-2.11c1-.61,1.59-.44,1.94.84s.88,4.12-.19,5S15.37,15.43,14.3,14.7Z"/><path class="cls-12" d="M14.59,13.93a1.1,1.1,0,0,1,0-.15.47.47,0,0,1,.07-.17,1,1,0,0,1,.11-.2,1.47,1.47,0,0,1,.35-.41,1,1,0,0,1,.23-.18l.24-.15a2.08,2.08,0,0,1,.51-.18,1.06,1.06,0,0,1,.23-.05h.22a1.82,1.82,0,0,1,.44,0,2.84,2.84,0,0,1-.41.2l-.2.08a2,2,0,0,0-.21.1l-.24.1-.23.11a4.64,4.64,0,0,0-.44.26c-.07,0-.14.08-.2.13l-.18.14-.14.13-.1.11A.64.64,0,0,0,14.59,13.93Z"/><g class="cls-27"><path class="cls-10" d="M14.22,14.81c.55.36,2.77,1.7,4.1.95,1.54-.87.59-6.41-.33-6.52C16.23,9,14.33,12,14.14,12.34l0,.11a1.74,1.74,0,0,1,.09,2.2A.94.94,0,0,1,14.22,14.81Zm.66-2.7c.95-1.73,2.74-2.83,3.18-2.08s0,1.27.38,2.16S18.83,15.3,17,14.7s-1.65-1.9.4-2.37a1.82,1.82,0,0,0-1.65.07C14.84,12.88,14.64,12.53,14.88,12.11Z"/></g><path class="cls-28" d="M15.47,11.47c.65-.87,1.72-1.67,2.19-1.34s.25,1.23-.7,1.56S14.75,12.46,15.47,11.47Z"/><path class="cls-28" d="M16.55,13.05c.85-.4,1.8-.5,1.82.41S15.06,13.76,16.55,13.05Z"/><path class="cls-10" d="M13,15c-.57,0-1.19-1.2-.1-2.35,0,0-2.74-3.2-5.17-2.85-1.19.18-2.27,5.79-.23,6.54S13,15,13,15Z"/><path class="cls-12" d="M13,15c-1.06-.24-.27-1.8.07-2.21a0,0,0,0,0,0-.07A8.41,8.41,0,0,0,8.65,9.79c-1.86-.41-2.25,1.35-2.47,2.86s-.1,3.53,1.69,3.93,3.81-.6,5.26-1.46c.14-.09-.24-.21-.33-.15-1.36.81-3.93,2.14-5.45,1.25s-.82-3.8-.41-5,1.18-1.53,2.52-1a8.68,8.68,0,0,1,2.72,2c.16.16.32.32.46.49-.14-.16-.57,1.24-.58,1.36a1.09,1.09,0,0,0,.89,1.1C13.19,15.18,13.22,15,13,15Z"/><path class="cls-12" d="M12.29,14.28a.69.69,0,0,0-.06-.15.53.53,0,0,0-.09-.16.87.87,0,0,0-.15-.2,2.05,2.05,0,0,0-.47-.38,1.3,1.3,0,0,0-.31-.16l-.33-.13a3.23,3.23,0,0,0-.67-.15,1.63,1.63,0,0,0-.31,0H9.62A3.48,3.48,0,0,0,9,13a5,5,0,0,0,.55.17,2,2,0,0,0,.26.06c.1,0,.19.07.29.09l.31.09a1.49,1.49,0,0,1,.3.09,5.66,5.66,0,0,1,.59.22l.27.12.23.13a1.22,1.22,0,0,1,.19.12l.14.1Z"/><g class="cls-27"><path class="cls-10" d="M7.46,16.38C9.5,17.13,13,15,13,15c-.57,0-1.19-1.2-.1-2.35,0,0-2.74-3.2-5.17-2.85C6.5,10,5.42,15.63,7.46,16.38Zm-.27-3.56c.5-.91-.12-1.4.43-2.19s2.94.19,4.24,1.85c.31.41.07.77-1.12.36a3.06,3.06,0,0,0-2.17,0c2.71.33,3,1.62.6,2.35S6.7,13.74,7.19,12.82Z"/></g><path class="cls-28" d="M11.06,11.89c-.87-.83-2.31-1.55-2.91-1.19s-.29,1.25,1,1.51S12,12.82,11.06,11.89Z"/><path class="cls-28" d="M9.7,13.55c-1.13-.34-2.38-.37-2.38.54S11.67,14.15,9.7,13.55Z"/><path class="cls-10" d="M13.84,12c-.53-.12-1.1.43-1.33.84A2,2,0,0,0,12.38,15a1.45,1.45,0,0,0,1.46.4,1.45,1.45,0,0,0,.82-1.08C14.86,13.57,14.74,12.21,13.84,12Z"/><path class="cls-12" d="M13.84,12c-.53-.12-1.1.43-1.33.84A2,2,0,0,0,12.38,15a1.45,1.45,0,0,0,1.46.4,1.45,1.45,0,0,0,.82-1.08C14.86,13.57,14.74,12.21,13.84,12Zm-.53.48c.38-.25.79-.17,1,.61.13.59.22,2.23-.91,1.86C12.05,14.53,12.62,13,13.31,12.49Z"/><path class="cls-13" d="M14.28,12.24a3,3,0,0,1,0,1.11c-.07.29-.23.7-.57.76a.77.77,0,0,1-.83-.42,1.76,1.76,0,0,1-.05-1.2,2,2,0,0,0-.27.36A2,2,0,0,0,12.38,15a1.45,1.45,0,0,0,1.46.4,1.45,1.45,0,0,0,.82-1.08A2.32,2.32,0,0,0,14.28,12.24Z"/><path class="cls-25" d="M9.69,26.29a27.81,27.81,0,0,1,6-13,.24.24,0,0,1-.07-.12c-.32-1.94,1-4,2.28-5.32A17.93,17.93,0,0,1,23.11,4a35.14,35.14,0,0,1,7.6-2.59A49.41,49.41,0,0,1,39.92.07,54,54,0,0,1,58.07,2.16c4.87,1.48,10.06,4.46,13.06,8.69a11.84,11.84,0,0,1,5.73,3.25c1.62,1.52,3.78,3.92,3.86,6.28a0,0,0,0,1-.09,0c0-.15-.06-.29-.09-.43a9.52,9.52,0,0,0-2.41-2.69,11.69,11.69,0,0,0-3.22-1.38c4.12,2.28,6.34,6.8,6.51,11.45a13.08,13.08,0,0,1-.5,4.09c-1.29,4.51-4.51,7-7.76,9.78-6.35,5.52-14.44,8.59-21.93,12.27a115.36,115.36,0,0,1-12.5,5.3c-2.67.93-3.89,3.1-6.82,2.71-3.15-.42-7.81-3.15-10.36-4.91A29.85,29.85,0,0,1,11.64,44a31,31,0,0,1-2-8.67A31.49,31.49,0,0,1,9.69,26.29Z"/><path class="cls-26" d="M76.14,13.85a15.07,15.07,0,0,0-4.82-2.46c-3.95-1.28-7.94-2.45-11.91-3.67a25.16,25.16,0,0,1,5,.86c1.34.35,2.7.93,4.11.68.15,0,.17-.19.13-.3C67.67,6.72,65,5.5,63,4.29l-1.14-.68a23.25,23.25,0,0,1,9.27,7.24,11.84,11.84,0,0,1,5.73,3.25,20.41,20.41,0,0,1,2,2.11C77.94,15.41,77.08,14.59,76.14,13.85Z"/><path class="cls-26" d="M9.69,26.29a27.81,27.81,0,0,1,6-13,.24.24,0,0,1-.07-.12c-.32-1.94,1-4,2.28-5.32A17.93,17.93,0,0,1,23.11,4a35.14,35.14,0,0,1,7.6-2.59A49.41,49.41,0,0,1,39.92.07C41.12,0,42.34,0,43.55,0c-3.39.41-6.81.6-10.17,1.3a33.76,33.76,0,0,0-9.3,3.37c-.17.09-.11.41.1.38a60.45,60.45,0,0,0,6.17-1.54A27.56,27.56,0,0,1,36.15,3,24,24,0,0,1,46.34,4.59c-2.42-.16-4.83-.43-7.25-.42A45,45,0,0,0,32,4.92a30.56,30.56,0,0,0-6.79,1.76c-.63.27-2.44.86-2.45,1.81,0,1.27,4.3.87,5,.85a26.37,26.37,0,0,1,6.68.68A44.94,44.94,0,0,1,40,12.1l0,0a43.71,43.71,0,0,0-13.6-.48,18.24,18.24,0,0,0-10.81,6C11.45,22.73,14.48,30.2,19,34a7.37,7.37,0,0,1-4.29-2.71c-.92-1.34-1.46-2.9-2.44-4.2a.21.21,0,0,0-.39.11,16.46,16.46,0,0,0,1.55,6.95c.77,1.72,1.84,3.7,3.52,4.72,1,.61,2.18.89,2.83-.34.56-1,.73-2.68,1.73-3.43-.2,2.28-.73,4.64.11,6.84.06.17.36.23.4,0,.32-2,.35-4.18,1.1-6.13s1.74-3.55,2.34-5.43a17.25,17.25,0,0,0,.79-7c1.36,3.23,2,6.76.8,10.17-.72,2.1-1.73,4.11-2.28,6.26a12.44,12.44,0,0,0-.48,3c0,1.08.13,2.16.15,3.24,0,.26.42.26.41,0-.12-5.7,3.67-10.36,4.6-15.88a22.39,22.39,0,0,0-.1-7.35c-.39-2.35-.83-4.83,0-7.1a14.16,14.16,0,0,0,5.61,7.8c2.47,1.73,5.49,3.76,8.63,3.76a.2.2,0,0,0,.1-.38c-2.11-1.48-4.54-2.72-6.06-4.88a14.59,14.59,0,0,1-2.65-6,11.19,11.19,0,0,0,2.46,3c2,1.66,4.71,2.32,7.12,3.17,4.3,1.53,9.68,3.24,12.68,6.84a9.39,9.39,0,0,0,1,1.45c-.35-3.59-6.26-8.06-8-9.11-1.43-.86-5.76-2.51-6.75-3.42-.64-.59-1.66-2.65-2.35-2.94a22.21,22.21,0,0,0,3.72,1.45c1.59.36,3.21.57,4.83.8a43,43,0,0,1,9,2,47.46,47.46,0,0,1,8.67,4.41,27.46,27.46,0,0,1,4,3.08c1,1,2,2,3.06,2.87a.21.21,0,0,0,.35-.2,11,11,0,0,0-3-5.18,37.18,37.18,0,0,0-5.16-5c-3.28-2.6-7.19-4.26-11.05-5.84a63,63,0,0,1,6.93,1,34,34,0,0,1,8.21,3c4.46,2.41,8.35,6.22,9.69,11.23a.21.21,0,0,0,.4,0c.8-4.3-1.49-8.9-4.77-11.63a27.46,27.46,0,0,0-7.17-4.43A30.52,30.52,0,0,1,73.71,14a12.53,12.53,0,0,1,4.36,2.42c.83.78,1.57,1.63,2.33,2.47a5.29,5.29,0,0,1,.32,1.54,0,0,0,0,1-.09,0c0-.15-.06-.29-.09-.43a9.52,9.52,0,0,0-2.41-2.69,11.69,11.69,0,0,0-3.22-1.38c4.12,2.28,6.34,6.8,6.51,11.45a13.08,13.08,0,0,1-.5,4.09c-1.29,4.51-4.51,7-7.76,9.78-6.35,5.52-14.44,8.59-21.93,12.27a115.36,115.36,0,0,1-12.5,5.3c-2.67.93-3.89,3.1-6.82,2.71-3.15-.42-7.81-3.15-10.36-4.91A29.85,29.85,0,0,1,11.64,44a31,31,0,0,1-2-8.67A31.49,31.49,0,0,1,9.69,26.29Z"/><path d="M18.35,33.27l.18.08Z"/><path d="M16.93,32.37l.09.07Z"/><path d="M17,32.44a6.86,6.86,0,0,0,1.33.83A6.31,6.31,0,0,1,17,32.44Z"/><path d="M18.53,33.35l.31.13Z"/><path d="M16.71,32.17l.22.2Z"/><path d="M20,33.76a5.25,5.25,0,0,1-1.12-.28,5.25,5.25,0,0,0,1.12.28Z"/><path d="M9.69,35.28a31,31,0,0,0,2,8.67,29.85,29.85,0,0,0,9.91,12.63c2.55,1.76,7.21,4.49,10.36,4.91,2.93.39,4.15-1.78,6.82-2.71a115.36,115.36,0,0,0,12.5-5.3c7.49-3.68,15.58-6.75,21.93-12.27,3.25-2.83,6.47-5.27,7.76-9.78a13.08,13.08,0,0,0,.5-4.09c-.17-4.65-2.39-9.17-6.51-11.45a11.69,11.69,0,0,1,3.22,1.38A9.52,9.52,0,0,1,80.54,20c0,.14.07.28.09.43a0,0,0,0,0,.09,0c-.08-2.36-2.24-4.76-3.86-6.28a11.84,11.84,0,0,0-5.73-3.25c-3-4.23-8.19-7.21-13.06-8.69A54,54,0,0,0,39.92.07,49.41,49.41,0,0,0,30.71,1.4,35.14,35.14,0,0,0,23.11,4a17.93,17.93,0,0,0-5.2,3.86,10.57,10.57,0,0,0-1.95,3,2.17,2.17,0,0,0-.22.6h0a4.33,4.33,0,0,0-.12,1.75.24.24,0,0,0,.07.12c-.28.33-.55.68-.81,1A5.1,5.1,0,0,0,14,15.54s0,0,0,0a1.84,1.84,0,0,1,.17-.22,27.53,27.53,0,0,0-4.47,11A31.49,31.49,0,0,0,9.69,35.28Zm.45.29c-.12-1-.22-2.07-.3-3.1a16,16,0,0,0,5.34,9s.05,0,0,0a20.15,20.15,0,0,1-5.44-10A22.11,22.11,0,0,1,10,26.69a29,29,0,0,1,2.31-7.51A13,13,0,0,0,13.6,27.9a14.4,14.4,0,0,0,3.11,4.27,12.49,12.49,0,0,1-3.07-4.68,16,16,0,0,1-1-9,30.21,30.21,0,0,1,2.45-4.1,15.27,15.27,0,0,1,3-1.83,20,20,0,0,1,5-1.77,39.76,39.76,0,0,1,10-.33c.08,0,.09-.12,0-.13a33.87,33.87,0,0,0-11,.42A19.64,19.64,0,0,0,17,12.82a16.89,16.89,0,0,0-1.43.94l.33-.44a.18.18,0,0,0,.14-.18c.33-.41.67-.82,1-1.21.05,0,0-.13-.09-.08-.33.34-.64.7-.95,1.06a4.36,4.36,0,0,1,.4-2.19A16.7,16.7,0,0,1,20.1,8.16a27.88,27.88,0,0,1,5.21-2.32,50.07,50.07,0,0,1,11.84-2s0,0,0,0a39.71,39.71,0,0,0-12.62,2,34.93,34.93,0,0,0-6,3,16.68,16.68,0,0,0-1.61,1,12.75,12.75,0,0,1,2.35-2.69,19.21,19.21,0,0,1,5.59-3.41A47.48,47.48,0,0,1,41.5.35,51.35,51.35,0,0,1,58.7,2.68a28.18,28.18,0,0,1,7,3.47,33.67,33.67,0,0,1,5.17,4.66,6.35,6.35,0,0,0-1.07-.09s-.06.06,0,.07a15.25,15.25,0,0,1,3.88,1.34,15.23,15.23,0,0,1,3.18,2.41,13.45,13.45,0,0,1,3.58,5.09A8.32,8.32,0,0,0,78,16.79a5.9,5.9,0,0,0-3.55-1.12c-.3-.15-.52-.26-.69-.33a4.48,4.48,0,0,0-.64-.17A14.41,14.41,0,0,1,81.06,28C80.76,37.32,70,43,62.92,47c-3.64,2-7.42,3.89-11.17,5.74A118.81,118.81,0,0,1,40,57.85c-4,1.45-6.37,3.93-10.58,2.54a79.5,79.5,0,0,1-7.33-3.94A29.38,29.38,0,0,1,12.17,44.1,30.7,30.7,0,0,1,10.14,35.57Z"/><path class="cls-3" d="M18.61,44.54c1.41-.2,2.66,1.11,3.58,2.27,0,0,0,0,0,0a2.1,2.1,0,0,0,.21.7A6.24,6.24,0,0,0,23,48.78a6.67,6.67,0,0,0,3,2.76h0a3.25,3.25,0,0,0,1.09.45s0,0,0,0c-2.46-.71-2.71-4.45-2.38-6.53.48-3,2.12-5.66,3.5-8.34a20.2,20.2,0,0,0,2.51-9,16.91,16.91,0,0,0-.52-5.59,10.81,10.81,0,0,0,1.42,1.37,22.74,22.74,0,0,0,5.52,3.26c2.16.88,4.5,1.24,6.69,2.05,2,.73,4.38,1.51,5.85,3.11,0,0,0,0,0,0a1.82,1.82,0,0,0-.16-.31s0,0,0-.06C48.38,29,46,27.23,43.37,25.77l.68.2c1.78.52,3.58,1.06,5.3,1.74a19.51,19.51,0,0,1,5,2.87,12.78,12.78,0,0,1,2.14,2,3.82,3.82,0,0,1,.79,3s.07.06.08,0l.12-.53,0,0c1.57-2.77.39-6.18-1.28-8.6A20.76,20.76,0,0,0,53,22.7a13.32,13.32,0,0,0-2-1.58A77.69,77.69,0,0,1,64.25,26c4.23,2.14,9.53,5.55,10,10.73,0,.12-.09.24-.13.36s.07.12.11.06l.09-.19a.05.05,0,0,0,.07-.05V36.8a12,12,0,0,0,.6-1.26A9.82,9.82,0,0,0,75.48,34a18.13,18.13,0,0,1-.26,2.72c-.45,2.61-1.45,5.1-1.86,7.71a23.8,23.8,0,0,0,.42,6.73,15.55,15.55,0,0,1-.06,5.77c-.51,2.11-2.08,3.63-3.63,5a30,30,0,0,1-4.77,3.47,25.79,25.79,0,0,1-3.47,2.2A14.09,14.09,0,0,1,58.32,69c-.29.07-1.69.66-1.89.42a.21.21,0,0,1,0-.24,6.75,6.75,0,0,1-1.24.84,7.26,7.26,0,0,1-3.66.61,11.18,11.18,0,0,1-4-1.08c-5,.55-10.06-1.81-13.93-4.75a41,41,0,0,1-5.3-5c-1.44-1.58-3.44-3.38-4.13-5.49-1.5,1-3.13.62-4.75-.27a7.14,7.14,0,0,1-3.34-5C15.74,47.2,16.55,44.83,18.61,44.54Z"/><path class="cls-6" d="M56.53,32.64a3.81,3.81,0,0,1,.79,3s0,.05,0,0a7.16,7.16,0,0,1-1.23,1.81c-.35-5.15-5.63-8.29-10.16-9.91a24.28,24.28,0,0,0-2.61-1.69l.68.21c1.78.51,3.58,1.05,5.3,1.73a19.8,19.8,0,0,1,5,2.87A12.43,12.43,0,0,1,56.53,32.64Z"/><path class="cls-6" d="M58.72,53.25a5.54,5.54,0,0,0,3.44-.34.22.22,0,0,0,0-.33c-1-1.06-2-1.84-1.86-3.46a17.4,17.4,0,0,1,.93-4.62c.64-2,1.26-4,2-5.91.95-2.51,3.1-7.16,6.25-5.84a.15.15,0,0,0,.1.15,5.89,5.89,0,0,1,2.6,4.17c.12.62.52,2,.1,2.54s-1.24-.68-1.43-.91c-.65-.74-1.27-1.77-2.34-1.91-1.43-.18-1.83.29-2.69,1.32-.17.2-1.11,1.93.55.27,1.94-1.94,3.75-.54,4.55,1.93.49,1.52,1,3.44.45,4.94A23.11,23.11,0,0,0,70.05,41c-.1-.25-.5-.15-.4.11a9.37,9.37,0,0,1-.46,8.32.21.21,0,0,0,.28.29l.76-.32a4.41,4.41,0,0,1-3.69,2.1c-1.3-.13-3.55-1.12-2.76-.07.64.86,1.55,1.45.8,2.55a12.65,12.65,0,0,1-3.5,3.18,2.7,2.7,0,0,1-3.5,0,5,5,0,0,1-2-2.53C55.17,52.88,57.6,53.12,58.72,53.25Z"/><path class="cls-9" d="M71.09,37.92a7,7,0,0,1-.6-.62,3.08,3.08,0,0,0-2.59-1.41c-2.16.3-3.27,2.29-4.38,3.87.88-3,1-3.17,1.67-4.38a5.26,5.26,0,0,1,3.46-2.85,3.3,3.3,0,0,1,.86.22.15.15,0,0,0,.1.15,5.74,5.74,0,0,1,2.55,4C72.13,37.4,71.83,38.59,71.09,37.92Z"/><path class="cls-9" d="M66.12,51.14c-2.6-.86-3.38-4.29-2.83-7,1-5.18,4.3-8.3,6.55-5.59a8.39,8.39,0,0,1,1.56,6.73c0-.09,0-.19-.05-.28a9.44,9.44,0,0,0-.44-3.27c-.25-.67-.86-1.9-1.76-1.85-1.67.1-1.91,3.35-2,4.52-.21,2.1-.15,6.63,3.24,5A3.64,3.64,0,0,1,66.12,51.14Z"/><path class="cls-9" d="M62.77,53c.83,1.26-1.18,2.63-2.13,3.12-1.14.57-2.31.58-3.08-.56a4.34,4.34,0,0,1-.81-2c1.75.4,3.39,1.77,5.2.59.92-.6.46-1.49-.15-2.16A4.18,4.18,0,0,1,62.77,53Z"/><path class="cls-6" d="M39.91,48.38c.1,0,.66,0,.62-.07-1-2.51,0-6.76,1.66-8.76s4.24-3.23,6.62-2.13c2.85,1.31,3.64,5.37,3,8.15a25.07,25.07,0,0,0-1.05-3.86c-.08-.26,0,.68.08.95a8.36,8.36,0,0,1-1.32,6.24,6.84,6.84,0,0,0,1.44-2.06c-.67,4.16-3.38,4.93-6.13,4.72-.17,0-.67-.48-.61-.35A4.61,4.61,0,0,1,44.46,54c-.21-2.28-1.19-2.93-2.59-4A6.81,6.81,0,0,0,38,48.69,3,3,0,0,1,39.91,48.38Z"/><path class="cls-9" d="M46.56,51.11c-3.63.62-5.94-2.07-6.16-5.64-.26-4.14,4.27-8.95,8.32-7.51,3.52,1.26,3.07,6.75,1.73,9.52C49.8,48.82,48.08,50.85,46.56,51.11Z"/><path class="cls-6" d="M16.68,45.8c-.84,1.55-1,3.42.6,4.45a.21.21,0,0,0,.32-.17c.14-1.86.31-4.36,2.61-3.08a12.68,12.68,0,0,1,3.33,3.37,1.91,1.91,0,0,0,.31-.47,5.89,5.89,0,0,0,2.2,1.64h0a3.25,3.25,0,0,0,1.09.45s0,0,0,0c-2.46-.71-2.71-4.45-2.38-6.53.48-3,2.12-5.66,3.5-8.34a20.2,20.2,0,0,0,2.51-9,16.91,16.91,0,0,0-.52-5.59,10.81,10.81,0,0,0,1.42,1.37,22.74,22.74,0,0,0,5.52,3.26c2.16.88,4.5,1.24,6.69,2.05a21.17,21.17,0,0,1,4.62,2.07,14.45,14.45,0,0,0-4.61-1.36c-2.29-.32-5.16-.67-8.27-1.19-2-.34-.72,1.35-2.58,5.9S28,43.37,28.59,48c.79,5.83,2.59,11.48,9.86,16.64a16.21,16.21,0,0,0,4.08,1.93c.13-.37-.31-1.12-.79-2.26C43.34,65.69,49,68.76,51,69a7.61,7.61,0,0,0,5.38-.89,8.44,8.44,0,0,0,2.68-3c-.49,1-1,2.23.08,2.21a4,4,0,0,0,2-.58c1.42-.74,2.88-1.42,4.26-2.25a34.36,34.36,0,0,0,6.7-4.62,21.4,21.4,0,0,1-2,2,30,30,0,0,1-4.77,3.47,25.79,25.79,0,0,1-3.47,2.2A14.09,14.09,0,0,1,58.32,69c-.29.07-1.69.66-1.89.42a.21.21,0,0,1,0-.24,6.75,6.75,0,0,1-1.24.84,7.26,7.26,0,0,1-3.66.61,11.18,11.18,0,0,1-4-1.08,11.33,11.33,0,0,1-1.3.07h0a17,17,0,0,1-6.63-1.36l-.09,0-.66-.29-.19-.08-.59-.28-.24-.12-.53-.28L37,67l-.47-.27-.34-.2-.41-.25L35.39,66,35,65.78l-.45-.31-.27-.19-.71-.52a41,41,0,0,1-5.3-5c-1.44-1.58-3.44-3.38-4.13-5.49-1.5,1-3.13.62-4.75-.27l-.57-.37-.2-.16-.29-.25A7.49,7.49,0,0,1,16.08,49,4.52,4.52,0,0,1,16.68,45.8Z"/><path class="cls-6" d="M20.1,53.86a4.62,4.62,0,0,0,3.37.08,4,4,0,0,0,1.73-1.42c-.29.41,2.28,4.38,2.67,4.91a29.31,29.31,0,0,0,5.07,5.07c3.28,2.63,8,5.48,12.28,6,.18,0,.28-.23.18-.31a11.58,11.58,0,0,1-2-2.52,35.64,35.64,0,0,0,3.83,2.79,14.39,14.39,0,0,0,6.23,2.2,8.15,8.15,0,0,1-1.21,0,11,11,0,0,1-4-1.07c-5,.55-10.06-1.82-13.92-4.76a39.66,39.66,0,0,1-5.3-5c-1.45-1.58-3.44-3.39-4.14-5.49-1.5,1-3.13.62-4.74-.28a6.08,6.08,0,0,1-1-.69A6.46,6.46,0,0,0,20.1,53.86Z"/><path class="cls-9" d="M21.51,53.15A3.93,3.93,0,0,1,19,50.64c-.21-.87-.2-2.36.8-2.65a3.48,3.48,0,0,1,1.39.17A6,6,0,0,1,23.89,52C24.1,53.41,22.86,53.63,21.51,53.15Z"/><path class="cls-6" d="M53.67,37.53c.14.58.37,1.8-.19,2.25-.75.61-1.84-1-2.23-1.52-1.53-1.86-4.26-3.62-6.79-3A7.63,7.63,0,0,0,41,37.55s-.89,1-.89.21a2.06,2.06,0,0,1,.48-1.4A7.17,7.17,0,0,1,45,33.07C48.14,32.32,52.83,34.05,53.67,37.53Z"/><path class="cls-9" d="M53.47,37.37c-.07,1.42-1.16,1.05-1.95.44a19.47,19.47,0,0,0-3.59-2.65,4.58,4.58,0,0,0-4.45,0,10.72,10.72,0,0,0-1.73,1.57,7.93,7.93,0,0,1-.7.72c-.52.43-.8.34-.93.08a2.31,2.31,0,0,1,.48-1.16A7.17,7.17,0,0,1,45,33.07c3-.7,7.23.75,8.48,3.77A2.41,2.41,0,0,1,53.47,37.37Z"/><path class="cls-6" d="M28.32,53.3c-1.73-.08-3.75-1.84-4.45-3.26a7.76,7.76,0,0,1-.72-2.36,6.47,6.47,0,0,0,.6,1.21,6.71,6.71,0,0,0,3,2.72C27.22,52.16,27.8,52.67,28.32,53.3Z"/><path class="cls-6" d="M49.51,33.19c.07.16.18.36.28.57-1.68-2.13-4.57-3.13-7.12-3.78a58.65,58.65,0,0,1-6-1.46c-2.23-.84-3.69-2.44-5.41-4a.18.18,0,0,0-.09-.06h0s0,0-.06,0H31l-.05,0h0l0,.05v0h0a.17.17,0,0,0,0,.12A16.17,16.17,0,0,1,30.43,34c-.93,2.65-2.54,4.93-3.8,7.41A16.28,16.28,0,0,0,24.58,48a10.56,10.56,0,0,1,.08-2.43c.48-3,2.12-5.67,3.51-8.35a20.32,20.32,0,0,0,2.5-9,16.89,16.89,0,0,0-.52-5.59A10.23,10.23,0,0,0,31.58,24a22.68,22.68,0,0,0,5.51,3.26c2.16.88,4.5,1.24,6.69,2.05a19.79,19.79,0,0,1,4.81,2.22A16.44,16.44,0,0,1,49.51,33.19Z"/><path class="cls-6" d="M75.09,37.69c0-.25-.32-.25-.41,0-.29.7-.64,1.37-1,2.06a8.56,8.56,0,0,0-.32-2.86,14.68,14.68,0,0,0-1.47-3.1,17.93,17.93,0,0,0-5-5.08,45.68,45.68,0,0,0-13.49-6.15,11.09,11.09,0,0,0-1.67-1.29A78.32,78.32,0,0,1,65,26.06c4.22,2.14,9.52,5.56,10,10.73,0,.12-.08.24-.13.36s.07.12.11.06l.1-.18a.07.07,0,0,0,.07-.06V36.9a12,12,0,0,0,.59-1.26,10.93,10.93,0,0,0,.5-1.53,18.16,18.16,0,0,1-.27,2.71,40.32,40.32,0,0,1-1,4C75,39.8,75,38.74,75.09,37.69Z"/><path class="cls-9" d="M75.7,37.29c0-.16-.24-.18-.34-.09s-.23.22-.33.33a.25.25,0,0,0-.35.11c-.1.24-.22.48-.33.72l-.11.15a12.17,12.17,0,0,0-2.48-7.16c-1.93-2.39-4.39-3.67-7-5.1Q62.4,25,60,23.9a52.17,52.17,0,0,1,5,2.16c4.22,2.14,9.52,5.56,10,10.73,0,.12-.08.24-.13.36s.07.12.11.06l.1-.18a.07.07,0,0,0,.07-.06V36.9a12,12,0,0,0,.59-1.26,10.93,10.93,0,0,0,.5-1.53,18.16,18.16,0,0,1-.27,2.71c-.06.33-.12.66-.19,1A4.4,4.4,0,0,0,75.7,37.29Z"/><path class="cls-29" d="M67,50.91c1.21-.37,2.29-2.43,2.6-3.59a9.65,9.65,0,0,0,0-4.31c-.35-1.63-1.05-4.26-3.19-3.85A9.79,9.79,0,0,0,63,45.09c-.2,1.58.13,4.23,1.32,5.35A3.58,3.58,0,0,0,67,50.91Z"/><path class="cls-30" d="M63.16,44.93a9.17,9.17,0,0,1,3.33-5.77,2,2,0,0,1,.76,0,3.63,3.63,0,0,0-1.1,1.54c-.78,1.81-1.66,5.63-1,7.51s3.46.59,4.22-1.4a7.78,7.78,0,0,0,.49-2.43,9.42,9.42,0,0,1-.23,3c-.31,1.16-1,2.82-2.21,3.28a3,3,0,0,1-3.26-.36C63,49.11,63,46.52,63.16,44.93Z"/><path class="cls-29" d="M48.52,49.07A7.46,7.46,0,0,0,49.9,45.2c.34-2.31.3-7.06-2.89-7.4h0A6,6,0,0,0,44.26,39a9.24,9.24,0,0,0-3.21,4.83,6.78,6.78,0,0,0-.19,3.07A4.3,4.3,0,0,0,48.52,49.07Z"/><path class="cls-30" d="M41.74,46.86c1.56,1.59,4,2.49,6,1.27s1.9-5.24,1.66-7.2-1.38-3.1-3-3a4.68,4.68,0,0,1,.54-.1h0c3.19.34,3.23,5.09,2.89,7.4a7.46,7.46,0,0,1-1.38,3.87,4.3,4.3,0,0,1-7.66-2.22,6.61,6.61,0,0,1-.09-1.33A5.8,5.8,0,0,0,41.74,46.86Z"/><path class="cls-31" d="M24.26,54a39,39,0,0,0,9.57,10.44,23.74,23.74,0,0,0,13.3,4.88,9.79,9.79,0,0,1-3.29-2.66s0-.1.06-.07c2.22,1.55,4.32,3,7.06,3.45a7.38,7.38,0,0,0,6.83-2.46,0,0,0,1,1,0,0,11,11,0,0,1-1.21,1.33,2.1,2.1,0,0,1,.47-.18,28.77,28.77,0,0,0,3.63-1.13A43.83,43.83,0,0,0,69,62.46a0,0,0,0,1,.06,0c.72-.63,1.43-1.27,2.1-2a9.12,9.12,0,0,0,2.4-7.17c-.12-2.18-.59-4.32-.68-6.51a23.5,23.5,0,0,1,1.28-7.23,30.37,30.37,0,0,0,.95-4.74,6.35,6.35,0,0,0,.41-1.18,17.24,17.24,0,0,1-.26,3c-.45,2.61-1.45,5.1-1.86,7.71a23.8,23.8,0,0,0,.42,6.73,15.55,15.55,0,0,1-.06,5.77c-.51,2.11-2.08,3.63-3.63,5a30,30,0,0,1-4.77,3.47,25.79,25.79,0,0,1-3.47,2.2A14.09,14.09,0,0,1,58.32,69c-.29.07-1.69.66-1.89.42a.21.21,0,0,1,0-.24,6.75,6.75,0,0,1-1.24.84,7.26,7.26,0,0,1-3.66.61,11.18,11.18,0,0,1-4-1.08c-5,.55-10.06-1.81-13.93-4.75a41,41,0,0,1-5.3-5c-1.5-1.63-3.58-3.51-4.2-5.71C24.07,54,24.21,53.93,24.26,54Z"/><path class="cls-32" d="M63,45.39c-.36,2.9.62,5.33,2.19,5.43s3.14-2.17,3.5-5.07-.61-5.33-2.18-5.43S63.32,42.49,63,45.39Z"/><path class="cls-33" d="M63.6,45.63c-.28,2.21.47,4.07,1.67,4.14s2.39-1.66,2.67-3.87-.47-4.07-1.67-4.14S63.88,43.42,63.6,45.63Z"/><path class="cls-34" d="M64,45.44c-.22,1.75.37,3.22,1.32,3.28s1.89-1.31,2.11-3.06-.37-3.21-1.32-3.27S64.21,43.7,64,45.44Z"/><path class="cls-35" d="M68.7,44.91a8.3,8.3,0,0,1-.06.84c-.36,2.9-1.93,5.17-3.5,5.07S62.59,48.29,63,45.39c0-.27.08-.53.14-.78C64.6,46.29,67.05,46.81,68.7,44.91Z"/><path class="cls-29" d="M66.37,44.33c-.05.9.31,1.61.81,1.57s.94-.79,1-1.69-.32-1.61-.81-1.58S66.42,43.43,66.37,44.33Z"/><path class="cls-29" d="M66.56,47.17c0,.42.14.76.38.75s.45-.38.47-.81-.15-.77-.38-.75S66.58,46.74,66.56,47.17Z"/><path class="cls-32" d="M40.93,44.9c-.23,3.24,1.08,5.85,2.92,5.83s3.52-2.66,3.75-5.89S46.52,39,44.67,39,41.16,41.67,40.93,44.9Z"/><path class="cls-33" d="M41.71,45.11c-.18,2.47.82,4.46,2.23,4.45s2.68-2,2.85-4.5-.82-4.45-2.23-4.44S41.88,42.65,41.71,45.11Z"/><path class="cls-34" d="M42.15,44.88c-.14,1.95.65,3.52,1.76,3.51s2.13-1.6,2.26-3.55-.65-3.52-1.76-3.51S42.29,42.93,42.15,44.88Z"/><path class="cls-35" d="M47.62,43.91c0,.3,0,.61,0,.93-.23,3.23-1.9,5.87-3.75,5.89s-3.15-2.59-2.92-5.83c0-.29.06-.59.1-.88C42.92,45.76,45.81,46.14,47.62,43.91Z"/><path class="cls-29" d="M44.85,43.45c0,1,.48,1.76,1.06,1.68s1-1,1-2-.47-1.75-1-1.67S44.85,42.45,44.85,43.45Z"/><path class="cls-29" d="M45.27,46.58c0,.47.22.83.49.79s.5-.45.5-.93-.23-.83-.5-.8S45.26,46.1,45.27,46.58Z"/><path class="cls-36" d="M61.65,61.65c-1.54,2.12-4.14,5.41-8.39,5-6-.55-5.91-9.66-5.91-9.66-1.78.25-2.48-1.18-1.35-.9A4.32,4.32,0,0,0,49.26,55c.36-.45.53,0,.34.56s-1,1-1,1a3.14,3.14,0,0,0,1.19,1c3.8,2.24,13.41,2.37,15.27.72,2.07-1.83-.19-1.77-.19-1.77s2.16.15,1.27,1.39A4.48,4.48,0,0,1,64.58,59,7.54,7.54,0,0,0,61.65,61.65Z"/><path class="cls-8" d="M48.21,56.46a4.39,4.39,0,0,0,1.62,1.34A16.49,16.49,0,0,0,57,59.55c2.86.19,6.15,0,7.8-1.06a2.84,2.84,0,0,0,1.1-1.09c.19-.34-.32-.82-1-1a2,2,0,0,1,1.13.31.68.68,0,0,1,0,1c-1.37,1.37-2.74,1.64-4.72,1.89a21.8,21.8,0,0,1-10.74-1.13,5.78,5.78,0,0,1-2.74-1.91C47.78,56.5,48.14,56.35,48.21,56.46Z"/><path class="cls-37" d="M48.05,56.51s1.72,2.86,9.58,3.16a18.86,18.86,0,0,0,5.66-.53s-1.84.8-3.87,4.07-7.41,4-9.47.17A14.62,14.62,0,0,1,48.05,56.51Z"/><g class="cls-38"><path class="cls-37" d="M49.53,62.55a14.18,14.18,0,0,1-1.48-6s1.72,2.86,9.58,3.16a18.86,18.86,0,0,0,5.66-.53s-1.84.8-3.87,4.07a6.67,6.67,0,0,1-.43.61C57.43,62.3,54.3,60.38,49.53,62.55Z"/></g><path class="cls-39" d="M55.31,65.9A4.91,4.91,0,0,1,50,63.38c-.19-.35-.35-.7-.51-1A5.79,5.79,0,0,1,55.31,65.9Z"/><path class="cls-29" d="M48.67,60.28a12.63,12.63,0,0,1-.62-3.77s1.72,2.86,9.58,3.16c.41,0,.8,0,1.17,0C57.54,61,54.27,63.27,48.67,60.28Z"/><g class="cls-40"><path class="cls-41" d="M51.21,61.35a13.77,13.77,0,0,1-2.54-1.07,12.63,12.63,0,0,1-.62-3.77s1.72,2.86,9.58,3.16c.41,0,.8,0,1.17,0a7,7,0,0,1-6.61,1.9l.54,0c3.31.27,6.44-1.69,4.08-1.71-1.53,0-5.81-.74-7.22-1.68C48.37,57.45,48.59,60.39,51.21,61.35Z"/></g><path class="cls-42" d="M53.72,63.91c-.54-.77-1.92-1.4-2.52-1S55.2,66,53.72,63.91Z"/><g class="cls-40"><path class="cls-39" d="M51,62.47h0s-1.17,0-.37,1.16,5,2.78,4.08,1.17a6.35,6.35,0,0,1,.59,1.1A4.91,4.91,0,0,1,50,63.38c-.19-.35-.35-.7-.51-1A7.77,7.77,0,0,1,51,62.47Z"/></g><path class="cls-8" d="M47.87,56.57h0a12.92,12.92,0,0,0,1.26,5.56c1,2.24,2.42,3.87,5,3.95a6.38,6.38,0,0,0,4.92-2.17c1.32-1.58,2.29-3.82,4.29-4.71.21-.1.06-.18-.1-.14a20.22,20.22,0,0,1-7,.43,18.57,18.57,0,0,1-5-1.05,6.05,6.05,0,0,1-3-2h-.11a.37.37,0,0,0-.26.11S47.86,56.55,47.87,56.57Zm.38.49a9.26,9.26,0,0,0,4.48,2.1,25,25,0,0,0,7.37.58,18.21,18.21,0,0,0,2.65-.39l-.17.11A9.94,9.94,0,0,0,61,60.9c-.79.9-1.35,2-2.1,2.87A5.68,5.68,0,0,1,53,65.67c-2.31-.75-3.33-3-4-5.18A13.31,13.31,0,0,1,48.25,57.06Z"/><path class="cls-8" d="M49.24,55.53a2.45,2.45,0,0,1-3,1,2.47,2.47,0,0,1-.42-.22,4.29,4.29,0,0,0,3.56-1.39,1.68,1.68,0,0,1-.19.64Z"/><path class="cls-8" d="M58.59,54.44A2.73,2.73,0,0,0,61.66,54c1.26-1.07-.37-1.85-1-2.58-.83-1-.55-2.17-.26-3.33a1.73,1.73,0,0,0,.06-.26,3.72,3.72,0,0,0,1.1,3.89c.48.38,1.34.79,1,1.58-.53,1.48-3,2.94-4.09,1.22A0,0,0,0,1,58.59,54.44Z"/><path d="M22.27,44.88s0,0,0,0c-.34,2.15,1.42,5,3.25,6.32a5.65,5.65,0,0,1-1.17-3.36c-.26-2.76.76-5.32,2-7.75,1.54-3.05,3.29-5.92,3.88-9.34a17.24,17.24,0,0,0-.68-9.09,6.6,6.6,0,0,1-.95-2.23c0-.05.06-.07.07,0a11.14,11.14,0,0,0,4,4.81A22.37,22.37,0,0,0,39,27.44a70.75,70.75,0,0,1,6.79,2.21,9.61,9.61,0,0,1,3.59,2.07,18.19,18.19,0,0,0-6.39-6,10.73,10.73,0,0,1-3.82-1.91s0-.07,0-.05a11,11,0,0,0,2.72,1.31h0c1,.35,2.1.62,3.16.93a37.75,37.75,0,0,1,6.27,2.24,18.39,18.39,0,0,1,4.5,3.17,6.68,6.68,0,0,1,1.58,2.08,2.17,2.17,0,0,1,.12,1.13c1-3-.19-6-2-8.49A19.63,19.63,0,0,0,50.14,21l-1.9-.56c-.05,0,0-.09,0-.08l1.26.29-.6-.29s0,0,0,0c.34.15.71.28,1.07.43a63,63,0,0,1,15.43,5.45c3.74,2,8.68,5.56,8.95,10.25a16,16,0,0,0,.93-3.17,8.41,8.41,0,0,0-.55-4.12,12.92,12.92,0,0,0-4.68-5.9l-.21-.13-.29-.25a17.09,17.09,0,0,1,1.79,1.22,11.71,11.71,0,0,1,4,5.78,8.93,8.93,0,0,1-1,7V37s0,.06-.07.06l-.09.18c0,.06-.13,0-.11-.06s.08-.24.13-.36c-.47-5.17-5.77-8.59-10-10.73A77.69,77.69,0,0,0,51,21.22a13.32,13.32,0,0,1,2,1.58,21.12,21.12,0,0,1,3.26,3.68c1.67,2.42,2.85,5.83,1.28,8.6a0,0,0,0,1,0,0l-.12.54s-.08,0-.08,0a3.81,3.81,0,0,0-.79-3,12.43,12.43,0,0,0-2.14-2,19.8,19.8,0,0,0-5-2.87c-1.72-.68-3.52-1.22-5.3-1.73l-.68-.21c2.61,1.47,5,3.26,6.27,6.11,0,0,0,.05,0,.06a1.82,1.82,0,0,1,.16.31s0,0,0,0c-1.47-1.6-3.85-2.37-5.85-3.11-2.19-.81-4.53-1.17-6.69-2.05A22.74,22.74,0,0,1,31.68,24a10.73,10.73,0,0,1-1.42-1.36,16.62,16.62,0,0,1,.51,5.59,20.06,20.06,0,0,1-2.5,9c-1.38,2.68-3,5.31-3.5,8.35-.33,2.07-.08,5.82,2.38,6.53,0,0,0,0,0,0a2.89,2.89,0,0,1-1.09-.45h0a6.7,6.7,0,0,1-3-2.75A5,5,0,0,1,22.27,44.88Z"/><path class="cls-8" d="M63.06,48.76c.54,2.18,2.64,2.82,4.68,2.25A11,11,0,0,0,69,50.54a5.78,5.78,0,0,0,1.09-1.12,3.67,3.67,0,0,1-2.11,1.21,3.94,3.94,0,0,0,1.62-2.37,9.68,9.68,0,0,0,.35-5.46c-.32-1.34-1.25-4.42-3.11-3.88a3.19,3.19,0,0,1,.42-.26c1.5-.74,2.72.43,3.41,1.92a11.12,11.12,0,0,1,.81,3.77s0,0,0,0a8.17,8.17,0,0,0-1-4.48c-.8-1.19-1.55-2.34-3-1.83s-2.94,2.5-3.63,3.84A11.83,11.83,0,0,0,63.06,48.76Zm.26-3.62a9.28,9.28,0,0,1,3.17-6c2.14-.41,2.84,2.22,3.19,3.85a9.65,9.65,0,0,1,0,4.31,4.93,4.93,0,0,1-2.24,3.2,2.76,2.76,0,0,1-3.12-.31C63.09,49.08,63.12,46.72,63.32,45.14Z"/><path class="cls-8" d="M39.35,48.58c1.95.91,3.73,1.63,4.6,3.76,0,.07.15,0,.13,0a4.93,4.93,0,0,0-.88-1.7,6.39,6.39,0,0,0,3.22.26,4.73,4.73,0,0,0,3.68-2.08s0-.05,0,0a4.56,4.56,0,0,1-2.69,1.68,5.76,5.76,0,0,0,1-.8,7.38,7.38,0,0,0,1.81-4.41,10,10,0,0,0-.42-5.36A4.59,4.59,0,0,0,48,37.8a2.76,2.76,0,0,1,1.65,1,7.71,7.71,0,0,1,1.68,4.47s.06,0,.06,0c-.15-1.67-.5-3.8-1.87-5s-3.49-.83-5,.18A9.63,9.63,0,0,0,40.7,44a6.68,6.68,0,0,0,.8,5.19,4.76,4.76,0,0,0-2.14-.61S39.33,48.57,39.35,48.58Zm1.51-1.73a6.78,6.78,0,0,1,.19-3.07A9.24,9.24,0,0,1,44.26,39,6,6,0,0,1,47,37.79h0c3.19.34,3.23,5.09,2.89,7.4a7.46,7.46,0,0,1-1.38,3.87A4.3,4.3,0,0,1,40.86,46.85Z"/><path class="cls-25" d="M67.22,32.67c2.57-1.9,4.62,1.72,5,3.79.05.27.31,1.53-.24,1.57-.93.07-1.11-1.36-1.49-1.92-1.6-2.3-5.17-.16-6,1.77l0,0a.12.12,0,0,1-.23,0A7.66,7.66,0,0,1,67.22,32.67Z"/><path class="cls-25" d="M50.38,32.37a6.07,6.07,0,0,1,2.79,3.43c.35.87.13,2-1,1.27-.7-.44-1.23-1.17-1.92-1.65a7.6,7.6,0,0,0-3.41-1.2,6.82,6.82,0,0,0-3.57.53,7.34,7.34,0,0,0-2,1.89.13.13,0,0,1,0,.06.91.91,0,0,1-.78.56.16.16,0,0,1-.18-.17C41,32.82,46.75,30.15,50.38,32.37Z"/><path d="M64.28,37.85a.12.12,0,0,0,.23,0l0,0c.8-1.93,4.37-4.07,6-1.77.38.56.56,2,1.49,1.92.55,0,.29-1.3.24-1.57-.4-2.07-2.45-5.69-5-3.79A7.66,7.66,0,0,0,64.28,37.85Zm.33-.49a7.72,7.72,0,0,1,2.15-3.92c2.72-2.56,5.19,1,5.32,3.6,0,.64-.47,1-.83.12-.1-.23-.16-.48-.28-.7a2.54,2.54,0,0,0-1.08-1.12,3.34,3.34,0,0,0-3.54.22A4.08,4.08,0,0,0,64.61,37.36Z"/><path d="M40.31,37.09a.16.16,0,0,0,.18.17.91.91,0,0,0,.78-.56.13.13,0,0,0,0-.06,7.34,7.34,0,0,1,2-1.89,6.82,6.82,0,0,1,3.57-.53,7.6,7.6,0,0,1,3.41,1.2c.69.48,1.22,1.21,1.92,1.65,1.08.68,1.3-.4,1-1.27a6.07,6.07,0,0,0-2.79-3.43C46.75,30.15,41,32.82,40.31,37.09Zm.5-.86c0-.09.07-.18.1-.28a5.34,5.34,0,0,1,.39-.75,5.82,5.82,0,0,1,1-1.15A8.61,8.61,0,0,1,45,32.3a6,6,0,0,1,8,4.05c.26.93-.52.61-.79.32a10.26,10.26,0,0,0-3.74-2.45c-2.82-.84-5.83-.24-7.46,2.33C40.6,37.28,40.5,36.91,40.81,36.23Z"/><path class="cls-8" d="M18.54,44.56C20,44.34,21.32,45.8,22.25,47a2.28,2.28,0,0,0,0,.26A7.68,7.68,0,0,0,19.45,45c-1.2-.47-2.29.48-2.81,1.49a4.58,4.58,0,0,0-.21,2.81c.62,3.32,4.77,6.92,8,4.37.11-.09.34.18.23.28C23,55.36,21.15,55,19.35,54A7.12,7.12,0,0,1,16,49C15.67,47.21,16.47,44.85,18.54,44.56Z"/><path class="cls-8" d="M21.7,48.36c1.38,1,2.53,2.81,2.11,4.53,0,.09-.17.06-.15,0a3.36,3.36,0,0,0-.36-2.15,2.23,2.23,0,0,1-1.91.55.05.05,0,0,1,0-.1,2.11,2.11,0,0,0,1.72-.73l0,0a6.54,6.54,0,0,0-.7-1,5.67,5.67,0,0,0-1.14-1,1.68,1.68,0,0,0-1.53-.26c-.38.13-.55.68-.71,1,0,.08-.18.06-.17,0C19,47.47,20.64,47.61,21.7,48.36Z"/><path class="cls-4" d="M68.11,51.4c3-1,3.62-2.59,4.55-.82a3.86,3.86,0,0,1-1.19,4.08C68.26,57.37,64.84,52.54,68.11,51.4Z"/><path class="cls-4" d="M41.46,49.72c3.24,1.69,2.66,7.9.73,5.87s-6.83-3.52-6.63-5.28C35.69,49.23,38.08,48,41.46,49.72Z"/><path class="cls-43" d="M30.43,14.93c.73-2.72,3.51-2.12,5.61-1.81a10.74,10.74,0,0,0,5.37-.27c1.12-.4,2.34-.83,2.58-2.13.09-.55-.12-1,.74-1.18a5.12,5.12,0,0,1,1.41-.06,15.94,15.94,0,0,1,3,.73,13.3,13.3,0,0,0,4.68,1c1-.06,2.3-.11,2.66-1.21a1.22,1.22,0,0,0-.6-1.29,54.43,54.43,0,0,1,6.64.61,48,48,0,0,1,8,2,23.57,23.57,0,0,1,3.52,1.47A29.71,29.71,0,0,1,77.25,15s0,.1,0,.07c-.56-.33-1.1-.69-1.66-1A26.32,26.32,0,0,0,69.23,12c-1.2-.24-2.43-.36-3.64-.48a33.76,33.76,0,0,1,5.46,2.22c5,2.57,8.66,6.72,9.62,12.33a.06.06,0,0,1-.12,0,17.33,17.33,0,0,0-.94-2.74c-3.75-5.26-9.63-8.08-15.82-9.4A88.61,88.61,0,0,0,54,12.73c-1.13-.11-2.27-.26-3.39-.45,3.83,1.85,7.86,3.28,11.65,5.25a43,43,0,0,1,6.17,4,17.16,17.16,0,0,1,4.34,4.57c0,.05-.05.1-.09.06A13.39,13.39,0,0,0,70.84,24a49.13,49.13,0,0,0-15.59-6.67c-2.72-.64-5.49-1.13-8.18-1.9a19.62,19.62,0,0,1-5.13-2c-.5,0-.94.21-.86.86a4.07,4.07,0,0,0,.8,1.66,9.37,9.37,0,0,0,2.87,2.7c1.76,1.14,3.73,1.93,5.58,2.94a15.66,15.66,0,0,1,3.6,2.67c.66.58,1.18,1.32,1.82,1.93,0,.05,0,.13-.08.09-.74-.59-1.37-1.33-2.14-1.9a20,20,0,0,0-3.48-2A47.46,47.46,0,0,0,43.28,20a26.33,26.33,0,0,1-5.93-2.46c-1-.61-2.86-1.59-3.13-2.94-1.47.36.07,4.11.5,5a13,13,0,0,0,3.08,3.79A28.8,28.8,0,0,0,41.92,26l.91.46c.08,0,0,.17,0,.13a32,32,0,0,1-8.08-4.24,13.15,13.15,0,0,1-4.3-6.12A2.81,2.81,0,0,1,30.43,14.93Z"/><path class="cls-43" d="M14.81,34.88c1,1,2.7,2.2,3.84,1.77.08,0,.11-.2.06-.32a5.05,5.05,0,0,0-2-2.15,15.53,15.53,0,0,1-3.14-3.5l0,0a3.35,3.35,0,0,0-.47-.52c-.09-.07-.2,0-.22.12C12.57,31.81,13.88,34,14.81,34.88Z"/><path class="cls-43" d="M25.75,36.48a20.26,20.26,0,0,0,.63-13.58.09.09,0,0,1,.16-.08,17.2,17.2,0,0,1,.54,11.89c-1.25,4.11-3.29,8-2.43,12.48a.13.13,0,0,1-.24.07C23.11,43.72,24.53,39.83,25.75,36.48Z"/><path class="cls-43" d="M15.2,22.32a13.9,13.9,0,0,0,2.19,4c.68.86,1.63,2,2.82,2.07,2.56.2,2.12-3.2,1.3-4.66-1.11-2-3.79-2.82-5.53-4.16-.09-.07-.2.06-.13.14a2.44,2.44,0,0,0,.27.29.83.83,0,0,0-.92.14C14.7,20.67,15,21.78,15.2,22.32Z"/><path class="cls-43" d="M17.47,30.79a.21.21,0,0,0,.36-.06c.56-2.19-1-4.11-2.26-5.76a.15.15,0,0,0-.25.05l-.16-.12a.21.21,0,0,0-.32.15C14.68,27,16.09,29.46,17.47,30.79Z"/><path class="cls-43" d="M19.77,20.36c1,.61,2.26,1.38,3.47,1.09,1.41-.33.82-2.11.77-3.07-.12-2.3,2.43-1.78,3.81-2.51.76-.4,1.1-1.42.19-1.92-2-1.07-4.3-.64-6.27.17-1.34.55-4.08,1.67-4.23,3.38C17.38,18.87,18.74,19.73,19.77,20.36Z"/><path class="cls-43" d="M33.08,2.57a9.69,9.69,0,0,0,3.31.1,26.1,26.1,0,0,1,4.24,0,60.47,60.47,0,0,1,9,1.19c2.92.63,5.83,1.19,8.72,1.95,1.36.36,2.79.6,4.12,1.06a7.71,7.71,0,0,0,3.15.72.25.25,0,0,0,.18-.34C65.35,6,64.15,5.51,63,5a19.82,19.82,0,0,0-5.58-2.28,58.54,58.54,0,0,0-7.52-1.51A49.35,49.35,0,0,0,41.35.89a32,32,0,0,0-7.67,1,.13.13,0,0,0-.07.08,2.76,2.76,0,0,0-.55.19A.21.21,0,0,0,33.08,2.57Z"/><path class="cls-43" d="M25.7,7.17a19.59,19.59,0,0,1,5.1-.73,119.24,119.24,0,0,1,15.64.95c1.39.25,5.19,1.4,4.51.06C50,5.52,44.52,5,42.48,4.84,38,4.42,30.21,4.53,26.16,6.65,25.08,7.22,25.52,7.23,25.7,7.17Z"/><path class="cls-43" d="M26.22,8.32c1.33.89,3.42.43,4.93.46a24.5,24.5,0,0,1,4.26.49A13.55,13.55,0,0,0,39,9.82a.2.2,0,0,0,.12-.33C36.5,6.23,29.78,6.58,26.24,8A.19.19,0,0,0,26.22,8.32Z"/><path class="cls-43" d="M5.24,28.42c.3-2.75.82-5.86,3.17-7.58a.23.23,0,0,1,.15-.05c-.35,1.23-.78,2.44-1,3.7a49.29,49.29,0,0,0-.69,5.67,31.06,31.06,0,0,0,1,10.51c1.14,4,2.86,8.66,5.57,12.28a25.23,25.23,0,0,1-4.56-4.78A21.28,21.28,0,0,1,5.34,39,37.8,37.8,0,0,1,5.24,28.42Z"/><path class="cls-43" d="M4.18,21.86A22,22,0,0,0,2.63,34C3.76,40.48,5.73,48,10.49,53.11c0,0-9-5.89-9.52-18.94C.56,23.93,4.18,21.86,4.18,21.86Z"/><path class="cls-43" d="M12.87,65.45a3,3,0,0,0,3.49-3,8.33,8.33,0,0,0-.93-4.43c0-.05.07-.11.11-.06a7.93,7.93,0,0,1,1.29,5.31,3.13,3.13,0,0,1-1.13,2,2.63,2.63,0,0,1-2.84.18A0,0,0,0,1,12.87,65.45Z"/><path class="cls-43" d="M17,71.6a3,3,0,0,0,.58,1.28s0,0,0,0a2.83,2.83,0,0,1-.16-.36,0,0,0,0,0,.06-.06,10.81,10.81,0,0,1-.11-2.4,12.68,12.68,0,0,1,1.72-3.36,7.74,7.74,0,0,0,1.65-4.56,4.27,4.27,0,0,1,1.57,3,7.4,7.4,0,0,1-.9,3.9,8.09,8.09,0,0,0-.92,3.36A6.17,6.17,0,0,0,21,75.69c.32.85.84,2,1.8,2.32a0,0,0,0,0,0-.06,4.43,4.43,0,0,1-.64-.66A5.22,5.22,0,0,1,21.67,73a20.17,20.17,0,0,1,1.67-3.19,9.06,9.06,0,0,0,1.3-4.44c-.11-4.09-4-5.48-7.38-6.5a.15.15,0,0,0-.16.23c.39.49.81,1,1.17,1.44h0c1.13,2.3.29,4.18-.65,6.34A6.46,6.46,0,0,0,17,71.6Z"/><path class="cls-43" d="M26.86,72a10.07,10.07,0,0,0,.44-5.38,12,12,0,0,0-1.36-3.44c.92.39,1.94.58,2.88.88a7.11,7.11,0,0,1,1.83.8,5.38,5.38,0,0,1,2,2.12,4.73,4.73,0,0,0-2.94-1.65,6.58,6.58,0,0,0-1.66,0,5.26,5.26,0,0,1,2,4.8,8.78,8.78,0,0,1-1.36,3.21c-1,1.81-1.86,4.17-.46,6,0,0,0,.07,0,0a6.4,6.4,0,0,1-1.9-3.71A10,10,0,0,1,26.86,72Z"/><path class="cls-44" d="M61.81,52.9a2.75,2.75,0,0,0-1.19-1,1.86,1.86,0,0,1-1-1c0-.13,0-.27,0-.43-.11-1.29.61-2.9.94-4.12,0,0,.05,0,.05,0a15.64,15.64,0,0,0-.46,3.19,2.62,2.62,0,0,0,.64,1.8,11.25,11.25,0,0,0,1,1.14C61.88,52.62,62,52.85,61.81,52.9Z"/><path class="cls-4" d="M50.27,57.29c1.24.34,2.43.79,3.69,1.05a28.19,28.19,0,0,0,3.88.49A22,22,0,0,0,62,58.69c.92-.12,3.32-.51,3.46-1.76,0,0,.07,0,.07,0,.07.74-.7,1.19-1.26,1.51a9.62,9.62,0,0,1-4.11.78c-3.23.14-7.06-.19-9.89-1.88C50.21,57.32,50.24,57.28,50.27,57.29Z"/><path class="cls-4" d="M45.78,56a6.72,6.72,0,0,0,2-.22,3,3,0,0,0,1.47-1.39,0,0,0,0,1,.05,0,2.79,2.79,0,0,1-3.61,1.77C45.63,56.13,45.68,56,45.78,56Z"/><path class="cls-4" d="M49.86,66.09a7.57,7.57,0,0,0,4.31,1.41,9.89,9.89,0,0,0,4-1.33s.09,0,0,.08c-2.31,2-6.48,3.06-8.53.06A.15.15,0,0,1,49.86,66.09Z"/></g></g></g></svg>